<svg width="1440" height="868" viewBox="0 0 1440 868" fill="none" xmlns="http://www.w3.org/2000/svg">
<path d="M71.9843 -2V64.8461M71.9843 -2H0V64.8461M71.9843 -2H143.969M71.9843 64.8461L71.9843 131.692M71.9843 64.8461H0M71.9843 64.8461L143.969 64.8462M71.9843 131.692V198.538M71.9843 131.692H0M71.9843 131.692L143.969 131.692M71.9843 198.538L71.9843 265.385M71.9843 198.538H0M71.9843 198.538H143.968M71.9843 265.385V332.231M71.9843 265.385H0M71.9843 265.385H143.968M71.9843 332.231V399.077M71.9843 332.231H0M71.9843 332.231H143.968M71.9843 399.077L71.9842 465.923M71.9843 399.077H0M71.9843 399.077H143.968M71.9842 465.923V532.769M71.9842 465.923H0M71.9842 465.923H143.968M71.9842 532.769V599.615M71.9842 532.769H0M71.9842 532.769H143.968M71.9842 599.615L71.9842 666.461M71.9842 599.615H0M71.9842 599.615H143.968M71.9842 666.461V733.308M71.9842 666.461H0M71.9842 666.461H143.968M71.9842 733.308L71.9842 800.154M71.9842 733.308H0M71.9842 733.308H143.968M71.9842 800.154V867M71.9842 800.154H0M71.9842 800.154H143.968M71.9842 867L0 867V800.154M71.9842 867H143.968M0 64.8461V131.692M0 131.692V198.538M0 198.538V265.385M0 265.385V332.231M0 332.231V399.077M0 399.077V465.923M0 465.923V532.769M0 532.769V599.615M0 599.615V666.461M0 666.461V733.308M0 733.308V800.154M143.969 -2V64.8462M143.969 -2H215.953M143.969 64.8462V131.692M143.969 64.8462H215.953M143.969 131.692L143.968 198.538M143.969 131.692H215.953M143.968 198.538V265.385M143.968 198.538L215.953 198.538M143.968 265.385V332.231M143.968 265.385H215.953M143.968 332.231V399.077M143.968 332.231H215.953M143.968 399.077L143.968 465.923M143.968 399.077H215.953M143.968 465.923V532.769M143.968 465.923H215.953M143.968 532.769V599.615M143.968 532.769H215.953M143.968 599.615V666.461M143.968 599.615H215.953M143.968 666.461L143.968 733.308M143.968 666.461H215.953M143.968 733.308V800.154M143.968 733.308H215.953M143.968 800.154V867M143.968 800.154H215.953M143.968 867H215.953M215.953 -2V64.8462M215.953 -2H287.937M215.953 64.8462V131.692M215.953 64.8462L287.937 64.8462M215.953 131.692L215.953 198.538M215.953 131.692H287.937M215.953 198.538V265.385M215.953 198.538H287.937M215.953 265.385V332.231M215.953 265.385L287.937 265.385M215.953 332.231V399.077M215.953 332.231L287.937 332.231M215.953 399.077L215.953 465.923M215.953 399.077H287.937M215.953 465.923V532.769M215.953 465.923H287.937M215.953 532.769V599.615M215.953 532.769H287.937M215.953 599.615V666.461M215.953 599.615H287.937M215.953 666.461L215.953 733.308M215.953 666.461H287.937M215.953 733.308V800.154M215.953 733.308H287.937M215.953 800.154V867M215.953 800.154H287.937M215.953 867H287.937M287.937 -2V64.8462M287.937 -2H359.921M287.937 64.8462V131.692M287.937 64.8462H359.921M287.937 131.692V198.538M287.937 131.692L359.921 131.692M287.937 198.538V265.385M287.937 198.538H359.921M287.937 265.385V332.231M287.937 265.385H359.921M287.937 332.231V399.077M287.937 332.231H359.921M287.937 399.077L287.937 465.923M287.937 399.077H359.921M287.937 465.923V532.769M287.937 465.923H359.921M287.937 532.769V599.615M287.937 532.769H359.921M287.937 599.615V666.461M287.937 599.615H359.921M287.937 666.461V733.308M287.937 666.461H359.921M287.937 733.308V800.154M287.937 733.308H359.921M287.937 800.154V867M287.937 800.154H359.921M287.937 867H359.921M503.89 -2V64.8462M503.89 -2H431.905M503.89 -2H575.874M503.89 64.8462V131.692M503.89 64.8462H431.905M503.89 64.8462L575.874 64.8462M503.89 131.692V198.538M503.89 131.692H431.905M503.89 131.692H575.874M503.89 198.538V265.385M503.89 198.538L431.905 198.538M503.89 198.538H575.874M503.89 265.385V332.231M503.89 265.385H431.905M503.89 265.385H575.874M503.89 332.231V399.077M503.89 332.231H431.905M503.89 332.231H575.874M503.89 399.077L503.89 465.923M503.89 399.077L431.905 399.077M503.89 399.077H575.874M503.89 465.923V532.769M503.89 465.923L431.905 465.923M503.89 465.923H575.874M503.89 532.769V599.615M503.89 532.769L431.905 532.769M503.89 532.769H575.874M503.89 599.615V666.462M503.89 599.615H431.905M503.89 599.615H575.874M503.89 666.462V733.308M503.89 666.462L431.905 666.461M503.89 666.462H575.874M503.89 733.308V800.154M503.89 733.308L431.905 733.308M503.89 733.308H575.874M503.89 800.154V867M503.89 800.154L431.905 800.154M503.89 800.154H575.874M503.89 867H431.905M503.89 867H575.874M719.842 -2V64.8462M719.842 -2H647.858M719.842 -2H791.827M719.842 64.8462V131.692M719.842 64.8462L647.858 64.8462M719.842 64.8462H791.827M719.842 131.692V198.538M719.842 131.692H647.858M719.842 131.692H791.827M719.842 198.538V265.385M719.842 198.538H647.858M719.842 198.538L791.827 198.538M719.842 265.385V332.231M719.842 265.385L647.858 265.385M719.842 265.385H791.827M719.842 332.231V399.077M719.842 332.231L647.858 332.231M719.842 332.231H791.827M719.842 399.077L719.842 465.923M719.842 399.077H647.858M719.842 399.077H791.827M719.842 465.923V532.769M719.842 465.923H647.858M719.842 465.923H791.827M719.842 532.769V599.615M719.842 532.769H647.858M719.842 532.769H791.827M719.842 599.615V666.462M719.842 599.615H647.858M719.842 599.615H791.827M719.842 666.462V733.308M719.842 666.462H647.858M719.842 666.462H791.827M719.842 733.308V800.154M719.842 733.308H647.858M719.842 733.308H791.827M719.842 800.154V867M719.842 800.154H647.858M719.842 800.154H791.827M719.842 867H647.858M719.842 867H791.827M359.921 -2V64.8462M359.921 -2H431.905M359.921 64.8462V131.692M359.921 64.8462L431.905 64.8462M359.921 131.692V198.538M359.921 131.692H431.905M359.921 198.538V265.385M359.921 198.538H431.905M359.921 265.385V332.231M359.921 265.385H431.905M359.921 332.231V399.077M359.921 332.231H431.905M359.921 399.077L359.921 465.923M359.921 399.077H431.905M359.921 465.923V532.769M359.921 465.923H431.905M359.921 532.769V599.615M359.921 532.769H431.905M359.921 599.615V666.461M359.921 599.615H431.905M359.921 666.461V733.308M359.921 666.461H431.905M359.921 733.308V800.154M359.921 733.308H431.905M359.921 800.154V867M359.921 800.154H431.905M359.921 867H431.905M575.874 -2V64.8462M575.874 -2H647.858M575.874 64.8462V131.692M575.874 64.8462H647.858M575.874 131.692V198.538M575.874 131.692L647.858 131.692M575.874 198.538V265.385M575.874 198.538H647.858M575.874 265.385V332.231M575.874 265.385H647.858M575.874 332.231V399.077M575.874 332.231H647.858M575.874 399.077L575.874 465.923M575.874 399.077H647.858M575.874 465.923V532.769M575.874 465.923H647.858M575.874 532.769V599.615M575.874 532.769H647.858M575.874 599.615V666.462M575.874 599.615H647.858M575.874 666.462V733.308M575.874 666.462H647.858M575.874 733.308V800.154M575.874 733.308H647.858M575.874 800.154V867M575.874 800.154H647.858M575.874 867H647.858M791.827 -2V64.8462M791.827 -2H863.811M791.827 64.8462V131.692M791.827 64.8462L863.811 64.8462M791.827 131.692V198.538M791.827 131.692L863.811 131.692M791.827 198.538V265.385M791.827 198.538H863.811M791.827 265.385V332.231M791.827 265.385H863.811M791.827 332.231V399.077M791.827 332.231H863.811M791.827 399.077V465.923M791.827 399.077H863.811M791.827 465.923V532.769M791.827 465.923H863.811M791.827 532.769V599.615M791.827 532.769H863.811M791.827 599.615V666.462M791.827 599.615H863.811M791.827 666.462V733.308M791.827 666.462H863.811M791.827 733.308V800.154M791.827 733.308H863.811M791.827 800.154V867M791.827 800.154H863.811M791.827 867H863.811M431.905 -2V64.8462M431.905 64.8462V131.692M431.905 131.692V198.538M431.905 198.538L431.905 265.385M431.905 265.385V332.231M431.905 332.231V399.077M431.905 399.077V465.923M431.905 465.923V532.769M431.905 532.769V599.615M431.905 599.615L431.905 666.461M431.905 666.461V733.308M431.905 733.308V800.154M431.905 800.154V867M647.858 -2V64.8462M647.858 64.8462V131.692M647.858 131.692V198.538M647.858 198.538V265.385M647.858 265.385V332.231M647.858 332.231V399.077M647.858 399.077V465.923M647.858 465.923V532.769M647.858 532.769V599.615M647.858 599.615V666.462M647.858 666.462V733.308M647.858 733.308V800.154M647.858 800.154V867M863.811 -2V64.8462M863.811 -2H935.795V867H863.811M863.811 64.8462V131.692M863.811 64.8462H935.794M863.811 131.692V198.538M863.811 131.692H935.794M863.811 198.538V265.385M863.811 198.538H935.794M863.811 265.385V332.231M863.811 265.385H935.794M863.811 332.231V399.077M863.811 332.231H935.794M863.811 399.077V465.923M863.811 399.077H935.794M863.811 465.923V532.769M863.811 465.923H935.794M863.811 532.769V599.615M863.811 532.769H935.794M863.811 599.615V666.462M863.811 599.615H935.794M863.811 666.462V733.308M863.811 666.462H935.794M863.811 733.308V800.154M863.811 733.308H935.794M863.811 800.154V867M863.811 800.154H935.794M576.189 -2V64.8461M576.189 -2H504.205V64.8461M576.189 -2H648.173M576.189 64.8461V131.692M576.189 64.8461H504.205M576.189 64.8461L648.173 64.8462M576.189 131.692V198.538M576.189 131.692H504.205M576.189 131.692L648.173 131.692M576.189 198.538V265.385M576.189 198.538H504.205M576.189 198.538H648.173M576.189 265.385V332.231M576.189 265.385H504.205M576.189 265.385H648.173M576.189 332.231V399.077M576.189 332.231H504.205M576.189 332.231H648.173M576.189 399.077V465.923M576.189 399.077H504.205M576.189 399.077H648.173M576.189 465.923V532.769M576.189 465.923H504.205M576.189 465.923H648.173M576.189 532.769V599.615M576.189 532.769H504.205M576.189 532.769H648.173M576.189 599.615V666.461M576.189 599.615H504.205M576.189 599.615H648.173M576.189 666.461V733.308M576.189 666.461H504.205M576.189 666.461H648.173M576.189 733.308L576.189 800.154M576.189 733.308H504.205M576.189 733.308H648.173M576.189 800.154V867M576.189 800.154H504.205M576.189 800.154H648.173M576.189 867L504.205 867V800.154M576.189 867H648.173M504.205 64.8461V131.692M504.205 131.692V198.538M504.205 198.538V265.385M504.205 265.385V332.231M504.205 332.231V399.077M504.205 399.077V465.923M504.205 465.923V532.769M504.205 532.769V599.615M504.205 599.615V666.461M504.205 666.461V733.308M504.205 733.308V800.154M648.173 -2V64.8462M648.173 -2H720.158M648.173 64.8462V131.692M648.173 64.8462H720.158M648.173 131.692V198.538M648.173 131.692H720.158M648.173 198.538V265.385M648.173 198.538L720.158 198.538M648.173 265.385V332.231M648.173 265.385H720.158M648.173 332.231V399.077M648.173 332.231H720.158M648.173 399.077V465.923M648.173 399.077H720.158M648.173 465.923V532.769M648.173 465.923H720.158M648.173 532.769V599.615M648.173 532.769H720.158M648.173 599.615V666.461M648.173 599.615H720.158M648.173 666.461V733.308M648.173 666.461H720.158M648.173 733.308V800.154M648.173 733.308H720.158M648.173 800.154V867M648.173 800.154H720.158M648.173 867H720.158M720.158 -2V64.8462M720.158 -2H792.142M720.158 64.8462V131.692M720.158 64.8462L792.142 64.8462M720.158 131.692L720.158 198.538M720.158 131.692H792.142M720.158 198.538V265.385M720.158 198.538H792.142M720.158 265.385V332.231M720.158 265.385L792.142 265.385M720.158 332.231V399.077M720.158 332.231L792.142 332.231M720.158 399.077V465.923M720.158 399.077H792.142M720.158 465.923V532.769M720.158 465.923H792.142M720.158 532.769V599.615M720.158 532.769H792.142M720.158 599.615V666.461M720.158 599.615H792.142M720.158 666.461V733.308M720.158 666.461H792.142M720.158 733.308V800.154M720.158 733.308H792.142M720.158 800.154V867M720.158 800.154H792.142M720.158 867H792.142M792.142 -2V64.8462M792.142 -2H864.126M792.142 64.8462V131.692M792.142 64.8462H864.126M792.142 131.692V198.538M792.142 131.692L864.126 131.692M792.142 198.538V265.385M792.142 198.538H864.126M792.142 265.385V332.231M792.142 265.385H864.126M792.142 332.231V399.077M792.142 332.231H864.126M792.142 399.077L792.142 465.923M792.142 399.077H864.126M792.142 465.923V532.769M792.142 465.923H864.126M792.142 532.769V599.615M792.142 532.769H864.126M792.142 599.615V666.461M792.142 599.615H864.126M792.142 666.461V733.308M792.142 666.461H864.126M792.142 733.308V800.154M792.142 733.308H864.126M792.142 800.154V867M792.142 800.154H864.126M792.142 867H864.126M1008.09 -2V64.8462M1008.09 -2H936.11M1008.09 -2H1080.08M1008.09 64.8462V131.692M1008.09 64.8462H936.11M1008.09 64.8462L1080.08 64.8462M1008.09 131.692V198.538M1008.09 131.692H936.11M1008.09 131.692H1080.08M1008.09 198.538V265.385M1008.09 198.538L936.11 198.538M1008.09 198.538H1080.08M1008.09 265.385V332.231M1008.09 265.385H936.11M1008.09 265.385H1080.08M1008.09 332.231V399.077M1008.09 332.231H936.11M1008.09 332.231H1080.08M1008.09 399.077V465.923M1008.09 399.077L936.11 399.077M1008.09 399.077H1080.08M1008.09 465.923V532.769M1008.09 465.923L936.11 465.923M1008.09 465.923H1080.08M1008.09 532.769V599.615M1008.09 532.769L936.11 532.769M1008.09 532.769H1080.08M1008.09 599.615V666.462M1008.09 599.615H936.11M1008.09 599.615H1080.08M1008.09 666.462V733.308M1008.09 666.462L936.11 666.461M1008.09 666.462H1080.08M1008.09 733.308V800.154M1008.09 733.308L936.11 733.308M1008.09 733.308H1080.08M1008.09 800.154V867M1008.09 800.154L936.11 800.154M1008.09 800.154H1080.08M1008.09 867H936.11M1008.09 867H1080.08M1224.05 -2V64.8462M1224.05 -2H1152.06M1224.05 -2H1296.03M1224.05 64.8462V131.692M1224.05 64.8462L1152.06 64.8462M1224.05 64.8462H1296.03M1224.05 131.692V198.538M1224.05 131.692H1152.06M1224.05 131.692H1296.03M1224.05 198.538V265.385M1224.05 198.538H1152.06M1224.05 198.538L1296.03 198.538M1224.05 265.385V332.231M1224.05 265.385L1152.06 265.385M1224.05 265.385H1296.03M1224.05 332.231V399.077M1224.05 332.231L1152.06 332.231M1224.05 332.231H1296.03M1224.05 399.077L1224.05 465.923M1224.05 399.077H1152.06M1224.05 399.077H1296.03M1224.05 465.923V532.769M1224.05 465.923H1152.06M1224.05 465.923H1296.03M1224.05 532.769V599.615M1224.05 532.769H1152.06M1224.05 532.769H1296.03M1224.05 599.615V666.462M1224.05 599.615H1152.06M1224.05 599.615H1296.03M1224.05 666.462V733.308M1224.05 666.462H1152.06M1224.05 666.462H1296.03M1224.05 733.308V800.154M1224.05 733.308H1152.06M1224.05 733.308H1296.03M1224.05 800.154V867M1224.05 800.154H1152.06M1224.05 800.154H1296.03M1224.05 867H1152.06M1224.05 867H1296.03M864.126 -2V64.8462M864.126 -2H936.11M864.126 64.8462V131.692M864.126 64.8462L936.11 64.8462M864.126 131.692V198.538M864.126 131.692H936.11M864.126 198.538V265.385M864.126 198.538H936.11M864.126 265.385V332.231M864.126 265.385H936.11M864.126 332.231V399.077M864.126 332.231H936.11M864.126 399.077V465.923M864.126 399.077H936.11M864.126 465.923V532.769M864.126 465.923H936.11M864.126 532.769V599.615M864.126 532.769H936.11M864.126 599.615V666.461M864.126 599.615H936.11M864.126 666.461V733.308M864.126 666.461H936.11M864.126 733.308V800.154M864.126 733.308H936.11M864.126 800.154V867M864.126 800.154H936.11M864.126 867H936.11M1080.08 -2V64.8462M1080.08 -2H1152.06M1080.08 64.8462V131.692M1080.08 64.8462H1152.06M1080.08 131.692V198.538M1080.08 131.692L1152.06 131.692M1080.08 198.538V265.385M1080.08 198.538H1152.06M1080.08 265.385V332.231M1080.08 265.385H1152.06M1080.08 332.231V399.077M1080.08 332.231H1152.06M1080.08 399.077V465.923M1080.08 399.077H1152.06M1080.08 465.923V532.769M1080.08 465.923H1152.06M1080.08 532.769V599.615M1080.08 532.769H1152.06M1080.08 599.615V666.462M1080.08 599.615H1152.06M1080.08 666.462V733.308M1080.08 666.462H1152.06M1080.08 733.308V800.154M1080.08 733.308H1152.06M1080.08 800.154V867M1080.08 800.154H1152.06M1080.08 867H1152.06M1296.03 -2V64.8462M1296.03 -2H1368.02M1296.03 64.8462V131.692M1296.03 64.8462L1368.02 64.8462M1296.03 131.692V198.538M1296.03 131.692L1368.02 131.692M1296.03 198.538V265.385M1296.03 198.538H1368.02M1296.03 265.385V332.231M1296.03 265.385H1368.02M1296.03 332.231V399.077M1296.03 332.231H1368.02M1296.03 399.077V465.923M1296.03 399.077H1368.02M1296.03 465.923V532.769M1296.03 465.923H1368.02M1296.03 532.769V599.615M1296.03 532.769H1368.02M1296.03 599.615V666.462M1296.03 599.615H1368.02M1296.03 666.462V733.308M1296.03 666.462H1368.02M1296.03 733.308V800.154M1296.03 733.308H1368.02M1296.03 800.154V867M1296.03 800.154H1368.02M1296.03 867H1368.02M936.11 -2V64.8462M936.11 64.8462V131.692M936.11 131.692V198.538M936.11 198.538V265.385M936.11 265.385V332.231M936.11 332.231V399.077M936.11 399.077V465.923M936.11 465.923V532.769M936.11 532.769V599.615M936.11 599.615L936.11 666.461M936.11 666.461V733.308M936.11 733.308V800.154M936.11 800.154V867M1152.06 -2V64.8462M1152.06 64.8462V131.692M1152.06 131.692V198.538M1152.06 198.538V265.385M1152.06 265.385V332.231M1152.06 332.231V399.077M1152.06 399.077V465.923M1152.06 465.923V532.769M1152.06 532.769V599.615M1152.06 599.615V666.462M1152.06 666.462V733.308M1152.06 733.308V800.154M1152.06 800.154V867M1368.02 -2V64.8462M1368.02 -2H1440V867H1368.02M1368.02 64.8462V131.692M1368.02 64.8462H1440M1368.02 131.692V198.538M1368.02 131.692H1440M1368.02 198.538V265.385M1368.02 198.538H1440M1368.02 265.385V332.231M1368.02 265.385H1440M1368.02 332.231V399.077M1368.02 332.231H1440M1368.02 399.077V465.923M1368.02 399.077H1440M1368.02 465.923V532.769M1368.02 465.923H1440M1368.02 532.769V599.615M1368.02 532.769H1440M1368.02 599.615V666.462M1368.02 599.615H1440M1368.02 666.462V733.308M1368.02 666.462H1440M1368.02 733.308V800.154M1368.02 733.308H1440M1368.02 800.154V867M1368.02 800.154H1440" stroke="url(#paint0_linear_7_871)"/>
<defs>
<linearGradient id="paint0_linear_7_871" x1="0" y1="-2" x2="1367.07" y2="928.296" gradientUnits="userSpaceOnUse">
<stop stop-color="white" stop-opacity="0.1"/>
<stop offset="1" stop-color="white" stop-opacity="0"/>
</linearGradient>
</defs>
</svg>
