<svg width="48" height="48" viewBox="0 0 48 48" fill="none" xmlns="http://www.w3.org/2000/svg">
<g clip-path="url(#clip0_7_1073)">
<path d="M20.2012 22.8165V24.0567C20.7093 24.0567 20.7907 23.8875 20.7907 23.4334C20.7907 22.9857 20.7164 22.8165 20.2012 22.8165Z" fill="white"/>
<path d="M24.0004 12.6109C17.7221 12.6109 12.6143 17.7199 12.6143 24C12.6143 30.2794 17.7221 35.3884 24.0004 35.3884C30.279 35.3884 35.3865 30.2794 35.3865 24C35.3865 17.7199 30.279 12.6109 24.0004 12.6109ZM18.4545 25.5746C18.4545 26.9033 17.9396 26.9509 16.7471 26.9509H15.7504V22.125H16.7471C17.7026 22.125 18.4545 22.1385 18.4545 23.2976C18.4545 23.8331 18.2989 24.3143 17.6554 24.3754V24.4226C18.3735 24.4226 18.4545 24.9514 18.4545 25.5746ZM20.9539 26.9509C20.8185 26.754 20.7911 26.4698 20.7911 26.28V25.2566C20.7911 24.918 20.5879 24.7485 20.3846 24.7485H20.2016V26.9513H19.1254V22.125H20.2088C21.279 22.125 21.9165 22.2338 21.9165 23.25C21.9165 23.8534 21.6656 24.246 21.0555 24.348V24.3619C21.5981 24.3754 21.9165 24.5787 21.9165 25.2702V26.28C21.9165 26.4698 21.9503 26.754 22.0856 26.9509H20.9539ZM24.3679 26.9509L24.2385 25.7644H23.6291L23.4461 26.9509H22.4978L23.3179 22.125H24.8629L25.4861 26.9509H24.3679ZM29.1848 26.9509H27.7414L26.9074 22.9182H26.8939V26.9509H25.8754V22.125H27.5715L28.29 25.6354H28.3031V22.125H29.1848V26.9509ZM30.9383 26.9509H29.6254V22.125H30.9383C32.1983 22.125 32.6254 22.3287 32.6254 23.7724V25.4933C32.6254 26.4087 32.3543 26.9509 30.9383 26.9509Z" fill="white"/>
<path d="M30.9039 22.8165V26.2598C31.4529 26.2598 31.5005 26.0494 31.5005 25.5889V23.6025C31.5005 22.9586 31.4739 22.8165 30.9039 22.8165ZM23.9473 22.8844L23.7511 25.0328H24.1576L23.9611 22.8844H23.9473ZM16.7334 22.8165V24.084C17.0855 24.0638 17.3296 24.1789 17.3296 23.4536C17.3296 22.9789 17.2891 22.7828 16.7334 22.8165ZM16.7334 24.7748V26.2594C17.336 26.3138 17.3296 25.968 17.3296 25.4663C17.3296 24.7819 17.2078 24.7748 16.7334 24.7748Z" fill="white"/>
<path d="M45.8959 19.3522C45.3255 18.5977 44.7855 17.8852 44.5849 17.2627C44.3666 16.5866 44.3842 15.6555 44.4034 14.6689C44.4341 13.0616 44.4683 11.2395 43.4239 9.78786C42.36 8.31561 40.6155 7.78386 39.0758 7.31511C38.1499 7.03349 37.2761 6.76761 36.7223 6.36111C36.1823 5.96511 35.6681 5.21586 35.124 4.42274C34.2041 3.08211 33.1624 1.56336 31.4224 0.992987C30.9746 0.845987 30.5066 0.774362 29.9925 0.774362C28.7996 0.774362 27.6532 1.17449 26.544 1.56224C25.6072 1.88811 24.7237 2.19674 24 2.19674C23.2759 2.19674 22.3924 1.88774 21.4564 1.56111C20.3482 1.17411 19.2026 0.773987 18.0112 0.773987C17.4975 0.773987 17.0291 0.844862 16.5791 0.991862C14.8369 1.56261 13.7944 3.08211 12.8745 4.42274C12.33 5.21586 11.8155 5.96549 11.2744 6.36261C10.7216 6.76799 9.84788 7.03386 8.92275 7.31586C7.3845 7.78461 5.6415 8.31561 4.57913 9.78449C3.53025 11.2391 3.56475 13.062 3.59587 14.6704C3.61462 15.6562 3.633 16.587 3.41513 17.2631C3.2145 17.8852 2.67488 18.5981 2.10413 19.3519C1.1175 20.6561 0 22.1329 0 24C0 25.8664 1.11825 27.3439 2.1045 28.6481C2.67525 29.4026 3.2145 30.1151 3.41513 30.7365C3.63188 31.4107 3.61387 32.3415 3.59512 33.3266C3.56437 34.9354 3.5295 36.7586 4.57762 38.2125C5.63925 39.684 7.38375 40.2142 8.92237 40.6822C9.84787 40.9635 10.7224 41.2294 11.2744 41.6351C11.8151 42.0322 12.3293 42.7819 12.8741 43.5754C13.794 44.9164 14.8365 46.4374 16.5769 47.0066C17.0276 47.1544 17.4956 47.2256 18.0079 47.2256C19.1981 47.2256 20.3438 46.8259 21.4519 46.4385C22.389 46.1115 23.2736 45.8032 24 45.8032C24.7237 45.8032 25.6065 46.1107 26.5414 46.4374C27.6502 46.8244 28.7977 47.2256 29.9917 47.2256C30.5059 47.2256 30.9746 47.154 31.4235 47.0051C33.1609 46.4366 34.2034 44.9164 35.1236 43.5746C35.6678 42.7819 36.1819 42.0322 36.7234 41.6336C37.2743 41.2305 38.1488 40.965 39.0746 40.6837C40.614 40.2157 42.3592 39.6851 43.4212 38.2147C44.4675 36.7594 44.433 34.9384 44.4026 33.3311C44.3831 32.3445 44.3662 31.413 44.5845 30.7361C44.7844 30.1166 45.3236 29.4045 45.8929 28.6507C46.8817 27.3469 48 25.8675 48 24C48 22.1332 46.8825 20.6561 45.8959 19.3522ZM36.1016 15.588L37.3474 15.1275L37.6751 13.8416C37.7299 13.6279 37.8844 13.5952 38.0198 13.7681L38.8418 14.8099L40.1663 14.7232C40.3871 14.7082 40.4655 14.8451 40.3436 15.0281L39.606 16.1329L40.0973 17.3662C40.1782 17.5702 40.0729 17.6872 39.8617 17.628L38.583 17.2687L37.5615 18.1177C37.3927 18.2576 37.2484 18.1942 37.2397 17.9741L37.1865 16.6474L36.0645 15.9382C35.88 15.8216 35.8961 15.6645 36.1016 15.588ZM30.0919 10.5499L30.9405 9.52761L30.5816 8.24999C30.5224 8.03774 30.6394 7.93236 30.8434 8.01374L32.0756 8.50536L33.18 7.76774C33.363 7.64436 33.5002 7.72386 33.4849 7.94324L33.399 9.26849L34.4404 10.0912C34.6125 10.2274 34.5795 10.3815 34.368 10.4359L33.0806 10.764L32.6198 12.0097C32.544 12.2152 32.3873 12.2329 32.2691 12.0469L31.56 10.9237L30.2336 10.8712C30.0154 10.863 29.9516 10.7186 30.0919 10.5499ZM21.7511 6.61986L23.0644 6.42861L23.6516 5.23761C23.7495 5.03961 23.9066 5.03961 24.0037 5.23761L24.5918 6.42861L25.9046 6.61986C26.1225 6.65099 26.1709 6.80099 26.0138 6.95474L25.0635 7.88249L25.2878 9.19161C25.3252 9.40836 25.1977 9.50136 25.0024 9.39899L23.8279 8.78099L22.653 9.39899C22.458 9.50136 22.3305 9.40836 22.3676 9.19161L22.5922 7.88249L21.642 6.95474C21.4845 6.80136 21.5336 6.65099 21.7511 6.61986ZM13.1801 9.95961L14.2219 9.13799L14.1353 7.81274C14.1206 7.59224 14.2571 7.51349 14.4401 7.63649L15.5441 8.37411L16.7771 7.88249C16.9819 7.80074 17.0989 7.90649 17.0392 8.11836L16.6796 9.39636L17.5286 10.4182C17.6689 10.5874 17.6047 10.7317 17.385 10.7407L16.0586 10.7929L15.3502 11.9156C15.2329 12.1016 15.0761 12.0847 14.9993 11.8785L14.5391 10.6324L13.2529 10.3046C13.0402 10.2506 13.008 10.0961 13.1801 9.95961ZM7.35712 14.496L8.682 14.5819L9.50362 13.5397C9.64013 13.3672 9.79425 13.4002 9.84863 13.6129L10.176 14.8995L11.4221 15.3604C11.6284 15.4365 11.6452 15.5932 11.4589 15.7114L10.3365 16.4201L10.2844 17.7465C10.2758 17.9666 10.1314 18.0307 9.96225 17.8905L8.94075 17.0407L7.6635 17.4004C7.45125 17.46 7.3455 17.343 7.42688 17.1382L7.9185 15.9056L7.18087 14.8012C7.05788 14.6175 7.137 14.4814 7.35712 14.496ZM6.03338 26.2331L5.84288 24.9191L4.65225 24.3319C4.45425 24.2347 4.45425 24.0772 4.65225 23.9797L5.84288 23.3925L6.03338 22.0785C6.06525 21.8606 6.21562 21.8115 6.369 21.9694L7.29562 22.92L8.60437 22.6954C8.82113 22.6579 8.91412 22.7857 8.81175 22.9811L8.19413 24.156L8.81213 25.3312C8.91413 25.5259 8.82113 25.6534 8.60437 25.6166L7.29562 25.3924L6.369 26.3419C6.21525 26.4994 6.06525 26.4506 6.03338 26.2331ZM11.2905 32.9857L10.0451 33.4462L9.71737 34.7329C9.663 34.9462 9.50887 34.9792 9.37275 34.8064L8.55112 33.7646L7.22587 33.8512C7.00575 33.8659 6.927 33.729 7.05 33.5464L7.78763 32.4416L7.29562 31.209C7.21425 31.0039 7.32 30.8869 7.5315 30.9469L8.80912 31.3057L9.831 30.4567C9.99975 30.3165 10.1445 30.3799 10.1528 30.6004L10.2056 31.9267L11.3284 32.6359C11.514 32.7525 11.4967 32.9092 11.2905 32.9857ZM17.3014 38.0242L16.4528 39.0469L16.8116 40.3237C16.8713 40.5356 16.7542 40.6414 16.5499 40.5604L15.3173 40.0684L14.2133 40.806C14.0303 40.9297 13.8934 40.8506 13.9084 40.6301L13.9946 39.3052L12.9525 38.4832C12.78 38.3467 12.813 38.1919 13.026 38.1379L14.3119 37.8101L14.7728 36.5644C14.8489 36.3585 15.0052 36.3409 15.123 36.5276L15.8325 37.6492L17.1585 37.7017C17.3775 37.7111 17.4416 37.8551 17.3014 38.0242ZM25.6418 41.9546L24.3289 42.1451L23.7416 43.3369C23.6449 43.5349 23.4862 43.5345 23.3899 43.3369L22.8026 42.1459L21.489 41.9546C21.2711 41.9224 21.2224 41.7724 21.3799 41.619L22.3294 40.6912L22.1051 39.3821C22.0684 39.1661 22.1955 39.0724 22.3909 39.1747L23.5661 39.7924L24.7406 39.174C24.9356 39.0724 25.0627 39.1654 25.0256 39.3821L24.8021 40.6912L25.7505 41.6182C25.9088 41.7731 25.8596 41.9224 25.6418 41.9546ZM34.212 38.6149L33.1714 39.4361L33.2576 40.7614C33.273 40.9822 33.1354 41.061 32.9528 40.9384L31.8484 40.2004L30.6157 40.692C30.4106 40.7734 30.294 40.6672 30.3536 40.4561L30.7125 39.1781L29.8635 38.1562C29.7236 37.9875 29.7874 37.8424 30.0071 37.8349L31.3342 37.7812L32.0419 36.6577C32.1592 36.4729 32.3164 36.4901 32.3929 36.696L32.8538 37.9417L34.1393 38.2699C34.3526 38.3239 34.3849 38.4776 34.212 38.6149ZM24 36.9427C16.8529 36.9427 11.0599 31.1486 11.0599 24C11.0599 16.8514 16.8529 11.0561 24 11.0561C31.1464 11.0561 36.9401 16.851 36.9401 24C36.9401 31.1486 31.1464 36.9427 24 36.9427ZM40.0373 34.0781L38.7116 33.9919L37.89 35.034C37.7535 35.2061 37.5994 35.1727 37.5454 34.9609L37.2173 33.6742L35.9719 33.2134C35.766 33.1376 35.7484 32.9809 35.9344 32.8627L37.0571 32.1536L37.1092 30.8265C37.1179 30.6079 37.2626 30.5434 37.4306 30.6836L38.4533 31.5326L39.7298 31.1737C39.942 31.1137 40.0481 31.2315 39.9664 31.4359L39.4755 32.6685L40.2124 33.7725C40.3361 33.9566 40.2562 34.0927 40.0373 34.0781ZM42.7421 24.5944L41.5519 25.182L41.3599 26.4964C41.328 26.7135 41.1776 26.7619 41.025 26.6051L40.0969 25.6545L38.7881 25.8787C38.5714 25.9162 38.4784 25.7895 38.5804 25.5937L39.198 24.4181L38.58 23.2425C38.4784 23.0486 38.5714 22.9211 38.7881 22.9579L40.0969 23.1817L41.0235 22.2326C41.1772 22.0744 41.3284 22.1239 41.3595 22.341L41.5508 23.6546L42.7414 24.2422C42.9401 24.3394 42.9394 24.4972 42.7421 24.5944Z" fill="url(#paint0_linear_7_1073)"/>
</g>
<defs>
<linearGradient id="paint0_linear_7_1073" x1="34.4252" y1="11.2428" x2="12.8778" y2="39.9404" gradientUnits="userSpaceOnUse">
<stop stop-color="#9DE8EE"/>
<stop offset="0.0001" stop-color="#9DE8EE"/>
<stop offset="0.490049" stop-color="#FA7C0B"/>
<stop offset="1" stop-color="#9F8CED"/>
</linearGradient>
<clipPath id="clip0_7_1073">
<rect width="48" height="48" fill="white"/>
</clipPath>
</defs>
</svg>
