<svg width="390" height="260" viewBox="0 0 390 260" fill="none" xmlns="http://www.w3.org/2000/svg">
<path d="M291.751 52.6658L291.76 52.6661C291.775 52.6667 291.789 52.6634 291.802 52.6567L291.809 52.653C293.013 52.0428 294.249 51.499 295.512 51.0242C296.765 50.5481 298.063 50.0869 299.325 49.7171L299.222 49.732L299.241 49.7325C299.272 49.7334 299.304 49.7294 299.334 49.7204L299.359 49.7127C306.028 47.6208 312.953 46.4545 319.939 46.2465C323.421 46.1433 326.906 46.2544 330.374 46.5792L340.886 47.4673C347.897 48.0329 354.921 48.4372 361.941 48.8841C368.963 49.3096 375.982 49.771 382.991 50.3547L382.841 49.8178C381.601 50.719 380.466 51.7573 379.459 52.913C378.462 54.0824 377.612 55.3696 376.929 56.7459C376.268 58.1313 375.744 59.578 375.365 61.0655C375.005 62.556 374.775 64.0747 374.675 65.6047C374.505 68.6625 374.711 71.7297 375.288 74.7375C375.834 77.7584 376.69 80.7149 377.844 83.5597L378.679 82.4853C373.747 81.5536 368.817 80.6137 363.879 79.7182L349.071 76.9996L349.88 77.7288L349.773 77.411L349.805 77.4974C349.089 75.2306 347.613 73.2799 345.627 71.9736C343.653 70.6707 341.311 70.0387 338.95 70.1715C336.578 70.3239 334.328 71.275 332.566 72.87C332.336 73.0544 332.128 73.2651 331.947 73.4978L331.375 74.1703C331.032 74.6442 330.715 75.1368 330.427 75.646C330.153 76.151 329.966 76.6703 329.734 77.1823C329.625 77.4398 329.507 77.6946 329.408 77.9544L329.163 78.7481C327.985 82.9457 327.532 87.3138 327.824 91.664C328.018 95.9554 328.62 100.219 329.622 104.396L330.363 103.653L320.408 101.571L310.433 99.5768C310.408 99.5718 310.382 99.5767 310.36 99.5906C310.338 99.6045 310.323 99.6263 310.318 99.6513C310.312 99.6762 310.316 99.7024 310.329 99.7243C310.343 99.7462 310.364 99.762 310.389 99.7683L320.227 102.349L330.083 104.855C330.182 104.88 330.286 104.88 330.385 104.854C330.484 104.829 330.575 104.779 330.65 104.709C330.724 104.639 330.78 104.551 330.812 104.454C330.844 104.356 330.85 104.253 330.831 104.152L330.824 104.112C330.028 99.9897 329.574 95.8088 329.465 91.6119C329.286 87.4696 329.813 83.327 331.023 79.3613L331.256 78.6369C331.349 78.4032 331.459 78.1779 331.559 77.9479C331.772 77.4981 331.95 77.0139 332.187 76.5917C332.455 76.1996 332.666 75.7633 332.97 75.4022L333.437 74.8689C333.58 74.6815 333.749 74.5145 333.937 74.3722C335.364 73.1148 337.173 72.3752 339.072 72.2729C340.98 72.1634 342.873 72.6706 344.47 73.7196C346.061 74.7691 347.251 76.3245 347.849 78.1343L347.882 78.2212C347.887 78.246 347.894 78.2702 347.904 78.2933L347.97 78.4433C348.037 78.5934 348.14 78.7247 348.27 78.8258C348.399 78.9268 348.552 78.9945 348.714 79.0228L363.558 81.5359C368.505 82.3844 373.459 83.1884 378.412 84.0007C378.549 84.0232 378.69 84.0083 378.82 83.9574C378.949 83.9065 379.063 83.8216 379.149 83.7116C379.234 83.6016 379.288 83.4706 379.305 83.3323C379.323 83.1941 379.302 83.0538 379.247 82.9261C378.07 80.2066 377.152 77.3822 376.505 74.4903C375.833 71.594 375.531 68.6242 375.606 65.6519C375.654 64.1703 375.83 62.6957 376.131 61.2442C376.45 59.7981 376.929 58.3921 377.559 57.0523C378.202 55.719 379.006 54.4696 379.953 53.3319C380.914 52.2027 382 51.1855 383.189 50.2993L383.198 50.2929C383.245 50.2562 383.28 50.206 383.298 50.149C383.317 50.092 383.317 50.0308 383.3 49.9735C383.283 49.9161 383.249 49.8652 383.202 49.8276C383.156 49.7899 383.099 49.7671 383.04 49.7623C376.029 49.1928 369.029 48.5052 362.032 47.7738C355.034 47.0651 348.039 46.3138 341.03 45.7237L330.514 44.8785C326.975 44.5765 323.419 44.5221 319.871 44.7155C316.326 44.9119 312.8 45.3751 309.324 46.1013C305.851 46.804 302.44 47.783 299.123 49.0289L299.241 49.0092L299.222 49.0097L299.195 49.0105C299.169 49.0113 299.144 49.0161 299.12 49.0246C297.805 49.4941 296.575 50.0159 295.324 50.5751C294.079 51.1308 292.872 51.7678 291.711 52.482L291.76 52.469L291.751 52.4693C291.725 52.4703 291.701 52.4811 291.684 52.4994C291.666 52.5177 291.656 52.5422 291.656 52.5676C291.656 52.593 291.666 52.6174 291.684 52.6357C291.701 52.654 291.725 52.6648 291.751 52.6658L291.751 52.6658Z" fill="url(#paint0_linear_0_1)"/>
<path d="M248.763 78.8661C249.323 76.0596 250.447 73.3961 252.068 71.0372C252.876 69.9063 253.806 68.8675 254.841 67.9393C255.889 67.0235 257.013 66.1976 258.199 65.4705C260.637 64.0452 263.238 62.9195 265.945 62.1178C268.691 61.2863 271.499 60.6749 274.341 60.2892L274.396 60.2838C275.368 60.013 276.336 59.7239 277.301 59.4163C276.289 59.4661 275.281 59.5381 274.277 59.6267L274.331 59.6214C271.363 59.4917 268.391 59.7746 265.5 60.462C262.564 61.1232 259.756 62.2585 257.185 63.8233C254.564 65.4025 252.382 67.6151 250.84 70.2578C249.356 72.8766 248.637 75.8589 248.763 78.8661Z" fill="url(#paint1_linear_0_1)"/>
<path d="M341.812 70.772C340.1 70.1093 338.368 69.5323 336.625 69.0091C334.884 68.4786 333.133 67.9888 331.373 67.5397C329.619 67.0668 327.845 66.6811 326.078 66.2642C324.302 65.8915 322.529 65.5018 320.739 65.1887L320.325 65.1164L320.065 65.3149C319.331 65.8819 318.654 66.5187 318.043 67.2164C317.437 67.8803 316.88 68.5876 316.376 69.3325C315.872 70.0684 315.419 70.8384 315.021 71.6371C314.621 72.4271 314.282 73.2471 314.008 74.0895C314.52 73.372 315.048 72.6774 315.592 72.0058C316.143 71.3352 316.699 70.6661 317.279 70.0589C317.871 69.4433 318.476 68.8477 319.106 68.2869C319.72 67.7462 320.364 67.2395 321.034 66.7691L320.361 66.8953C322.116 67.3656 323.887 67.7603 325.653 68.1784C327.43 68.5506 329.2 68.9539 330.989 69.2701C332.772 69.6128 334.565 69.912 336.367 70.1678C338.168 70.4337 339.98 70.6457 341.812 70.772Z" fill="url(#paint2_linear_0_1)"/>
<path d="M366.734 48.7195C364.636 50.6604 362.984 53.0344 361.895 55.6771C360.755 58.3192 360.037 61.1234 359.764 63.9878C359.537 66.8452 359.712 69.7205 360.285 72.5291C360.354 72.8782 360.407 73.2298 360.49 73.5752L360.783 74.6008L361.399 76.6344C361.896 77.9599 362.478 79.2524 363.087 80.5135C362.889 79.1067 362.561 77.7581 362.333 76.3936L362.045 74.343L361.886 73.3265C361.843 72.9867 361.83 72.6427 361.801 72.3019C361.754 71.6185 361.699 70.9386 361.627 70.2617C361.577 69.583 361.603 68.9006 361.587 68.2225C361.556 66.8684 361.601 65.5136 361.72 64.1644C361.969 61.4666 362.506 58.8032 363.322 56.2197C364.144 53.5878 365.29 51.0684 366.734 48.7195Z" fill="url(#paint3_linear_0_1)"/>
<path d="M313.478 69.1644C312.009 68.6162 310.532 68.0772 309.045 67.5661C309.127 68.1729 309.171 68.7843 309.175 69.3967C310.448 69.7963 311.731 70.1773 313.022 70.549C313.896 70.7999 314.769 71.0509 315.652 71.3017C315.773 71.1159 315.894 70.9393 316.015 70.772C316.135 70.5955 316.265 70.4282 316.377 70.2702C315.411 69.8893 314.444 69.5268 313.478 69.1644Z" fill="url(#paint4_linear_0_1)"/>
<path d="M298.832 66.0234C299.965 66.4137 301.081 66.8041 302.214 67.185H302.224C302.577 66.626 302.988 66.1058 303.45 65.6332L303.032 65.4937C301.778 65.0849 300.523 64.676 299.268 64.2764C299.12 64.9083 298.962 65.4937 298.832 66.0234Z" fill="url(#paint5_linear_0_1)"/>
<path d="M305.217 59.8995C303.349 59.2955 301.481 58.6914 299.604 58.106C299.807 58.7298 299.904 59.3831 299.892 60.0389C301.462 60.5965 303.051 61.1261 304.631 61.6651C308.135 62.8081 311.656 63.9326 315.206 64.9455C316.851 65.4287 318.505 65.8902 320.169 66.3301C322.083 66.8412 323.997 67.3245 325.939 67.7426C325.168 67.3988 324.397 67.0549 323.616 66.7204C323.607 66.7204 323.607 66.7204 323.598 66.7111C320.977 65.596 318.319 64.5645 315.662 63.5701C312.205 62.2692 308.711 61.0797 305.217 59.8995Z" fill="url(#paint6_linear_0_1)"/>
<path d="M290.599 56.6099C290.757 56.6749 290.915 56.74 291.073 56.7957C291.479 56.4558 291.937 56.1829 292.43 55.9873C291.928 55.8479 291.426 55.7085 290.924 55.5691C290.803 55.9594 290.692 56.3125 290.599 56.6099Z" fill="url(#paint7_linear_0_1)"/>
<path d="M378.543 83.2394C399.523 64.0909 383.011 50.0623 383.011 50.0623C368.348 60.6802 378.543 83.2394 378.543 83.2394Z" fill="url(#paint8_linear_0_1)"/>
<path d="M330.225 104.25C347.537 109.414 348.892 78.0098 348.892 78.0098C348.871 77.9453 348.851 77.8813 348.83 77.8178C346.227 69.822 335.07 68.7878 331.221 76.264C326.005 86.3949 330.225 104.25 330.225 104.25Z" fill="url(#paint9_linear_0_1)"/>
<path d="M317.166 100.5C320.033 107.565 322.967 114.557 325.666 121.614C328.425 128.584 330.749 135.718 332.627 142.975C333.07 144.756 333.41 146.561 333.646 148.381C333.902 150.143 333.894 151.933 333.622 153.693C333.479 154.52 333.199 155.318 332.791 156.052C332.376 156.75 331.8 157.339 331.112 157.77C329.541 158.567 327.755 158.834 326.019 158.532C322.334 157.893 318.787 156.615 315.54 154.758C314.715 154.301 313.889 153.85 313.075 153.373L310.667 151.875C309.042 150.911 307.52 149.783 305.961 148.724C304.408 147.654 302.931 146.475 301.416 145.36L299.217 143.587C298.485 142.997 297.732 142.435 297.026 141.813C295.606 140.579 294.128 139.421 292.748 138.146L290.643 136.277L288.592 134.349C285.869 131.769 283.249 129.086 280.733 126.302C278.199 123.539 275.767 120.684 273.393 117.781C268.633 111.961 264.2 105.881 260.116 99.5684C258.067 96.4059 256.101 93.1845 254.218 89.9042C252.332 86.6269 250.527 83.2883 248.883 79.8663L248.513 79.9978C250.737 87.3443 253.734 94.4339 257.455 101.148C261.128 107.913 265.367 114.356 270.127 120.406C274.938 126.433 280.279 132.017 286.087 137.091L288.267 138.986L290.508 140.809C291.992 142.034 293.546 143.174 295.099 144.309C296.654 145.44 298.27 146.49 299.87 147.55C301.519 148.544 303.123 149.596 304.799 150.534C306.472 151.475 308.123 152.445 309.83 153.316C311.521 154.211 313.208 155.112 314.937 155.948C318.379 157.727 322.051 159.021 325.848 159.795C327.873 160.222 329.981 160.01 331.879 159.187C332.86 158.695 333.708 157.976 334.353 157.088C334.959 156.211 335.423 155.243 335.725 154.22C336.261 152.259 336.496 150.228 336.422 148.196C336.369 146.226 336.171 144.262 335.831 142.321C335.137 138.506 334.119 134.757 332.789 131.115C331.514 127.48 330.057 123.928 328.476 120.44C327.701 118.689 326.859 116.97 326.011 115.256C325.17 113.539 324.284 111.845 323.371 110.166C321.552 106.806 319.635 103.5 317.512 100.314L317.166 100.5Z" fill="url(#paint10_linear_0_1)"/>
<path d="M363.354 54.1322C358.002 53.3269 352.636 52.7148 347.265 52.1708C341.894 51.6145 336.515 51.1728 331.135 50.7533C325.752 50.3705 320.367 50.0122 314.973 49.7679C309.581 49.5115 304.183 49.3246 298.771 49.3324C304.122 50.1402 309.489 50.7533 314.86 51.2968C320.23 51.8525 325.609 52.2942 330.989 52.7113C336.373 53.0918 341.758 53.4501 347.151 53.6937C352.544 53.9496 357.942 54.1376 363.354 54.1322Z" fill="url(#paint11_linear_0_1)"/>
<path d="M297.624 144.286C298.393 137.461 299.133 130.625 299.796 123.782L300.05 121.216L300.177 119.933C300.19 119.833 300.194 119.703 300.214 119.627C300.237 119.566 300.256 119.504 300.27 119.441C300.334 119.269 300.408 119.101 300.489 118.937C301.248 117.5 302.243 116.063 303.166 114.628C305.05 111.756 306.868 108.812 308.492 105.747C309.296 104.209 310.053 102.641 310.715 101.023C311.37 99.384 311.919 97.7523 312.487 96.1412C313.629 92.9062 314.761 89.6681 315.85 86.4152L317.504 81.5424L317.917 80.3241C318.078 79.8631 318.186 79.3852 318.239 78.8997C318.354 77.9122 318.215 76.9116 317.835 75.9931C317.456 75.0154 316.736 74.2079 315.808 73.7202C314.849 73.2989 313.765 73.2554 312.775 73.5986C311.073 74.2374 309.519 75.2183 308.21 76.4807L309.232 77.0545C309.468 75.3974 309.62 73.7293 309.686 72.0567C309.718 71.222 309.723 70.378 309.69 69.5425C309.619 68.7002 309.585 67.8442 309.443 67.0083C309.321 66.118 309.003 65.2658 308.513 64.5129C308.22 64.09 307.788 63.7835 307.292 63.6467C306.816 63.549 306.323 63.5762 305.861 63.7256C304.191 64.2931 302.791 65.457 301.927 66.9939L302.224 66.8323H302.215L302.022 66.8334L301.92 66.9907C301.349 67.9056 300.833 68.8532 300.373 69.8287C300.159 70.2925 299.909 70.7384 299.624 71.162C299.448 71.3703 299.45 71.3674 299.2 71.3819C299.122 71.3899 299.043 71.3736 298.974 71.3353C298.905 71.297 298.849 71.2385 298.814 71.1677C298.641 70.7227 298.571 70.2441 298.611 69.7682C298.624 69.2463 298.665 68.7255 298.734 68.208C298.867 67.1618 299.073 66.1262 299.35 65.1086C299.633 64.0726 299.861 63.0223 300.033 61.9623C300.228 60.8781 300.243 59.7691 300.077 58.6801C299.973 58.1155 299.764 57.5756 299.459 57.0889C299.139 56.5968 298.703 56.1913 298.188 55.9086C297.173 55.4116 296.043 55.1939 294.916 55.2778L294.974 55.2805C294.493 55.2342 294.008 55.2502 293.531 55.328C293.06 55.4042 292.598 55.5347 292.156 55.717C291.263 56.0914 290.488 56.7026 289.916 57.4847L289.952 57.4429C289.878 57.5216 289.835 57.6247 289.83 57.7329L289.837 59.3175L290.564 57.9073L290.573 57.889L290.583 57.8714L290.598 57.8269C291.9 54.377 292.776 50.7817 293.209 47.12C293.301 46.1714 293.288 45.2155 293.171 44.2697C293.083 43.2151 292.626 42.2252 291.88 41.4742C291.445 41.0975 290.913 40.8503 290.344 40.7605C289.793 40.6961 289.235 40.753 288.708 40.9272C287.767 41.28 286.907 41.8195 286.18 42.5132C284.814 43.8112 283.614 45.2728 282.606 46.8649C281.59 48.4118 280.657 50.0112 279.81 51.6565C278.046 54.919 276.653 58.3694 275.66 61.9428C274.713 65.4809 273.819 68.9866 272.604 72.3698C271.379 75.711 269.901 79.0731 267.549 81.5098C266.458 82.7054 264.996 83.4979 263.398 83.7594C262.578 83.8448 261.75 83.8112 260.939 83.6595C260.076 83.5404 259.221 83.365 258.38 83.1343C256.693 82.6774 255.066 82.0216 253.534 81.1808C252.019 80.353 250.619 79.3294 249.37 78.1366L248.367 77.1405L247.833 78.3593C247.253 79.7287 246.901 81.1834 246.791 82.666C246.67 84.1037 246.722 85.5505 246.944 86.9759C247.417 89.796 248.437 92.4963 249.948 94.924C250.698 96.1571 251.611 97.2836 252.661 98.2734C253.73 99.2228 254.897 100.055 256.143 100.756C257.369 101.445 258.626 102.017 259.777 102.659C260.901 103.203 261.863 104.033 262.566 105.065C263.152 106.184 263.462 107.427 263.47 108.69C263.56 110.034 263.611 111.389 263.627 112.749C263.661 115.468 263.609 118.196 263.512 120.922C263.407 123.649 263.301 126.377 263.124 129.102C262.931 131.822 262.781 134.561 262.323 137.241L262.504 137.283C263.088 134.593 263.358 131.868 263.674 129.149C263.962 126.427 264.225 123.701 264.405 120.968C264.586 118.235 264.723 115.498 264.774 112.751C264.8 111.377 264.789 109.998 264.741 108.613C264.765 107.136 264.431 105.674 263.768 104.353C262.962 103.094 261.838 102.068 260.511 101.38C259.287 100.669 258.062 100.084 256.917 99.4109C255.791 98.7496 254.739 97.9706 253.778 97.0869C252.854 96.1816 252.057 95.1563 251.407 94.0385C250.064 91.7855 249.172 89.2924 248.782 86.6986C248.588 85.4204 248.546 84.1236 248.659 82.8356C248.758 81.5881 249.051 80.3636 249.525 79.2056L247.987 79.4283C250.759 82.0906 254.159 84.0083 257.871 85.003C258.787 85.2582 259.72 85.4534 260.662 85.5875C261.143 85.6395 261.584 85.7298 262.099 85.7486L262.872 85.7719C263.13 85.7566 263.389 85.7267 263.648 85.7024C265.687 85.4003 267.558 84.4037 268.947 82.881C271.652 79.992 273.094 76.4529 274.342 72.9832C275.556 69.4842 276.427 65.9022 277.329 62.3876C277.558 61.5121 277.788 60.6404 278.065 59.8141C278.347 58.9716 278.666 58.1322 278.999 57.2976C279.666 55.6281 280.402 53.979 281.205 52.3667C281.998 50.7539 282.876 49.184 283.834 47.6636C284.755 46.1559 285.849 44.7612 287.094 43.5082C287.672 42.9209 288.36 42.4539 289.118 42.1342C289.457 42.0112 289.817 41.9606 290.176 41.9856C290.513 42.0308 290.832 42.1677 291.097 42.3815C291.646 42.9371 291.987 43.665 292.062 44.4426C292.192 45.305 292.227 46.1791 292.167 47.0491C291.829 50.6484 291.053 54.193 289.856 57.6042L289.88 57.5424L289.871 57.561L290.605 57.7354C290.606 57.7825 290.597 57.8292 290.58 57.8728C290.562 57.9164 290.535 57.9558 290.501 57.9885L290.538 57.9465C291.013 57.2559 291.67 56.7097 292.436 56.3678C293.206 56.0298 294.046 55.8865 294.884 55.9505L294.921 55.954L294.943 55.9533C295.949 55.8662 296.96 56.0461 297.875 56.4749C298.299 56.717 298.663 57.0519 298.939 57.4547C299.216 57.8574 299.397 58.3175 299.47 58.8004C299.631 59.8203 299.624 60.8596 299.448 61.877C299.288 62.9211 299.073 63.956 298.804 64.9774C298.52 66.0147 298.301 67.0688 298.148 68.1334C298.071 68.6708 298.022 69.212 298.002 69.7546C297.947 70.3431 298.038 70.936 298.269 71.4804C298.364 71.6386 298.496 71.7709 298.655 71.8654C298.813 71.9599 298.993 72.0137 299.177 72.0221C299.362 72.0304 299.545 71.9929 299.712 71.9131C299.878 71.8333 300.022 71.7135 300.131 71.5645C300.45 71.1108 300.73 70.6309 300.968 70.1299C301.428 69.1839 301.942 68.2656 302.509 67.3795L302.215 67.5378L302.224 67.5378L302.415 67.539L302.52 67.376C303.292 66.0018 304.559 64.9732 306.062 64.4994C306.368 64.3673 306.711 64.3478 307.03 64.4443C307.349 64.5407 307.623 64.747 307.805 65.0266C308.189 65.6798 308.429 66.4083 308.506 67.1624C308.616 67.9582 308.62 68.7593 308.666 69.562C308.674 70.3771 308.644 71.1852 308.588 71.9991C308.474 73.6244 308.279 75.243 308.003 76.8488L307.718 78.5039L309.025 77.4227C310.224 76.3267 311.631 75.4824 313.163 74.9397C313.815 74.7207 314.526 74.7558 315.154 75.038C315.741 75.392 316.187 75.9378 316.417 76.5831C316.689 77.2618 316.783 77.9988 316.69 78.724C316.647 79.0922 316.561 79.4541 316.435 79.8028L316.01 81.0187L314.309 85.8822C313.163 89.1203 312.059 92.3731 310.965 95.629C310.41 97.2613 309.881 98.8906 309.279 100.446C308.659 102.013 307.94 103.548 307.172 105.061C305.626 108.087 303.833 110.991 302.033 113.91C301.144 115.388 300.209 116.801 299.409 118.424C299.305 118.647 299.215 118.876 299.14 119.109C299.105 119.255 299.074 119.402 299.048 119.549C299.027 119.683 299.029 119.77 299.019 119.883L298.928 121.165L298.747 123.729C298.249 130.568 297.829 137.413 297.439 144.27L297.624 144.286Z" fill="url(#paint12_linear_0_1)"/>
<path d="M286.427 67.742L290.65 57.901L289.781 57.572L286.427 67.742Z" fill="url(#paint13_linear_0_1)"/>
<path d="M148.83 34.1235C152.255 35.575 155.826 36.7954 159.401 37.9151C162.995 39.0233 166.648 39.9316 170.342 40.6358C174.057 41.3962 177.839 41.7731 181.631 41.7605C183.555 41.743 185.473 41.5462 187.36 41.1727C189.304 40.8022 191.165 40.0819 192.852 39.0467L192.77 39.0938C195.607 37.6784 198.459 36.293 201.28 34.8462L202.221 34.3635L201.654 33.5483C201.586 33.4389 201.501 33.3411 201.402 33.2587C201.354 33.2139 201.303 33.1729 201.249 33.1361C201.163 33.0773 201.063 33.0004 200.987 32.9606C200.831 32.8746 200.663 32.7683 200.514 32.7046C200.207 32.5531 199.905 32.4233 199.606 32.3099C199.006 32.0762 198.411 31.869 197.814 31.6918C196.622 31.3138 195.422 31.028 194.224 30.7475C191.826 30.1944 189.42 29.7266 187.005 29.3441C184.593 28.9386 182.177 28.5827 179.758 28.2544C177.341 27.912 174.918 27.6267 172.498 27.3236L172.826 27.504L167.876 21.8394C166.224 19.9487 164.631 18.0293 162.923 16.1596C159.472 12.4603 155.474 9.31236 151.068 6.82576C148.858 5.59647 146.561 4.52941 144.195 3.63301C141.82 2.76105 139.39 2.04791 136.92 1.4983C131.971 0.239677 126.844 -0.166741 121.758 0.29649C116.611 0.932651 111.704 2.84527 107.483 5.86049C103.286 8.92015 99.8657 12.9239 97.5001 17.5487C96.3288 19.8592 95.4156 22.2918 94.7769 24.8023L94.3627 26.7C94.2476 27.3285 94.1367 27.9524 94.041 28.5825C93.8405 29.8393 93.6775 31.1032 93.5521 32.3741C93.2799 34.9253 93.2176 37.4946 93.366 40.056C93.5042 42.6565 93.9784 45.2283 94.7768 47.7071L95.0978 48.671L96.068 48.3794L109.178 44.4384L122.324 40.6114C126.706 39.3359 131.098 38.0982 135.51 36.9427C137.712 36.348 139.922 35.7872 142.139 35.2604C143.252 35.0296 144.359 34.7318 145.48 34.5554L147.159 34.2545L148.83 34.1235ZM148.875 33.9226L147.125 33.9408L145.415 34.1362C144.27 34.2569 143.153 34.4966 142.019 34.6714C139.768 35.0846 137.521 35.5268 135.288 36.0202C130.821 37.0113 126.376 38.0845 121.942 39.1954C117.506 40.3034 113.095 41.5024 108.682 42.6933C104.273 43.8991 99.8627 45.0903 95.4715 46.3732L96.7624 47.0453C95.2893 42.4761 95.2997 37.4668 95.7431 32.5898C95.8608 31.3649 96.0165 30.1424 96.2104 28.9223C96.3018 28.3128 96.4095 27.702 96.5192 27.0976L96.9045 25.3207C97.4764 22.9618 98.3034 20.6722 99.371 18.4924C101.537 14.1215 104.699 10.3207 108.604 7.39622C112.543 4.49474 117.131 2.60012 121.97 1.87733C126.881 1.29702 131.855 1.53556 136.689 2.5832C141.593 3.45745 146.327 5.10517 150.715 7.46479C155.102 9.84278 159.064 12.9313 162.441 16.6049C165.725 20.3534 168.855 24.3032 172.027 28.178L172.148 28.3247L172.356 28.3587C174.757 28.7499 177.161 29.1263 179.555 29.5532C181.951 29.9662 184.342 30.4065 186.719 30.8942C189.097 31.3763 191.466 31.8921 193.806 32.4712C194.974 32.7637 196.136 33.0826 197.267 33.4375C197.837 33.6083 198.393 33.8061 198.926 34.0157C199.197 34.1195 199.452 34.2312 199.692 34.3508C199.823 34.4072 199.91 34.4713 200.022 34.5293C200.062 34.5533 200.101 34.5795 200.139 34.6078C200.161 34.6213 200.177 34.6335 200.165 34.626C200.152 34.604 200.2 34.6799 200.074 34.4977L200.448 33.2001C197.609 34.6107 194.801 36.0827 191.978 37.5247L191.933 37.5477L191.896 37.572C188.965 39.4811 185.219 40.0312 181.594 40.1613C179.754 40.2063 177.913 40.1519 176.079 39.9983C174.236 39.8655 172.395 39.6429 170.561 39.3569C166.888 38.8074 163.254 37.9738 159.636 37.0775C156.012 36.1675 152.45 35.1097 148.875 33.9226Z" fill="url(#paint14_linear_0_1)"/>
<path d="M126.185 5.83305C127.945 7.90039 129.747 9.90983 131.558 11.9084L136.987 17.8947C138.796 19.8866 140.59 21.8909 142.37 23.9076C144.138 25.9367 145.886 27.9778 147.622 30.0666C146.333 27.6741 144.855 25.3883 143.202 23.2311C141.576 21.0553 139.809 18.9952 138.004 16.9728C136.176 14.9718 134.289 13.0261 132.323 11.1627C130.371 9.28095 128.322 7.50198 126.185 5.83305Z" fill="url(#paint15_linear_0_1)"/>
<path d="M116.789 6.82217C115.334 9.46293 114.047 12.1931 112.936 14.9962C111.806 17.7918 110.82 20.6418 109.976 23.5463C109.14 26.4526 108.487 29.4088 108.023 32.3973C107.562 35.3886 107.433 38.4219 107.64 41.4416C107.965 38.4678 108.445 35.513 109.078 32.5891C109.72 29.6779 110.475 26.7937 111.296 23.9257C112.106 21.0537 113.024 18.2106 113.939 15.3618C114.882 12.5222 115.811 9.67138 116.789 6.82217Z" fill="url(#paint16_linear_0_1)"/>
<path d="M172.427 27.8411C170.803 27.8635 169.182 27.9771 167.571 28.1812C165.965 28.3619 164.373 28.6216 162.784 28.8967C161.199 29.1969 159.618 29.5142 158.05 29.9102C156.47 30.2858 154.913 30.7509 153.386 31.303C155.01 31.2823 156.631 31.1694 158.242 30.9649C159.848 30.7839 161.44 30.5241 163.029 30.2475C164.613 29.9455 166.195 29.6282 167.762 29.2319C169.342 28.8559 170.899 28.3916 172.427 27.8411Z" fill="url(#paint17_linear_0_1)"/>
<path d="M172.428 40.313C172.402 41.692 172.475 43.0686 172.573 44.4474C172.661 45.839 172.86 47.2214 173.166 48.5817C173.318 49.3166 173.595 50.0199 173.985 50.6607C174.337 51.1852 174.679 51.7983 175.019 52.3819C175.706 53.561 176.369 54.7607 177.03 55.9595C178.368 58.3498 179.683 60.752 180.976 63.166C181.611 64.3775 182.268 65.5777 182.875 66.7963C183.181 67.4044 183.471 68.0181 183.754 68.6274C183.893 68.9328 184.025 69.2392 184.139 69.5412C184.19 69.6892 184.251 69.8449 184.281 69.9771C184.3 70.0328 184.313 70.0905 184.319 70.1492C184.321 70.1602 184.331 70.2155 184.33 70.1912C184.33 70.1681 184.336 70.1454 184.347 70.1252C184.359 70.105 184.375 70.088 184.394 70.0759L184.647 69.8988C184.178 70.0102 183.696 70.0556 183.214 70.0337C182.7 70.0133 182.189 69.9445 181.687 69.8281C181.177 69.7084 180.674 69.5572 180.182 69.3753C179.686 69.1859 179.2 68.9695 178.727 68.727L178.657 68.6921L178.611 68.7012C178.129 68.7925 177.676 69.002 177.295 69.3109C176.93 69.6181 176.669 70.0308 176.549 70.4922C176.729 70.0746 177.035 69.7232 177.423 69.4859C177.792 69.2527 178.213 69.1128 178.648 69.0784L178.533 69.0526C179.444 69.6847 180.44 70.1856 181.491 70.5406C182.031 70.7147 182.585 70.8375 183.148 70.9072C183.743 70.9896 184.348 70.9696 184.936 70.8481L185.105 70.8106L185.189 70.6709C185.254 70.5588 185.3 70.436 185.324 70.3081C185.332 70.2371 185.332 70.1655 185.326 70.0944C185.323 69.9815 185.308 69.8692 185.281 69.7595C185.244 69.5726 185.196 69.3879 185.139 69.206C185.032 68.8581 184.912 68.5255 184.786 68.197C184.536 67.5408 184.253 66.9058 183.967 66.2747C183.39 65.0151 182.793 63.7705 182.154 62.5483C180.899 60.0931 179.557 57.6888 178.174 55.3066C177.471 54.1212 176.757 52.9442 176.019 51.7744C175.643 51.1872 175.275 50.6225 174.828 50.0293C174.482 49.5069 174.221 48.9332 174.054 48.3295C173.32 45.7 172.776 43.0208 172.428 40.313Z" fill="url(#paint18_linear_0_1)"/>
<path d="M168.965 73.9178C172.921 67.8182 178.629 70.4921 178.629 70.4921C178.629 70.4921 180.834 100.789 167.316 101.613C157.029 102.241 148.177 95.9934 141.953 89.266C138.729 85.7643 136.689 81.3369 136.121 76.6111C135.277 69.7106 134.008 59.2857 133.686 56.2784C133.192 51.6625 131.321 39.5764 124.619 40.313C124.619 40.313 110.607 40.4524 117.86 64.686C117.86 64.686 119.838 79.8525 106.98 78.0391C106.98 78.0391 109.618 70.4558 106.156 64.686C102.694 58.9161 98.1423 51.6215 98.3573 46.614C98.3573 46.614 143.742 33.1988 148.853 34.0231C145.707 35.6835 143.177 38.3089 141.634 41.5135C140.091 44.7181 139.617 48.3331 140.28 51.8273C141.788 61.6269 149.04 74.7777 152.406 80.4801C152.939 81.3897 153.709 82.1377 154.634 82.6446C155.559 83.1514 156.604 83.3982 157.658 83.3586C159.607 83.2803 161.843 82.9949 162.907 82.1605C165.008 80.5119 168.965 73.9178 168.965 73.9178Z" fill="url(#paint19_linear_0_1)"/>
<path d="M169.45 44.8546C168.487 44.1127 167.384 43.5718 166.207 43.2642C165.01 42.9275 163.76 42.8231 162.523 42.9569C161.259 43.108 160.057 43.5872 159.036 44.3467C158.043 45.0881 157.281 46.0959 156.838 47.2531C157.671 46.4701 158.603 45.7978 159.608 45.2529C160.573 44.7605 161.618 44.4443 162.694 44.3192C163.795 44.1971 164.906 44.1951 166.008 44.3133C167.134 44.431 168.272 44.6158 169.45 44.8546Z" fill="url(#paint20_linear_0_1)"/>
<path d="M130.554 61.7186C128.344 62.5852 125.786 62.4874 124.15 61.0366C123.324 60.305 122.665 59.405 122.217 58.3972C121.734 57.3612 121.348 56.2831 121.062 55.1765C120.425 52.945 120.048 50.6472 119.939 48.329C119.889 47.1655 119.918 45.9999 120.027 44.8403C120.081 44.2574 120.166 43.6776 120.28 43.1033C120.331 42.8129 120.405 42.5302 120.482 42.2453C120.542 41.9571 120.66 41.6838 120.827 41.4416C120.413 41.8859 120.102 42.4158 119.915 42.9937C119.694 43.5584 119.51 44.1365 119.362 44.7246C119.082 45.907 118.916 47.1138 118.867 48.3281C118.779 50.7647 119.073 53.2001 119.74 55.5455C120.401 57.8239 121.361 60.3458 123.504 61.8873C124.558 62.6418 125.841 63.0065 127.134 62.9189C128.362 62.8376 129.544 62.4226 130.554 61.7186Z" fill="url(#paint21_linear_0_1)"/>
<path d="M146.547 93.6655C145.739 94.159 144.991 94.7462 144.321 95.4148C143.646 96.0648 143.025 96.7674 142.462 97.516C141.891 98.2717 141.399 99.084 140.993 99.94C140.52 100.802 140.329 101.791 140.446 102.767C140.842 101.952 141.335 101.187 141.913 100.49C142.457 99.7736 143.027 99.0701 143.562 98.3381C144.106 97.6114 144.635 96.8673 145.142 96.098C145.669 95.3227 146.139 94.5096 146.547 93.6655Z" fill="url(#paint22_linear_0_1)"/>
<path d="M106.98 78.0391C106.107 79.3903 105.311 80.7901 104.597 82.2318C104.236 82.9212 103.879 83.6017 103.477 84.2501C103.08 84.9329 102.595 85.5605 102.035 86.117C102.907 85.9954 103.71 85.5753 104.307 84.9283C104.918 84.3292 105.426 83.6342 105.812 82.8708C106.2 82.1295 106.499 81.3449 106.702 80.5332C106.924 79.7214 107.018 78.8799 106.98 78.0391Z" fill="url(#paint23_linear_0_1)"/>
<path d="M86.8644 74.5728C86.8644 74.5728 102.764 75.7344 105.45 82.0814L104.967 82.992L103.192 82.0814C94.661 77.8346 89.838 83.4753 95.7668 84.4696C101.705 85.4546 137.064 101.652 137.064 101.652C152.397 105.992 161.383 129.307 161.383 129.307C158.911 128.248 156.393 127.3 153.893 126.287C151.328 125.46 148.782 124.568 146.189 123.834C140.984 122.364 135.675 121.286 130.308 120.609C124.932 119.917 119.501 119.749 114.092 120.107C112.745 120.256 111.397 120.34 110.05 120.535C108.721 120.767 107.374 120.925 106.054 121.241C103.4 121.763 100.815 122.589 98.3502 123.704C100.913 122.937 103.542 122.412 106.203 122.133C107.522 121.929 108.86 121.864 110.18 121.743C111.509 121.659 112.838 121.613 114.166 121.548C119.487 121.467 124.807 121.768 130.085 122.449L134.044 122.96L137.984 123.657L139.954 123.983L141.905 124.41C143.216 124.698 144.517 124.977 145.827 125.246C148.429 125.85 151.012 126.538 153.624 127.161C156.207 127.867 158.772 128.647 161.383 129.307C201.602 135.905 240.846 160.633 243.475 159.973C246.115 159.314 248.428 138.544 248.428 133.201C248.428 127.867 249.413 117.766 257.331 117.766C265.239 117.766 264.254 124.689 264.254 124.689C249.414 128.648 283.704 131.621 293.926 132.931C304.148 134.251 298.544 130.302 298.544 130.302C298.544 130.302 301.509 127.133 304.687 131.073C305.679 132.344 306.347 133.836 306.635 135.423C306.924 137.009 306.823 138.641 306.341 140.18C305.328 143.562 303.832 148.692 302.828 152.716C301.174 159.314 295.245 206.79 293.266 211.409C291.287 216.018 250.408 228.22 163.362 221.956C156.309 220.85 149.284 219.68 142.259 218.509C135.243 217.31 128.226 216.083 121.266 214.661C117.781 213.964 114.297 213.24 110.849 212.413C107.383 211.623 103.944 210.746 100.534 209.783C97.1217 208.824 93.7597 207.695 90.4606 206.4C87.12 205.198 84.0088 203.435 81.2608 201.187C82.4716 202.512 83.8601 203.663 85.3868 204.607C86.8969 205.582 88.4674 206.46 90.0889 207.236C93.3439 208.752 96.6895 210.065 100.107 211.167C106.929 213.335 113.869 215.11 120.894 216.483C127.91 217.877 134.961 219.029 142.045 219.94C149.126 220.878 156.235 221.566 163.362 221.956C163.362 221.956 166.531 241.22 168.185 258.551H44.2012C44.3313 241.629 44.3592 219.206 43.8388 199.04C42.8538 160.141 43.8388 141.834 43.8388 141.834C45.6214 141.637 47.3821 141.276 49.0985 140.756C50.8177 140.264 52.4997 139.678 54.1817 139.074C57.5364 137.866 60.8074 136.454 64.0599 135.004C67.2938 133.526 70.4904 131.984 73.6407 130.32C76.791 128.675 79.904 126.938 82.9149 125.023C79.5602 126.25 76.2799 127.616 73.0181 129.019C69.7563 130.404 66.5318 131.872 63.2885 133.313L53.6334 137.736C50.3902 139.167 47.2214 140.71 43.8388 141.834C43.8388 141.834 27.5207 149.259 26.0338 130.46C24.5563 111.67 42.3613 71.1159 86.8644 74.5728ZM80.0155 135.626C78.3756 137.175 76.9448 138.93 75.7595 140.849C75.1741 141.806 74.6722 142.819 74.1426 143.823C73.6872 144.854 73.3155 145.913 72.888 146.964C72.6863 147.49 72.5247 148.03 72.4049 148.58L71.9774 150.216C71.6891 151.303 71.4779 152.408 71.3455 153.524L71.1225 155.197L71.0109 156.033L70.9737 156.87L70.8622 160.224L70.8344 161.061L70.8902 161.897L71.0109 163.57C71.0852 164.685 71.1596 165.791 71.2804 166.897C71.6521 169.09 72.0052 171.283 72.4792 173.448C73.0832 175.585 73.6687 177.713 74.3377 179.813C74.0683 177.611 73.7244 175.446 73.3806 173.281C73.1204 171.106 72.9717 168.922 72.7208 166.757L72.6372 163.495L72.5907 161.869L72.5628 161.061L72.6186 160.252L72.7858 157.009L72.823 156.201L72.9438 155.401L73.1854 153.803C73.7305 149.531 75.0234 145.388 77.0047 141.564C78.0308 139.669 79.2583 137.89 80.6661 136.258C82.0706 134.588 83.7146 133.135 85.5448 131.946C83.4923 132.825 81.6182 134.072 80.0155 135.626ZM56.5885 97.9906C57.2537 99.3903 58.3927 100.509 59.8038 101.15C60.5022 101.469 61.235 101.706 61.9876 101.856C62.7393 101.963 63.4963 102.028 64.2551 102.052C65.0078 102.014 65.7698 102.014 66.5132 101.921L68.7249 101.559C69.459 101.41 70.1653 101.197 70.8901 101.011L72.981 100.444C74.3441 100.088 75.733 99.8395 77.1348 99.7004C79.975 99.4356 82.8331 99.4263 85.6749 99.6726C91.4178 100.191 97.1086 101.179 102.69 102.628C105.496 103.334 108.303 104.096 111.081 104.923C113.878 105.713 116.629 106.624 119.398 107.544C114.134 105.007 108.674 102.897 103.071 101.234C97.4559 99.5011 91.6755 98.3582 85.8236 97.8233C82.8616 97.5881 79.8842 97.6316 76.9304 97.9534C75.4435 98.1446 73.9737 98.4522 72.5349 98.8734L68.3996 100.146L66.3273 100.592C65.6303 100.713 64.9334 100.741 64.2365 100.834C63.5395 100.881 62.8425 100.825 62.1549 100.806C61.4731 100.715 60.8032 100.55 60.1569 100.314C58.8422 99.8616 57.7318 98.9555 57.0253 97.7582C56.6602 97.1505 56.3847 96.4932 56.2075 95.8067C55.9984 95.113 55.8858 94.3938 55.8729 93.6694C55.7113 95.1481 55.9588 96.6429 56.5885 97.9906H56.5885Z" fill="url(#paint24_linear_0_1)"/>
<path d="M220.399 258.554C202.101 258.023 183.802 257.667 165.503 257.486C156.354 257.36 147.204 257.332 138.055 257.257L110.607 257.181L83.1585 257.253C74.0091 257.33 64.8597 257.354 55.7103 257.482C37.4114 257.662 19.1126 258.019 0.813904 258.554C19.1127 259.088 37.4115 259.446 55.7103 259.626C64.8597 259.754 74.0091 259.778 83.1585 259.855L110.607 259.927L138.055 259.851C147.204 259.777 156.354 259.749 165.503 259.622C183.802 259.441 202.101 259.085 220.399 258.554Z" fill="url(#paint25_linear_0_1)"/>
<path d="M166.369 54.806C162.781 54.806 162.775 49.2303 166.369 49.2303C169.956 49.2303 169.962 54.806 166.369 54.806Z" fill="url(#paint26_linear_0_1)"/>
<defs>
<linearGradient id="paint0_linear_0_1" x1="317.577" y1="58.1857" x2="341.149" y2="104.387" gradientUnits="userSpaceOnUse">
<stop stop-color="#9DE8EE"/>
<stop offset="0.0001" stop-color="#9DE8EE"/>
<stop offset="0.490049" stop-color="#FA7C0B"/>
<stop offset="1" stop-color="#9F8CED"/>
</linearGradient>
<linearGradient id="paint1_linear_0_1" x1="256.823" y1="63.7997" x2="264.586" y2="78.4871" gradientUnits="userSpaceOnUse">
<stop stop-color="#9DE8EE"/>
<stop offset="0.0001" stop-color="#9DE8EE"/>
<stop offset="0.490049" stop-color="#FA7C0B"/>
<stop offset="1" stop-color="#9F8CED"/>
</linearGradient>
<linearGradient id="paint2_linear_0_1" x1="321.871" y1="67.1387" x2="323.913" y2="75.296" gradientUnits="userSpaceOnUse">
<stop stop-color="#9DE8EE"/>
<stop offset="0.0001" stop-color="#9DE8EE"/>
<stop offset="0.490049" stop-color="#FA7C0B"/>
<stop offset="1" stop-color="#9F8CED"/>
</linearGradient>
<linearGradient id="paint3_linear_0_1" x1="361.666" y1="55.8849" x2="369.798" y2="58.2144" gradientUnits="userSpaceOnUse">
<stop stop-color="#9DE8EE"/>
<stop offset="0.0001" stop-color="#9DE8EE"/>
<stop offset="0.490049" stop-color="#FA7C0B"/>
<stop offset="1" stop-color="#9F8CED"/>
</linearGradient>
<linearGradient id="paint4_linear_0_1" x1="311.118" y1="68.408" x2="312.352" y2="71.5292" gradientUnits="userSpaceOnUse">
<stop stop-color="#9DE8EE"/>
<stop offset="0.0001" stop-color="#9DE8EE"/>
<stop offset="0.490049" stop-color="#FA7C0B"/>
<stop offset="1" stop-color="#9F8CED"/>
</linearGradient>
<linearGradient id="paint5_linear_0_1" x1="300.138" y1="64.9319" x2="301.246" y2="67.2003" gradientUnits="userSpaceOnUse">
<stop stop-color="#9DE8EE"/>
<stop offset="0.0001" stop-color="#9DE8EE"/>
<stop offset="0.490049" stop-color="#FA7C0B"/>
<stop offset="1" stop-color="#9F8CED"/>
</linearGradient>
<linearGradient id="paint6_linear_0_1" x1="307.052" y1="60.2778" x2="309.498" y2="68.8932" gradientUnits="userSpaceOnUse">
<stop stop-color="#9DE8EE"/>
<stop offset="0.0001" stop-color="#9DE8EE"/>
<stop offset="0.490049" stop-color="#FA7C0B"/>
<stop offset="1" stop-color="#9F8CED"/>
</linearGradient>
<linearGradient id="paint7_linear_0_1" x1="291.117" y1="55.8455" x2="291.602" y2="56.7784" gradientUnits="userSpaceOnUse">
<stop stop-color="#9DE8EE"/>
<stop offset="0.0001" stop-color="#9DE8EE"/>
<stop offset="0.490049" stop-color="#FA7C0B"/>
<stop offset="1" stop-color="#9F8CED"/>
</linearGradient>
<linearGradient id="paint8_linear_0_1" x1="379.079" y1="57.5394" x2="392.58" y2="64.9305" gradientUnits="userSpaceOnUse">
<stop stop-color="#9DE8EE"/>
<stop offset="0.0001" stop-color="#9DE8EE"/>
<stop offset="0.490049" stop-color="#FA7C0B"/>
<stop offset="1" stop-color="#9F8CED"/>
</linearGradient>
<linearGradient id="paint9_linear_0_1" x1="334.348" y1="78.7766" x2="350.088" y2="91.0115" gradientUnits="userSpaceOnUse">
<stop stop-color="#9DE8EE"/>
<stop offset="0.0001" stop-color="#9DE8EE"/>
<stop offset="0.490049" stop-color="#FA7C0B"/>
<stop offset="1" stop-color="#9F8CED"/>
</linearGradient>
<linearGradient id="paint10_linear_0_1" x1="273.378" y1="97.9282" x2="309.879" y2="149.54" gradientUnits="userSpaceOnUse">
<stop stop-color="#9DE8EE"/>
<stop offset="0.0001" stop-color="#9DE8EE"/>
<stop offset="0.490049" stop-color="#FA7C0B"/>
<stop offset="1" stop-color="#9F8CED"/>
</linearGradient>
<linearGradient id="paint11_linear_0_1" x1="317.035" y1="50.414" x2="317.302" y2="55.036" gradientUnits="userSpaceOnUse">
<stop stop-color="#9DE8EE"/>
<stop offset="0.0001" stop-color="#9DE8EE"/>
<stop offset="0.490049" stop-color="#FA7C0B"/>
<stop offset="1" stop-color="#9F8CED"/>
</linearGradient>
<linearGradient id="paint12_linear_0_1" x1="266.963" y1="64.0722" x2="316.648" y2="108.321" gradientUnits="userSpaceOnUse">
<stop stop-color="#9DE8EE"/>
<stop offset="0.0001" stop-color="#9DE8EE"/>
<stop offset="0.490049" stop-color="#FA7C0B"/>
<stop offset="1" stop-color="#9F8CED"/>
</linearGradient>
<linearGradient id="paint13_linear_0_1" x1="287.622" y1="59.864" x2="291.709" y2="62.0516" gradientUnits="userSpaceOnUse">
<stop stop-color="#9DE8EE"/>
<stop offset="0.0001" stop-color="#9DE8EE"/>
<stop offset="0.490049" stop-color="#FA7C0B"/>
<stop offset="1" stop-color="#9F8CED"/>
</linearGradient>
<linearGradient id="paint14_linear_0_1" x1="124.095" y1="11.055" x2="138.587" y2="52.9558" gradientUnits="userSpaceOnUse">
<stop stop-color="#9DE8EE"/>
<stop offset="0.0001" stop-color="#9DE8EE"/>
<stop offset="0.490049" stop-color="#FA7C0B"/>
<stop offset="1" stop-color="#9F8CED"/>
</linearGradient>
<linearGradient id="paint15_linear_0_1" x1="132.248" y1="11.2946" x2="143.854" y2="24.5269" gradientUnits="userSpaceOnUse">
<stop stop-color="#9DE8EE"/>
<stop offset="0.0001" stop-color="#9DE8EE"/>
<stop offset="0.490049" stop-color="#FA7C0B"/>
<stop offset="1" stop-color="#9F8CED"/>
</linearGradient>
<linearGradient id="paint16_linear_0_1" x1="110.159" y1="14.6243" x2="120.451" y2="18.1669" gradientUnits="userSpaceOnUse">
<stop stop-color="#9DE8EE"/>
<stop offset="0.0001" stop-color="#9DE8EE"/>
<stop offset="0.490049" stop-color="#FA7C0B"/>
<stop offset="1" stop-color="#9F8CED"/>
</linearGradient>
<linearGradient id="paint17_linear_0_1" x1="158.771" y1="28.6213" x2="159.234" y2="31.9005" gradientUnits="userSpaceOnUse">
<stop stop-color="#9DE8EE"/>
<stop offset="0.0001" stop-color="#9DE8EE"/>
<stop offset="0.490049" stop-color="#FA7C0B"/>
<stop offset="1" stop-color="#9F8CED"/>
</linearGradient>
<linearGradient id="paint18_linear_0_1" x1="176.073" y1="47.2192" x2="188.486" y2="53.9585" gradientUnits="userSpaceOnUse">
<stop stop-color="#9DE8EE"/>
<stop offset="0.0001" stop-color="#9DE8EE"/>
<stop offset="0.490049" stop-color="#FA7C0B"/>
<stop offset="1" stop-color="#9F8CED"/>
</linearGradient>
<linearGradient id="paint19_linear_0_1" x1="121.091" y1="49.2375" x2="151.018" y2="95.0728" gradientUnits="userSpaceOnUse">
<stop stop-color="#9DE8EE"/>
<stop offset="0.0001" stop-color="#9DE8EE"/>
<stop offset="0.490049" stop-color="#FA7C0B"/>
<stop offset="1" stop-color="#9F8CED"/>
</linearGradient>
<linearGradient id="paint20_linear_0_1" x1="160.405" y1="43.8814" x2="161.455" y2="47.8051" gradientUnits="userSpaceOnUse">
<stop stop-color="#9DE8EE"/>
<stop offset="0.0001" stop-color="#9DE8EE"/>
<stop offset="0.490049" stop-color="#FA7C0B"/>
<stop offset="1" stop-color="#9F8CED"/>
</linearGradient>
<linearGradient id="paint21_linear_0_1" x1="122.161" y1="46.2848" x2="131.924" y2="53.1361" gradientUnits="userSpaceOnUse">
<stop stop-color="#9DE8EE"/>
<stop offset="0.0001" stop-color="#9DE8EE"/>
<stop offset="0.490049" stop-color="#FA7C0B"/>
<stop offset="1" stop-color="#9F8CED"/>
</linearGradient>
<linearGradient id="paint22_linear_0_1" x1="142.147" y1="95.7168" x2="146.501" y2="99.4984" gradientUnits="userSpaceOnUse">
<stop stop-color="#9DE8EE"/>
<stop offset="0.0001" stop-color="#9DE8EE"/>
<stop offset="0.490049" stop-color="#FA7C0B"/>
<stop offset="1" stop-color="#9F8CED"/>
</linearGradient>
<linearGradient id="paint23_linear_0_1" x1="103.435" y1="79.8596" x2="107.232" y2="82.8603" gradientUnits="userSpaceOnUse">
<stop stop-color="#9DE8EE"/>
<stop offset="0.0001" stop-color="#9DE8EE"/>
<stop offset="0.490049" stop-color="#FA7C0B"/>
<stop offset="1" stop-color="#9F8CED"/>
</linearGradient>
<linearGradient id="paint24_linear_0_1" x1="105.375" y1="115.875" x2="177.296" y2="257.219" gradientUnits="userSpaceOnUse">
<stop stop-color="#9DE8EE"/>
<stop offset="0.0001" stop-color="#9DE8EE"/>
<stop offset="0.490049" stop-color="#FA7C0B"/>
<stop offset="1" stop-color="#9F8CED"/>
</linearGradient>
<linearGradient id="paint25_linear_0_1" x1="62.9145" y1="257.8" x2="62.9403" y2="260.453" gradientUnits="userSpaceOnUse">
<stop stop-color="#9DE8EE"/>
<stop offset="0.0001" stop-color="#9DE8EE"/>
<stop offset="0.490049" stop-color="#FA7C0B"/>
<stop offset="1" stop-color="#9F8CED"/>
</linearGradient>
<linearGradient id="paint26_linear_0_1" x1="165.199" y1="50.4869" x2="167.829" y2="53.7612" gradientUnits="userSpaceOnUse">
<stop stop-color="#9DE8EE"/>
<stop offset="0.0001" stop-color="#9DE8EE"/>
<stop offset="0.490049" stop-color="#FA7C0B"/>
<stop offset="1" stop-color="#9F8CED"/>
</linearGradient>
</defs>
</svg>
