<svg width="1440" height="164" viewBox="0 0 1440 164" fill="none" xmlns="http://www.w3.org/2000/svg">
<path d="M118.862 44.9471L118.862 26.6393L128.072 31.7248V39.9124L135.44 44.0317L142.808 39.9124V31.7248L152.017 26.6393V44.9471L135.44 54.101L118.862 44.9471Z" fill="white"/>
<path fill-rule="evenodd" clip-rule="evenodd" d="M123.467 29.1822L118.862 26.6394L135.44 17.4855L152.017 26.6394L147.413 29.1822V42.6587L135.44 49.5242L123.467 42.6587L123.467 29.1822ZM146.914 29.4577L142.808 31.7249V31.6741L135.44 27.5548L128.072 31.6741V31.7249L123.966 29.4577V42.3771L135.44 48.9565L146.914 42.3771V29.4577Z" fill="#A1AEBF"/>
<path d="M160.843 43.5003V28.1217H163.76V40.8639H170.834V43.5003H160.843Z" fill="white"/>
<path d="M177.133 43.8079C176.042 43.8079 175.062 43.5882 174.193 43.1487C173.323 42.7094 172.638 42.0723 172.137 41.2375C171.636 40.4026 171.386 39.3993 171.386 38.2277V37.8761C171.386 36.7044 171.636 35.7011 172.137 34.8663C172.638 34.0315 173.323 33.3944 174.193 32.955C175.062 32.5155 176.042 32.2959 177.133 32.2959C178.223 32.2959 179.203 32.5155 180.072 32.955C180.942 33.3944 181.627 34.0315 182.128 34.8663C182.629 35.7011 182.88 36.7044 182.88 37.8761V38.2277C182.88 39.3993 182.629 40.4026 182.128 41.2375C181.627 42.0723 180.942 42.7094 180.072 43.1487C179.203 43.5882 178.223 43.8079 177.133 43.8079ZM177.133 41.3473C177.987 41.3473 178.695 41.0764 179.255 40.5344C179.815 39.9779 180.094 39.1869 180.094 38.1617V37.9421C180.094 36.9168 179.815 36.1332 179.255 35.5913C178.709 35.0348 178.002 34.7565 177.133 34.7565C176.278 34.7565 175.571 35.0348 175.011 35.5913C174.451 36.1332 174.171 36.9168 174.171 37.9421V38.1617C174.171 39.1869 174.451 39.9779 175.011 40.5344C175.571 41.0764 176.278 41.3473 177.133 41.3473Z" fill="white"/>
<path d="M183.926 38.0958V37.7443C183.926 36.6019 184.154 35.6279 184.611 34.8224C185.068 34.0022 185.672 33.3797 186.423 32.955C187.19 32.5155 188.022 32.2959 188.921 32.2959C189.923 32.2959 190.682 32.4717 191.198 32.8232C191.714 33.1747 192.089 33.5409 192.325 33.9217H192.723V32.6034H195.464V45.4336C195.464 46.1805 195.243 46.7737 194.801 47.2132C194.359 47.6672 193.769 47.8942 193.032 47.8942H185.694V45.4776H192.06C192.472 45.4776 192.679 45.2578 192.679 44.8185V41.9844H192.281C192.133 42.2187 191.927 42.4604 191.662 42.7094C191.397 42.9437 191.043 43.1414 190.601 43.3026C190.159 43.4637 189.599 43.5443 188.921 43.5443C188.022 43.5443 187.19 43.3318 186.423 42.9071C185.672 42.4677 185.068 41.8452 184.611 41.0397C184.154 40.2195 183.926 39.2383 183.926 38.0958ZM189.717 41.1276C190.571 41.1276 191.286 40.8566 191.861 40.3147C192.436 39.7729 192.723 39.0112 192.723 38.03V37.8102C192.723 36.8142 192.436 36.0527 191.861 35.5254C191.301 34.9835 190.586 34.7125 189.717 34.7125C188.862 34.7125 188.147 34.9835 187.573 35.5254C186.998 36.0527 186.711 36.8142 186.711 37.8102V38.03C186.711 39.0112 186.998 39.7729 187.573 40.3147C188.147 40.8566 188.862 41.1276 189.717 41.1276Z" fill="white"/>
<path d="M202.773 43.8079C201.683 43.8079 200.703 43.5882 199.833 43.1487C198.964 42.7094 198.279 42.0723 197.778 41.2375C197.277 40.4026 197.026 39.3993 197.026 38.2277V37.8761C197.026 36.7044 197.277 35.7011 197.778 34.8663C198.279 34.0315 198.964 33.3944 199.833 32.955C200.703 32.5155 201.683 32.2959 202.773 32.2959C203.864 32.2959 204.844 32.5155 205.713 32.955C206.582 33.3944 207.268 34.0315 207.769 34.8663C208.27 35.7011 208.52 36.7044 208.52 37.8761V38.2277C208.52 39.3993 208.27 40.4026 207.769 41.2375C207.268 42.0723 206.582 42.7094 205.713 43.1487C204.844 43.5882 203.864 43.8079 202.773 43.8079ZM202.773 41.3473C203.628 41.3473 204.335 41.0764 204.895 40.5344C205.455 39.9779 205.735 39.1869 205.735 38.1617V37.9421C205.735 36.9168 205.455 36.1332 204.895 35.5913C204.35 35.0348 203.643 34.7565 202.773 34.7565C201.919 34.7565 201.211 35.0348 200.651 35.5913C200.091 36.1332 199.811 36.9168 199.811 37.9421V38.1617C199.811 39.1869 200.091 39.9779 200.651 40.5344C201.211 41.0764 201.919 41.3473 202.773 41.3473Z" fill="white"/>
<path d="M210.096 43.5003V32.6034H212.881V43.5003H210.096ZM211.489 31.3292C210.988 31.3292 210.56 31.1681 210.207 30.8459C209.868 30.5236 209.698 30.0989 209.698 29.5717C209.698 29.0444 209.868 28.6197 210.207 28.2974C210.56 27.9753 210.988 27.8141 211.489 27.8141C212.004 27.8141 212.432 27.9753 212.771 28.2974C213.11 28.6197 213.279 29.0444 213.279 29.5717C213.279 30.0989 213.11 30.5236 212.771 30.8459C212.432 31.1681 212.004 31.3292 211.489 31.3292Z" fill="white"/>
<path d="M214.973 47.8942V32.6034H217.714V33.9217H218.112C218.362 33.4969 218.752 33.1234 219.283 32.8012C219.814 32.4643 220.572 32.2959 221.56 32.2959C222.444 32.2959 223.262 32.5155 224.013 32.955C224.765 33.3797 225.369 34.0095 225.825 34.8444C226.282 35.6792 226.511 36.6898 226.511 37.8761V38.2277C226.511 39.414 226.282 40.4246 225.825 41.2594C225.369 42.0943 224.765 42.7314 224.013 43.1708C223.262 43.5955 222.444 43.8079 221.56 43.8079C220.896 43.8079 220.336 43.7273 219.879 43.5662C219.437 43.4197 219.076 43.2293 218.797 42.995C218.531 42.746 218.318 42.497 218.156 42.2481H217.758V47.8942H214.973ZM220.72 41.3912C221.589 41.3912 222.304 41.1202 222.864 40.5783C223.438 40.0218 223.725 39.2162 223.725 38.1617V37.9421C223.725 36.8875 223.438 36.0892 222.864 35.5473C222.289 34.9908 221.574 34.7125 220.72 34.7125C219.865 34.7125 219.15 34.9908 218.575 35.5473C218.001 36.0892 217.714 36.8875 217.714 37.9421V38.1617C217.714 39.2162 218.001 40.0218 218.575 40.5783C219.15 41.1202 219.865 41.3912 220.72 41.3912Z" fill="white"/>
<path d="M232.627 43.8079C231.197 43.8079 230.026 43.5003 229.112 42.8852C228.199 42.27 227.646 41.3912 227.454 40.2488L230.019 39.5898C230.122 40.1023 230.291 40.5052 230.527 40.7981C230.778 41.091 231.08 41.3033 231.434 41.4352C231.801 41.5523 232.199 41.611 232.627 41.611C233.275 41.611 233.754 41.501 234.064 41.2814C234.373 41.047 234.528 40.7614 234.528 40.4246C234.528 40.0877 234.381 39.8314 234.085 39.6556C233.791 39.4652 233.32 39.3115 232.671 39.1943L232.052 39.0844C231.285 38.9379 230.585 38.7402 229.952 38.4913C229.319 38.2277 228.81 37.8688 228.427 37.4148C228.044 36.9607 227.852 36.3748 227.852 35.6572C227.852 34.5734 228.25 33.7459 229.046 33.1747C229.841 32.5888 230.888 32.2959 232.184 32.2959C233.408 32.2959 234.425 32.5669 235.234 33.1088C236.045 33.6507 236.576 34.3611 236.827 35.2398L234.24 36.0307C234.123 35.4742 233.88 35.0786 233.511 34.8444C233.157 34.61 232.715 34.4928 232.184 34.4928C231.654 34.4928 231.249 34.588 230.969 34.7784C230.689 34.9542 230.549 35.2032 230.549 35.5254C230.549 35.8769 230.696 36.1405 230.991 36.3163C231.285 36.4774 231.684 36.6019 232.184 36.6898L232.803 36.7996C233.629 36.9461 234.373 37.1438 235.036 37.3928C235.714 37.6271 236.244 37.9713 236.628 38.4254C237.026 38.8648 237.225 39.4652 237.225 40.2269C237.225 41.3693 236.804 42.2554 235.964 42.8852C235.139 43.5003 234.027 43.8079 232.627 43.8079Z" fill="white"/>
<path d="M242.847 43.676C241.993 43.676 241.241 43.4856 240.593 43.1049C239.959 42.7093 239.465 42.1674 239.111 41.4791C238.759 40.7907 238.581 39.9998 238.581 39.1064V32.6034H241.366V38.8867C241.366 39.7068 241.565 40.322 241.963 40.7321C242.375 41.1422 242.958 41.3472 243.709 41.3472C244.563 41.3472 245.227 41.0689 245.699 40.5124C246.17 39.9412 246.406 39.1503 246.406 38.1397V32.6034H249.191V43.5003H246.45V42.0722H246.053C245.875 42.4384 245.544 42.7972 245.058 43.1487C244.571 43.5003 243.834 43.676 242.847 43.676Z" fill="white"/>
<path d="M251.296 43.5003V32.6034H254.036V33.7898H254.434C254.625 33.4236 254.943 33.1088 255.384 32.8451C255.826 32.5669 256.409 32.4277 257.131 32.4277C257.912 32.4277 258.538 32.5815 259.01 32.889C259.481 33.182 259.842 33.5701 260.093 34.0534H260.49C260.741 33.5848 261.095 33.1967 261.552 32.889C262.009 32.5815 262.657 32.4277 263.497 32.4277C264.174 32.4277 264.786 32.5742 265.331 32.8671C265.891 33.1453 266.333 33.5774 266.658 34.1633C266.996 34.7345 267.165 35.4594 267.165 36.3383V43.5003H264.38V36.536C264.38 35.9355 264.226 35.4888 263.916 35.1959C263.607 34.8883 263.172 34.7345 262.613 34.7345C261.979 34.7345 261.485 34.9396 261.131 35.3496C260.793 35.7451 260.623 36.3163 260.623 37.0633V43.5003H257.838V36.536C257.838 35.9355 257.683 35.4888 257.374 35.1959C257.065 34.8883 256.63 34.7345 256.069 34.7345C255.436 34.7345 254.943 34.9396 254.589 35.3496C254.25 35.7451 254.08 36.3163 254.08 37.0633V43.5003H251.296Z" fill="white"/>
<rect x="94.5" y="0.5" width="197" height="71" rx="9.5" stroke="#A1AEBF"/>
<path d="M352.03 40.1027V48.1194C352.03 48.4268 351.907 48.7215 351.689 48.9387C351.47 49.156 351.173 49.2781 350.864 49.2781C350.555 49.2781 350.259 49.156 350.04 48.9387C349.821 48.7215 349.698 48.4268 349.698 48.1194V40.1137C350.023 40.3494 350.412 40.4809 350.814 40.4907C351.252 40.5032 351.681 40.3662 352.03 40.1027ZM361.959 37.7852C361.663 37.7852 361.379 37.9021 361.17 38.11C360.961 38.3179 360.843 38.6 360.843 38.894V40.2912C360.843 40.5985 360.966 40.8932 361.185 41.1105C361.403 41.3278 361.7 41.4499 362.009 41.4499C362.318 41.4499 362.615 41.3278 362.833 41.1105C363.052 40.8932 363.175 40.5985 363.175 40.2912V38.9495C363.183 38.7905 363.157 38.6315 363.099 38.4833C363.04 38.3352 362.95 38.2013 362.835 38.0908C362.719 37.9804 362.581 37.8959 362.43 37.8431C362.279 37.7904 362.118 37.7707 361.959 37.7852ZM347.166 43.1408C346.765 43.1288 346.376 42.9976 346.051 42.7638V50.8027C346.051 51.1115 346.174 51.4077 346.394 51.626C346.613 51.8443 346.911 51.967 347.222 51.967C347.533 51.967 347.83 51.8443 348.05 51.626C348.27 51.4077 348.393 51.1115 348.393 50.8027V42.8193C348.029 43.0533 347.599 43.166 347.166 43.1408ZM358.322 35.3791C358.171 35.3716 358.02 35.3947 357.878 35.4471C357.736 35.4994 357.606 35.5799 357.497 35.6836C357.387 35.7874 357.3 35.9121 357.24 36.0504C357.181 36.1887 357.15 36.3376 357.15 36.4879V42.664C357.15 42.9728 357.274 43.269 357.494 43.4873C357.713 43.7056 358.011 43.8283 358.322 43.8283C358.633 43.8283 358.931 43.7056 359.15 43.4873C359.37 43.269 359.493 42.9728 359.493 42.664V36.5655C359.502 36.4055 359.476 36.2455 359.417 36.0965C359.357 35.9475 359.266 35.813 359.15 35.7023C359.033 35.5917 358.894 35.5074 358.741 35.4555C358.589 35.4035 358.426 35.385 358.266 35.4013L358.322 35.3791ZM354.618 37.752C354.198 37.7491 353.789 37.6175 353.447 37.375V45.4361C353.447 45.7449 353.57 46.041 353.79 46.2594C354.01 46.4777 354.307 46.6003 354.618 46.6003C354.929 46.6003 355.227 46.4777 355.446 46.2594C355.666 46.041 355.789 45.7449 355.789 45.4361V37.3861C355.436 37.6481 355.004 37.7847 354.562 37.7741L354.618 37.752ZM344.634 43.9281V21.408C344.631 21.1335 344.519 20.8713 344.323 20.6782C344.126 20.4851 343.861 20.3768 343.585 20.3768H343.34C343.063 20.3768 342.798 20.4851 342.602 20.6782C342.406 20.8713 342.294 21.1335 342.291 21.408V43.9281C342.291 44.2045 342.402 44.4696 342.598 44.6651C342.795 44.8606 343.062 44.9704 343.34 44.9704H343.585C343.863 44.9704 344.13 44.8606 344.327 44.6651C344.523 44.4696 344.634 44.2045 344.634 43.9281ZM347.289 42.287H347.043C346.765 42.287 346.499 42.1772 346.302 41.9818C346.105 41.7863 345.995 41.5212 345.995 41.2447V24.0914C345.998 23.8169 346.109 23.5546 346.306 23.3615C346.502 23.1684 346.767 23.0602 347.043 23.0602H347.289C347.565 23.0602 347.83 23.1684 348.026 23.3615C348.223 23.5546 348.335 23.8169 348.337 24.0914V41.2669C348.337 41.5433 348.227 41.8085 348.03 42.0039C347.834 42.1994 347.567 42.3092 347.289 42.3092V42.287ZM350.981 39.648H350.725C350.45 39.648 350.186 39.5394 349.991 39.346C349.797 39.1526 349.687 38.8904 349.687 38.6168V26.7525C349.686 26.6162 349.712 26.4809 349.763 26.3545C349.814 26.2281 349.891 26.1131 349.987 26.0162C350.084 25.9192 350.199 25.8423 350.325 25.7898C350.452 25.7373 350.588 25.7102 350.725 25.7102H350.981C351.258 25.7132 351.521 25.8243 351.716 26.0194C351.91 26.2146 352.019 26.478 352.019 26.7525V38.6168C352.019 38.8904 351.91 39.1526 351.715 39.346C351.52 39.5394 351.257 39.648 350.981 39.648ZM354.674 36.9314H354.44C354.163 36.9314 353.898 36.8232 353.702 36.6301C353.506 36.437 353.394 36.1748 353.391 35.9002V29.5135C353.382 29.3711 353.402 29.2284 353.451 29.0941C353.499 28.9599 353.575 28.837 353.673 28.7331C353.772 28.6291 353.89 28.5464 354.022 28.4898C354.154 28.4334 354.296 28.4043 354.44 28.4047H354.685C354.963 28.4047 355.23 28.5144 355.427 28.7099C355.623 28.9054 355.734 29.1705 355.734 29.4469V35.8781C355.735 36.0159 355.709 36.1526 355.657 36.2803C355.605 36.4081 355.528 36.5243 355.43 36.6223C355.333 36.7202 355.217 36.7979 355.089 36.8511C354.961 36.9042 354.824 36.9314 354.685 36.9314H354.674ZM358.378 34.5475H358.132C357.854 34.5475 357.587 34.4377 357.391 34.2422C357.194 34.0468 357.084 33.7816 357.084 33.5052V31.8531C357.086 31.5785 357.198 31.3163 357.395 31.1232C357.591 30.9301 357.856 30.8219 358.132 30.8219H358.378C358.654 30.8219 358.919 30.9301 359.115 31.1232C359.312 31.3163 359.423 31.5785 359.426 31.8531V33.5052C359.426 33.7797 359.317 34.0432 359.123 34.2384C358.929 34.4335 358.665 34.5446 358.389 34.5475H358.378Z" fill="white"/>
<path d="M393.996 38.592C393.996 39.904 393.7 41.064 393.108 42.072C392.532 43.064 391.748 43.84 390.756 44.4C389.78 44.96 388.684 45.24 387.468 45.24C386.252 45.24 385.148 44.96 384.156 44.4C383.18 43.84 382.396 43.064 381.804 42.072C381.228 41.064 380.94 39.904 380.94 38.592C380.94 37.28 381.228 36.128 381.804 35.136C382.396 34.128 383.18 33.344 384.156 32.784C385.148 32.208 386.252 31.92 387.468 31.92C388.684 31.92 389.78 32.208 390.756 32.784C391.748 33.344 392.532 34.128 393.108 35.136C393.7 36.128 393.996 37.28 393.996 38.592ZM391.116 38.592C391.116 37.776 390.948 37.072 390.612 36.48C390.292 35.872 389.852 35.4 389.292 35.064C388.748 34.728 388.14 34.56 387.468 34.56C386.796 34.56 386.18 34.728 385.62 35.064C385.076 35.4 384.636 35.872 384.3 36.48C383.98 37.072 383.82 37.776 383.82 38.592C383.82 39.392 383.98 40.096 384.3 40.704C384.636 41.296 385.076 41.76 385.62 42.096C386.18 42.432 386.796 42.6 387.468 42.6C388.14 42.6 388.748 42.432 389.292 42.096C389.852 41.76 390.292 41.296 390.612 40.704C390.948 40.096 391.116 39.392 391.116 38.592ZM403.597 27.24C403.949 27.24 404.293 27.288 404.629 27.384C404.965 27.48 405.245 27.64 405.469 27.864C405.693 28.072 405.805 28.352 405.805 28.704C405.805 29.104 405.685 29.424 405.445 29.664C405.221 29.888 404.957 30 404.653 30C404.509 30 404.293 29.968 404.005 29.904C403.717 29.824 403.437 29.784 403.165 29.784C402.765 29.784 402.453 29.872 402.229 30.048C402.021 30.224 401.877 30.432 401.797 30.672C401.717 30.896 401.677 31.096 401.677 31.272V43.536C401.677 43.952 401.541 44.304 401.269 44.592C400.997 44.864 400.653 45 400.237 45C399.821 45 399.477 44.864 399.205 44.592C398.933 44.304 398.797 43.952 398.797 43.536V31.296C398.797 30.16 399.197 29.2 399.997 28.416C400.797 27.632 401.997 27.24 403.597 27.24ZM403.861 32.4C404.245 32.4 404.565 32.528 404.821 32.784C405.077 33.024 405.205 33.336 405.205 33.72C405.205 34.104 405.077 34.424 404.821 34.68C404.565 34.92 404.245 35.04 403.861 35.04H397.501C397.117 35.04 396.797 34.92 396.541 34.68C396.285 34.424 396.157 34.104 396.157 33.72C396.157 33.336 396.285 33.024 396.541 32.784C396.797 32.528 397.117 32.4 397.501 32.4H403.861ZM414.085 27.24C414.437 27.24 414.781 27.288 415.117 27.384C415.453 27.48 415.733 27.64 415.957 27.864C416.181 28.072 416.293 28.352 416.293 28.704C416.293 29.104 416.173 29.424 415.933 29.664C415.709 29.888 415.445 30 415.141 30C414.997 30 414.781 29.968 414.493 29.904C414.205 29.824 413.925 29.784 413.653 29.784C413.253 29.784 412.941 29.872 412.717 30.048C412.509 30.224 412.365 30.432 412.285 30.672C412.205 30.896 412.165 31.096 412.165 31.272V43.536C412.165 43.952 412.029 44.304 411.757 44.592C411.485 44.864 411.141 45 410.725 45C410.309 45 409.965 44.864 409.693 44.592C409.421 44.304 409.285 43.952 409.285 43.536V31.296C409.285 30.16 409.685 29.2 410.485 28.416C411.285 27.632 412.485 27.24 414.085 27.24ZM414.349 32.4C414.733 32.4 415.053 32.528 415.309 32.784C415.565 33.024 415.693 33.336 415.693 33.72C415.693 34.104 415.565 34.424 415.309 34.68C415.053 34.92 414.733 35.04 414.349 35.04H407.989C407.605 35.04 407.285 34.92 407.029 34.68C406.773 34.424 406.645 34.104 406.645 33.72C406.645 33.336 406.773 33.024 407.029 32.784C407.285 32.528 407.605 32.4 407.989 32.4H414.349ZM425.198 31.92C426.478 31.92 427.422 32.232 428.03 32.856C428.638 33.464 429.038 34.256 429.23 35.232L428.822 35.016L429.014 34.632C429.206 34.264 429.502 33.872 429.902 33.456C430.302 33.024 430.782 32.664 431.342 32.376C431.918 32.072 432.558 31.92 433.262 31.92C434.414 31.92 435.286 32.168 435.878 32.664C436.486 33.16 436.902 33.824 437.126 34.656C437.35 35.472 437.462 36.384 437.462 37.392V43.536C437.462 43.952 437.326 44.304 437.054 44.592C436.782 44.864 436.438 45 436.022 45C435.606 45 435.262 44.864 434.99 44.592C434.718 44.304 434.582 43.952 434.582 43.536V37.392C434.582 36.864 434.518 36.392 434.39 35.976C434.262 35.544 434.03 35.2 433.694 34.944C433.358 34.688 432.878 34.56 432.254 34.56C431.646 34.56 431.126 34.688 430.694 34.944C430.262 35.2 429.934 35.544 429.71 35.976C429.502 36.392 429.398 36.864 429.398 37.392V43.536C429.398 43.952 429.262 44.304 428.99 44.592C428.718 44.864 428.374 45 427.958 45C427.542 45 427.198 44.864 426.926 44.592C426.654 44.304 426.518 43.952 426.518 43.536V37.392C426.518 36.864 426.454 36.392 426.326 35.976C426.198 35.544 425.966 35.2 425.63 34.944C425.294 34.688 424.814 34.56 424.19 34.56C423.582 34.56 423.062 34.688 422.63 34.944C422.198 35.2 421.87 35.544 421.646 35.976C421.438 36.392 421.334 36.864 421.334 37.392V43.536C421.334 43.952 421.198 44.304 420.926 44.592C420.654 44.864 420.31 45 419.894 45C419.478 45 419.134 44.864 418.862 44.592C418.59 44.304 418.454 43.952 418.454 43.536V33.624C418.454 33.208 418.59 32.864 418.862 32.592C419.134 32.304 419.478 32.16 419.894 32.16C420.31 32.16 420.654 32.304 420.926 32.592C421.198 32.864 421.334 33.208 421.334 33.624V34.656L420.974 34.584C421.118 34.312 421.318 34.024 421.574 33.72C421.83 33.4 422.142 33.104 422.51 32.832C422.878 32.56 423.286 32.344 423.734 32.184C424.182 32.008 424.67 31.92 425.198 31.92ZM451.571 31.92C451.987 31.92 452.331 32.056 452.603 32.328C452.875 32.6 453.011 32.952 453.011 33.384V43.536C453.011 43.952 452.875 44.304 452.603 44.592C452.331 44.864 451.987 45 451.571 45C451.155 45 450.811 44.864 450.539 44.592C450.267 44.304 450.131 43.952 450.131 43.536V42.36L450.659 42.576C450.659 42.784 450.547 43.04 450.323 43.344C450.099 43.632 449.795 43.92 449.411 44.208C449.027 44.496 448.571 44.744 448.043 44.952C447.531 45.144 446.971 45.24 446.363 45.24C445.259 45.24 444.259 44.96 443.363 44.4C442.467 43.824 441.755 43.04 441.227 42.048C440.715 41.04 440.459 39.888 440.459 38.592C440.459 37.28 440.715 36.128 441.227 35.136C441.755 34.128 442.459 33.344 443.339 32.784C444.219 32.208 445.195 31.92 446.267 31.92C446.955 31.92 447.587 32.024 448.163 32.232C448.739 32.44 449.235 32.704 449.651 33.024C450.083 33.344 450.411 33.672 450.635 34.008C450.875 34.328 450.995 34.6 450.995 34.824L450.131 35.136V33.384C450.131 32.968 450.267 32.624 450.539 32.352C450.811 32.064 451.155 31.92 451.571 31.92ZM446.723 42.6C447.427 42.6 448.043 42.424 448.571 42.072C449.099 41.72 449.507 41.24 449.795 40.632C450.099 40.024 450.251 39.344 450.251 38.592C450.251 37.824 450.099 37.136 449.795 36.528C449.507 35.92 449.099 35.44 448.571 35.088C448.043 34.736 447.427 34.56 446.723 34.56C446.035 34.56 445.427 34.736 444.899 35.088C444.371 35.44 443.955 35.92 443.651 36.528C443.363 37.136 443.219 37.824 443.219 38.592C443.219 39.344 443.363 40.024 443.651 40.632C443.955 41.24 444.371 41.72 444.899 42.072C445.427 42.424 446.035 42.6 446.723 42.6ZM456.873 32.16C457.337 32.16 457.729 32.36 458.049 32.76L466.065 42.72C466.273 42.976 466.377 43.264 466.377 43.584C466.377 43.984 466.225 44.328 465.921 44.616C465.617 44.904 465.281 45.048 464.913 45.048C464.449 45.048 464.057 44.84 463.737 44.424L455.721 34.464C455.513 34.208 455.409 33.92 455.409 33.6C455.409 33.184 455.553 32.84 455.841 32.568C456.145 32.296 456.489 32.16 456.873 32.16ZM456.897 45.024C456.577 45.024 456.257 44.904 455.937 44.664C455.633 44.408 455.481 44.104 455.481 43.752C455.481 43.432 455.601 43.128 455.841 42.84L459.513 38.352L460.953 40.752L458.049 44.424C457.745 44.824 457.361 45.024 456.897 45.024ZM464.889 32.16C465.273 32.16 465.593 32.296 465.849 32.568C466.121 32.824 466.257 33.12 466.257 33.456C466.257 33.616 466.233 33.776 466.185 33.936C466.137 34.096 466.049 34.248 465.921 34.392L462.297 38.808L460.785 36.72L463.737 32.808C464.057 32.376 464.441 32.16 464.889 32.16Z" fill="white"/>
<rect x="312.5" y="0.5" width="197" height="71" rx="9.5" stroke="#A1AEBF"/>
<path d="M562.42 34.7254C563.258 31.3365 565.2 28.327 567.936 26.1763C570.672 24.0256 574.044 22.8572 577.517 22.8572C580.989 22.8572 584.362 24.0256 587.097 26.1763C589.833 28.327 591.775 31.3365 592.613 34.7254H591.25C588.949 34.6913 586.696 35.3828 584.806 36.7025C584.697 36.782 584.583 36.8545 584.465 36.9197H584.306C584.188 36.8545 584.075 36.782 583.965 36.7025C582.059 35.4133 579.814 34.7247 577.517 34.7247C575.219 34.7247 572.974 35.4133 571.068 36.7025C570.959 36.782 570.845 36.8545 570.727 36.9197H570.568C570.45 36.8545 570.336 36.782 570.227 36.7025C568.337 35.3828 566.084 34.6913 563.784 34.7254H562.42ZM588.795 41.8911C589.495 41.3429 590.363 41.056 591.25 41.0797H593.079V37.4111H591.25C589.687 37.3921 588.161 37.8812 586.897 38.8054C586.186 39.3326 585.326 39.6171 584.443 39.6171C583.559 39.6171 582.699 39.3326 581.988 38.8054C580.693 37.8984 579.152 37.4121 577.573 37.4121C575.995 37.4121 574.454 37.8984 573.159 38.8054C572.448 39.3326 571.588 39.6171 570.704 39.6171C569.821 39.6171 568.961 39.3326 568.25 38.8054C566.97 37.8693 565.422 37.3797 563.84 37.4111H561.954V41.0797H563.784C564.671 41.056 565.538 41.3429 566.238 41.8911C567.531 42.7988 569.07 43.2854 570.647 43.2854C572.224 43.2854 573.763 42.7988 575.056 41.8911C575.757 41.3446 576.624 41.058 577.511 41.0797C578.398 41.0541 579.266 41.3412 579.965 41.8911C581.261 42.7982 582.802 43.2844 584.38 43.2844C585.959 43.2844 587.499 42.7982 588.795 41.8911ZM588.795 48.4511C589.495 47.9029 590.363 47.616 591.25 47.6397H593.079V43.9711H591.25C589.687 43.9521 588.161 44.4412 586.897 45.3654C586.186 45.8926 585.326 46.1771 584.443 46.1771C583.559 46.1771 582.699 45.8926 581.988 45.3654C580.693 44.4584 579.152 43.9723 577.573 43.9723C575.995 43.9723 574.454 44.4584 573.159 45.3654C572.448 45.8926 571.588 46.1771 570.704 46.1771C569.821 46.1771 568.961 45.8926 568.25 45.3654C566.97 44.4294 565.422 43.9397 563.84 43.9711H561.954V47.6397H563.784C564.671 47.616 565.538 47.9029 566.238 48.4511C567.531 49.3588 569.07 49.8454 570.647 49.8454C572.224 49.8454 573.763 49.3588 575.056 48.4511C575.757 47.9046 576.624 47.618 577.511 47.6397C578.398 47.6141 579.266 47.9012 579.965 48.4511C581.261 49.3582 582.802 49.8444 584.38 49.8444C585.959 49.8444 587.499 49.3582 588.795 48.4511Z" fill="#4B5567"/>
<path d="M618.993 37.592C618.993 38.904 618.697 40.064 618.105 41.072C617.529 42.064 616.745 42.84 615.753 43.4C614.777 43.96 613.681 44.24 612.465 44.24C611.249 44.24 610.145 43.96 609.153 43.4C608.177 42.84 607.393 42.064 606.801 41.072C606.225 40.064 605.937 38.904 605.937 37.592C605.937 36.28 606.225 35.128 606.801 34.136C607.393 33.128 608.177 32.344 609.153 31.784C610.145 31.208 611.249 30.92 612.465 30.92C613.681 30.92 614.777 31.208 615.753 31.784C616.745 32.344 617.529 33.128 618.105 34.136C618.697 35.128 618.993 36.28 618.993 37.592ZM616.113 37.592C616.113 36.776 615.945 36.072 615.609 35.48C615.289 34.872 614.849 34.4 614.289 34.064C613.745 33.728 613.137 33.56 612.465 33.56C611.793 33.56 611.177 33.728 610.617 34.064C610.073 34.4 609.633 34.872 609.297 35.48C608.977 36.072 608.817 36.776 608.817 37.592C608.817 38.392 608.977 39.096 609.297 39.704C609.633 40.296 610.073 40.76 610.617 41.096C611.177 41.432 611.793 41.6 612.465 41.6C613.137 41.6 613.745 41.432 614.289 41.096C614.849 40.76 615.289 40.296 615.609 39.704C615.945 39.096 616.113 38.392 616.113 37.592ZM628.593 26.24C628.945 26.24 629.289 26.288 629.625 26.384C629.961 26.48 630.241 26.64 630.465 26.864C630.689 27.072 630.801 27.352 630.801 27.704C630.801 28.104 630.681 28.424 630.441 28.664C630.217 28.888 629.953 29 629.649 29C629.505 29 629.289 28.968 629.001 28.904C628.713 28.824 628.433 28.784 628.161 28.784C627.761 28.784 627.449 28.872 627.225 29.048C627.017 29.224 626.873 29.432 626.793 29.672C626.713 29.896 626.673 30.096 626.673 30.272V42.536C626.673 42.952 626.537 43.304 626.265 43.592C625.993 43.864 625.649 44 625.233 44C624.817 44 624.473 43.864 624.201 43.592C623.929 43.304 623.793 42.952 623.793 42.536V30.296C623.793 29.16 624.193 28.2 624.993 27.416C625.793 26.632 626.993 26.24 628.593 26.24ZM628.857 31.4C629.241 31.4 629.561 31.528 629.817 31.784C630.073 32.024 630.201 32.336 630.201 32.72C630.201 33.104 630.073 33.424 629.817 33.68C629.561 33.92 629.241 34.04 628.857 34.04H622.497C622.113 34.04 621.793 33.92 621.537 33.68C621.281 33.424 621.153 33.104 621.153 32.72C621.153 32.336 621.281 32.024 621.537 31.784C621.793 31.528 622.113 31.4 622.497 31.4H628.857ZM639.081 26.24C639.433 26.24 639.777 26.288 640.113 26.384C640.449 26.48 640.729 26.64 640.953 26.864C641.177 27.072 641.289 27.352 641.289 27.704C641.289 28.104 641.169 28.424 640.929 28.664C640.705 28.888 640.441 29 640.137 29C639.993 29 639.777 28.968 639.489 28.904C639.201 28.824 638.921 28.784 638.649 28.784C638.249 28.784 637.937 28.872 637.713 29.048C637.505 29.224 637.361 29.432 637.281 29.672C637.201 29.896 637.161 30.096 637.161 30.272V42.536C637.161 42.952 637.025 43.304 636.753 43.592C636.481 43.864 636.137 44 635.721 44C635.305 44 634.961 43.864 634.689 43.592C634.417 43.304 634.281 42.952 634.281 42.536V30.296C634.281 29.16 634.681 28.2 635.481 27.416C636.281 26.632 637.481 26.24 639.081 26.24ZM639.345 31.4C639.729 31.4 640.049 31.528 640.305 31.784C640.561 32.024 640.689 32.336 640.689 32.72C640.689 33.104 640.561 33.424 640.305 33.68C640.049 33.92 639.729 34.04 639.345 34.04H632.985C632.601 34.04 632.281 33.92 632.025 33.68C631.769 33.424 631.641 33.104 631.641 32.72C631.641 32.336 631.769 32.024 632.025 31.784C632.281 31.528 632.601 31.4 632.985 31.4H639.345ZM650.194 30.92C651.474 30.92 652.418 31.232 653.026 31.856C653.634 32.464 654.034 33.256 654.226 34.232L653.818 34.016L654.01 33.632C654.202 33.264 654.498 32.872 654.898 32.456C655.298 32.024 655.778 31.664 656.338 31.376C656.914 31.072 657.554 30.92 658.258 30.92C659.41 30.92 660.282 31.168 660.874 31.664C661.482 32.16 661.898 32.824 662.122 33.656C662.346 34.472 662.458 35.384 662.458 36.392V42.536C662.458 42.952 662.322 43.304 662.05 43.592C661.778 43.864 661.434 44 661.018 44C660.602 44 660.258 43.864 659.986 43.592C659.714 43.304 659.578 42.952 659.578 42.536V36.392C659.578 35.864 659.514 35.392 659.386 34.976C659.258 34.544 659.026 34.2 658.69 33.944C658.354 33.688 657.874 33.56 657.25 33.56C656.642 33.56 656.122 33.688 655.69 33.944C655.258 34.2 654.93 34.544 654.706 34.976C654.498 35.392 654.394 35.864 654.394 36.392V42.536C654.394 42.952 654.258 43.304 653.986 43.592C653.714 43.864 653.37 44 652.954 44C652.538 44 652.194 43.864 651.922 43.592C651.65 43.304 651.514 42.952 651.514 42.536V36.392C651.514 35.864 651.45 35.392 651.322 34.976C651.194 34.544 650.962 34.2 650.626 33.944C650.29 33.688 649.81 33.56 649.186 33.56C648.578 33.56 648.058 33.688 647.626 33.944C647.194 34.2 646.866 34.544 646.642 34.976C646.434 35.392 646.33 35.864 646.33 36.392V42.536C646.33 42.952 646.194 43.304 645.922 43.592C645.65 43.864 645.306 44 644.89 44C644.474 44 644.13 43.864 643.858 43.592C643.586 43.304 643.45 42.952 643.45 42.536V32.624C643.45 32.208 643.586 31.864 643.858 31.592C644.13 31.304 644.474 31.16 644.89 31.16C645.306 31.16 645.65 31.304 645.922 31.592C646.194 31.864 646.33 32.208 646.33 32.624V33.656L645.97 33.584C646.114 33.312 646.314 33.024 646.57 32.72C646.826 32.4 647.138 32.104 647.506 31.832C647.874 31.56 648.282 31.344 648.73 31.184C649.178 31.008 649.666 30.92 650.194 30.92ZM676.567 30.92C676.983 30.92 677.327 31.056 677.599 31.328C677.871 31.6 678.007 31.952 678.007 32.384V42.536C678.007 42.952 677.871 43.304 677.599 43.592C677.327 43.864 676.983 44 676.567 44C676.151 44 675.807 43.864 675.535 43.592C675.263 43.304 675.127 42.952 675.127 42.536V41.36L675.655 41.576C675.655 41.784 675.543 42.04 675.319 42.344C675.095 42.632 674.791 42.92 674.407 43.208C674.023 43.496 673.567 43.744 673.039 43.952C672.527 44.144 671.967 44.24 671.359 44.24C670.255 44.24 669.255 43.96 668.359 43.4C667.463 42.824 666.751 42.04 666.223 41.048C665.711 40.04 665.455 38.888 665.455 37.592C665.455 36.28 665.711 35.128 666.223 34.136C666.751 33.128 667.455 32.344 668.335 31.784C669.215 31.208 670.191 30.92 671.263 30.92C671.951 30.92 672.583 31.024 673.159 31.232C673.735 31.44 674.231 31.704 674.647 32.024C675.079 32.344 675.407 32.672 675.631 33.008C675.871 33.328 675.991 33.6 675.991 33.824L675.127 34.136V32.384C675.127 31.968 675.263 31.624 675.535 31.352C675.807 31.064 676.151 30.92 676.567 30.92ZM671.719 41.6C672.423 41.6 673.039 41.424 673.567 41.072C674.095 40.72 674.503 40.24 674.791 39.632C675.095 39.024 675.247 38.344 675.247 37.592C675.247 36.824 675.095 36.136 674.791 35.528C674.503 34.92 674.095 34.44 673.567 34.088C673.039 33.736 672.423 33.56 671.719 33.56C671.031 33.56 670.423 33.736 669.895 34.088C669.367 34.44 668.951 34.92 668.647 35.528C668.359 36.136 668.215 36.824 668.215 37.592C668.215 38.344 668.359 39.024 668.647 39.632C668.951 40.24 669.367 40.72 669.895 41.072C670.423 41.424 671.031 41.6 671.719 41.6ZM681.869 31.16C682.333 31.16 682.725 31.36 683.045 31.76L691.061 41.72C691.269 41.976 691.373 42.264 691.373 42.584C691.373 42.984 691.221 43.328 690.917 43.616C690.613 43.904 690.277 44.048 689.909 44.048C689.445 44.048 689.053 43.84 688.733 43.424L680.717 33.464C680.509 33.208 680.405 32.92 680.405 32.6C680.405 32.184 680.549 31.84 680.837 31.568C681.141 31.296 681.485 31.16 681.869 31.16ZM681.893 44.024C681.573 44.024 681.253 43.904 680.933 43.664C680.629 43.408 680.477 43.104 680.477 42.752C680.477 42.432 680.597 42.128 680.837 41.84L684.509 37.352L685.949 39.752L683.045 43.424C682.741 43.824 682.357 44.024 681.893 44.024ZM689.885 31.16C690.269 31.16 690.589 31.296 690.845 31.568C691.117 31.824 691.253 32.12 691.253 32.456C691.253 32.616 691.229 32.776 691.181 32.936C691.133 33.096 691.045 33.248 690.917 33.392L687.293 37.808L685.781 35.72L688.733 31.808C689.053 31.376 689.437 31.16 689.885 31.16Z" fill="white"/>
<rect x="530.5" y="0.5" width="197" height="71" rx="9.5" stroke="#A1AEBF"/>
<path d="M794.815 45.4629L775.315 32.0933C773.339 30.7385 774.011 27.9177 776.475 27.2543L797.2 21.6634C797.639 21.5059 798.11 21.4548 798.572 21.5143C799.035 21.5738 799.477 21.7421 799.862 22.0054C800.246 22.2686 800.561 22.6192 800.782 23.0279C801.003 23.4367 801.122 23.8919 801.13 24.3557L799.902 43.3151C799.757 45.5655 796.791 46.8176 794.815 45.4629Z" fill="#A1AEBF"/>
<path d="M788.631 48.7634L777.143 26.4333C776.88 25.9225 776.765 25.3495 776.809 24.7775C776.853 24.2055 777.056 23.6568 777.394 23.1918C777.732 22.7269 778.192 22.3637 778.725 22.1425C779.257 21.9212 779.841 21.8504 780.411 21.9379L801.702 25.2039C802.192 25.2791 802.657 25.4688 803.059 25.7576C803.461 26.0463 803.788 26.4258 804.014 26.8647C804.24 27.3037 804.357 27.7896 804.357 28.2826C804.357 28.7756 804.239 29.2615 804.014 29.7004L794.206 48.7645C793.943 49.2739 793.543 49.7013 793.051 49.9996C792.559 50.298 791.994 50.4557 791.418 50.4556C790.842 50.4555 790.277 50.2976 789.785 49.9991C789.294 49.7004 788.894 49.2729 788.631 48.7634Z" fill="#728095"/>
<path d="M801.078 25.1077L790.465 23.4796L777.435 26.9962L782.636 37.1095L794.815 45.4629C795.084 45.6452 795.379 45.7848 795.691 45.8767L800.317 36.8848L801.078 25.1077Z" fill="white"/>
<path d="M836.993 36.592C836.993 37.904 836.697 39.064 836.105 40.072C835.529 41.064 834.745 41.84 833.753 42.4C832.777 42.96 831.681 43.24 830.465 43.24C829.249 43.24 828.145 42.96 827.153 42.4C826.177 41.84 825.393 41.064 824.801 40.072C824.225 39.064 823.937 37.904 823.937 36.592C823.937 35.28 824.225 34.128 824.801 33.136C825.393 32.128 826.177 31.344 827.153 30.784C828.145 30.208 829.249 29.92 830.465 29.92C831.681 29.92 832.777 30.208 833.753 30.784C834.745 31.344 835.529 32.128 836.105 33.136C836.697 34.128 836.993 35.28 836.993 36.592ZM834.113 36.592C834.113 35.776 833.945 35.072 833.609 34.48C833.289 33.872 832.849 33.4 832.289 33.064C831.745 32.728 831.137 32.56 830.465 32.56C829.793 32.56 829.177 32.728 828.617 33.064C828.073 33.4 827.633 33.872 827.297 34.48C826.977 35.072 826.817 35.776 826.817 36.592C826.817 37.392 826.977 38.096 827.297 38.704C827.633 39.296 828.073 39.76 828.617 40.096C829.177 40.432 829.793 40.6 830.465 40.6C831.137 40.6 831.745 40.432 832.289 40.096C832.849 39.76 833.289 39.296 833.609 38.704C833.945 38.096 834.113 37.392 834.113 36.592ZM846.593 25.24C846.945 25.24 847.289 25.288 847.625 25.384C847.961 25.48 848.241 25.64 848.465 25.864C848.689 26.072 848.801 26.352 848.801 26.704C848.801 27.104 848.681 27.424 848.441 27.664C848.217 27.888 847.953 28 847.649 28C847.505 28 847.289 27.968 847.001 27.904C846.713 27.824 846.433 27.784 846.161 27.784C845.761 27.784 845.449 27.872 845.225 28.048C845.017 28.224 844.873 28.432 844.793 28.672C844.713 28.896 844.673 29.096 844.673 29.272V41.536C844.673 41.952 844.537 42.304 844.265 42.592C843.993 42.864 843.649 43 843.233 43C842.817 43 842.473 42.864 842.201 42.592C841.929 42.304 841.793 41.952 841.793 41.536V29.296C841.793 28.16 842.193 27.2 842.993 26.416C843.793 25.632 844.993 25.24 846.593 25.24ZM846.857 30.4C847.241 30.4 847.561 30.528 847.817 30.784C848.073 31.024 848.201 31.336 848.201 31.72C848.201 32.104 848.073 32.424 847.817 32.68C847.561 32.92 847.241 33.04 846.857 33.04H840.497C840.113 33.04 839.793 32.92 839.537 32.68C839.281 32.424 839.153 32.104 839.153 31.72C839.153 31.336 839.281 31.024 839.537 30.784C839.793 30.528 840.113 30.4 840.497 30.4H846.857ZM857.081 25.24C857.433 25.24 857.777 25.288 858.113 25.384C858.449 25.48 858.729 25.64 858.953 25.864C859.177 26.072 859.289 26.352 859.289 26.704C859.289 27.104 859.169 27.424 858.929 27.664C858.705 27.888 858.441 28 858.137 28C857.993 28 857.777 27.968 857.489 27.904C857.201 27.824 856.921 27.784 856.649 27.784C856.249 27.784 855.937 27.872 855.713 28.048C855.505 28.224 855.361 28.432 855.281 28.672C855.201 28.896 855.161 29.096 855.161 29.272V41.536C855.161 41.952 855.025 42.304 854.753 42.592C854.481 42.864 854.137 43 853.721 43C853.305 43 852.961 42.864 852.689 42.592C852.417 42.304 852.281 41.952 852.281 41.536V29.296C852.281 28.16 852.681 27.2 853.481 26.416C854.281 25.632 855.481 25.24 857.081 25.24ZM857.345 30.4C857.729 30.4 858.049 30.528 858.305 30.784C858.561 31.024 858.689 31.336 858.689 31.72C858.689 32.104 858.561 32.424 858.305 32.68C858.049 32.92 857.729 33.04 857.345 33.04H850.985C850.601 33.04 850.281 32.92 850.025 32.68C849.769 32.424 849.641 32.104 849.641 31.72C849.641 31.336 849.769 31.024 850.025 30.784C850.281 30.528 850.601 30.4 850.985 30.4H857.345ZM868.194 29.92C869.474 29.92 870.418 30.232 871.026 30.856C871.634 31.464 872.034 32.256 872.226 33.232L871.818 33.016L872.01 32.632C872.202 32.264 872.498 31.872 872.898 31.456C873.298 31.024 873.778 30.664 874.338 30.376C874.914 30.072 875.554 29.92 876.258 29.92C877.41 29.92 878.282 30.168 878.874 30.664C879.482 31.16 879.898 31.824 880.122 32.656C880.346 33.472 880.458 34.384 880.458 35.392V41.536C880.458 41.952 880.322 42.304 880.05 42.592C879.778 42.864 879.434 43 879.018 43C878.602 43 878.258 42.864 877.986 42.592C877.714 42.304 877.578 41.952 877.578 41.536V35.392C877.578 34.864 877.514 34.392 877.386 33.976C877.258 33.544 877.026 33.2 876.69 32.944C876.354 32.688 875.874 32.56 875.25 32.56C874.642 32.56 874.122 32.688 873.69 32.944C873.258 33.2 872.93 33.544 872.706 33.976C872.498 34.392 872.394 34.864 872.394 35.392V41.536C872.394 41.952 872.258 42.304 871.986 42.592C871.714 42.864 871.37 43 870.954 43C870.538 43 870.194 42.864 869.922 42.592C869.65 42.304 869.514 41.952 869.514 41.536V35.392C869.514 34.864 869.45 34.392 869.322 33.976C869.194 33.544 868.962 33.2 868.626 32.944C868.29 32.688 867.81 32.56 867.186 32.56C866.578 32.56 866.058 32.688 865.626 32.944C865.194 33.2 864.866 33.544 864.642 33.976C864.434 34.392 864.33 34.864 864.33 35.392V41.536C864.33 41.952 864.194 42.304 863.922 42.592C863.65 42.864 863.306 43 862.89 43C862.474 43 862.13 42.864 861.858 42.592C861.586 42.304 861.45 41.952 861.45 41.536V31.624C861.45 31.208 861.586 30.864 861.858 30.592C862.13 30.304 862.474 30.16 862.89 30.16C863.306 30.16 863.65 30.304 863.922 30.592C864.194 30.864 864.33 31.208 864.33 31.624V32.656L863.97 32.584C864.114 32.312 864.314 32.024 864.57 31.72C864.826 31.4 865.138 31.104 865.506 30.832C865.874 30.56 866.282 30.344 866.73 30.184C867.178 30.008 867.666 29.92 868.194 29.92ZM894.567 29.92C894.983 29.92 895.327 30.056 895.599 30.328C895.871 30.6 896.007 30.952 896.007 31.384V41.536C896.007 41.952 895.871 42.304 895.599 42.592C895.327 42.864 894.983 43 894.567 43C894.151 43 893.807 42.864 893.535 42.592C893.263 42.304 893.127 41.952 893.127 41.536V40.36L893.655 40.576C893.655 40.784 893.543 41.04 893.319 41.344C893.095 41.632 892.791 41.92 892.407 42.208C892.023 42.496 891.567 42.744 891.039 42.952C890.527 43.144 889.967 43.24 889.359 43.24C888.255 43.24 887.255 42.96 886.359 42.4C885.463 41.824 884.751 41.04 884.223 40.048C883.711 39.04 883.455 37.888 883.455 36.592C883.455 35.28 883.711 34.128 884.223 33.136C884.751 32.128 885.455 31.344 886.335 30.784C887.215 30.208 888.191 29.92 889.263 29.92C889.951 29.92 890.583 30.024 891.159 30.232C891.735 30.44 892.231 30.704 892.647 31.024C893.079 31.344 893.407 31.672 893.631 32.008C893.871 32.328 893.991 32.6 893.991 32.824L893.127 33.136V31.384C893.127 30.968 893.263 30.624 893.535 30.352C893.807 30.064 894.151 29.92 894.567 29.92ZM889.719 40.6C890.423 40.6 891.039 40.424 891.567 40.072C892.095 39.72 892.503 39.24 892.791 38.632C893.095 38.024 893.247 37.344 893.247 36.592C893.247 35.824 893.095 35.136 892.791 34.528C892.503 33.92 892.095 33.44 891.567 33.088C891.039 32.736 890.423 32.56 889.719 32.56C889.031 32.56 888.423 32.736 887.895 33.088C887.367 33.44 886.951 33.92 886.647 34.528C886.359 35.136 886.215 35.824 886.215 36.592C886.215 37.344 886.359 38.024 886.647 38.632C886.951 39.24 887.367 39.72 887.895 40.072C888.423 40.424 889.031 40.6 889.719 40.6ZM899.869 30.16C900.333 30.16 900.725 30.36 901.045 30.76L909.061 40.72C909.269 40.976 909.373 41.264 909.373 41.584C909.373 41.984 909.221 42.328 908.917 42.616C908.613 42.904 908.277 43.048 907.909 43.048C907.445 43.048 907.053 42.84 906.733 42.424L898.717 32.464C898.509 32.208 898.405 31.92 898.405 31.6C898.405 31.184 898.549 30.84 898.837 30.568C899.141 30.296 899.485 30.16 899.869 30.16ZM899.893 43.024C899.573 43.024 899.253 42.904 898.933 42.664C898.629 42.408 898.477 42.104 898.477 41.752C898.477 41.432 898.597 41.128 898.837 40.84L902.509 36.352L903.949 38.752L901.045 42.424C900.741 42.824 900.357 43.024 899.893 43.024ZM907.885 30.16C908.269 30.16 908.589 30.296 908.845 30.568C909.117 30.824 909.253 31.12 909.253 31.456C909.253 31.616 909.229 31.776 909.181 31.936C909.133 32.096 909.045 32.248 908.917 32.392L905.293 36.808L903.781 34.72L906.733 30.808C907.053 30.376 907.437 30.16 907.885 30.16Z" fill="white"/>
<rect x="748.5" y="0.5" width="197" height="71" rx="9.5" stroke="#A1AEBF"/>
<path d="M1034.87 28.8265H1038.52V43.4999H1034.87V28.8265ZM1039.97 37.9596C1039.97 34.3306 1042.21 32.1652 1045.67 32.1652C1049.12 32.1652 1051.36 34.3306 1051.36 37.9596C1051.36 41.5886 1049.17 43.766 1045.67 43.766C1042.16 43.766 1039.97 41.6491 1039.97 37.9596ZM1047.7 37.9596C1047.7 35.9636 1046.91 34.7902 1045.67 34.7902C1044.43 34.7902 1043.65 35.9999 1043.65 37.9596C1043.65 39.9193 1044.41 41.1048 1045.67 41.1048C1046.92 41.1048 1047.7 39.9918 1047.7 37.9717V37.9596ZM1052.74 44.2136H1056.24C1056.41 44.582 1056.69 44.8869 1057.05 45.0831C1057.4 45.2792 1057.81 45.3562 1058.22 45.3023C1059.6 45.3023 1060.33 44.5523 1060.33 43.4636V41.4314H1060.26C1059.97 42.0542 1059.5 42.5761 1058.91 42.9298C1058.31 43.2834 1057.63 43.4525 1056.94 43.4152C1054.27 43.4152 1052.51 41.3951 1052.51 37.9233C1052.51 34.4515 1054.19 32.262 1056.99 32.262C1057.7 32.2343 1058.4 32.4234 1059 32.8038C1059.6 33.1844 1060.07 33.7382 1060.35 34.391V32.3709H1064V43.3789C1064 46.0281 1061.65 47.6733 1058.18 47.6733C1054.95 47.6733 1052.95 46.2338 1052.74 44.2257V44.2136ZM1060.35 37.9475C1060.35 36.1814 1059.53 35.0685 1058.24 35.0685C1056.95 35.0685 1056.16 36.1693 1056.16 37.9475C1056.16 39.7257 1056.94 40.7298 1058.24 40.7298C1059.54 40.7298 1060.35 39.7499 1060.35 37.9596V37.9475ZM1065.37 37.9475C1065.37 34.3185 1067.61 32.1531 1071.07 32.1531C1074.52 32.1531 1076.78 34.3185 1076.78 37.9475C1076.78 41.5765 1074.59 43.7539 1071.07 43.7539C1067.55 43.7539 1065.37 41.6491 1065.37 37.9596V37.9475ZM1073.1 37.9475C1073.1 35.9515 1072.31 34.7781 1071.07 34.7781C1069.83 34.7781 1069.11 35.9999 1069.11 37.9717C1069.11 39.9435 1069.88 41.1168 1071.12 41.1168C1072.36 41.1168 1073.1 39.9918 1073.1 37.9717V37.9475ZM1078.16 29.7338C1078.15 29.3674 1078.25 29.0064 1078.45 28.6966C1078.65 28.3868 1078.93 28.1422 1079.27 27.9937C1079.61 27.8452 1079.98 27.7995 1080.34 27.8625C1080.71 27.9255 1081.04 28.0942 1081.31 28.3474C1081.58 28.6005 1081.76 28.9267 1081.84 29.2845C1081.92 29.6423 1081.89 30.0156 1081.76 30.3573C1081.63 30.6987 1081.39 30.9932 1081.09 31.2031C1080.79 31.4129 1080.43 31.5289 1080.06 31.5362C1079.82 31.5529 1079.57 31.5191 1079.34 31.4371C1079.11 31.3551 1078.9 31.2266 1078.72 31.0596C1078.54 30.8927 1078.4 30.6908 1078.31 30.4667C1078.21 30.2428 1078.16 30.0015 1078.16 29.758V29.7338ZM1078.16 32.3951H1081.81V43.4999H1078.16V32.3951ZM1095.07 37.9475C1095.07 41.5765 1093.45 43.6451 1090.67 43.6451C1089.96 43.6904 1089.26 43.5176 1088.65 43.1498C1088.04 42.782 1087.55 42.237 1087.27 41.5886H1087.19V47.0564H1083.54V32.3709H1087.19V34.3548H1087.27C1087.54 33.6956 1088.01 33.1365 1088.62 32.7534C1089.22 32.3703 1089.93 32.1818 1090.65 32.2136C1093.45 32.262 1095.12 34.3427 1095.12 37.9717L1095.07 37.9475ZM1091.42 37.9475C1091.42 36.1814 1090.6 35.0564 1089.32 35.0564C1088.05 35.0564 1087.23 36.1935 1087.22 37.9475C1087.21 39.7015 1088.05 40.8265 1089.32 40.8265C1090.6 40.8265 1091.42 39.7257 1091.42 37.9717V37.9475ZM1101.34 32.141C1104.37 32.141 1106.2 33.5685 1106.29 35.8548H1102.97C1102.97 35.0685 1102.31 34.5725 1101.3 34.5725C1100.29 34.5725 1099.84 34.9596 1099.84 35.5281C1099.84 36.0967 1100.24 36.2781 1101.06 36.4475L1103.39 36.9193C1105.62 37.391 1106.57 38.2862 1106.57 39.9677C1106.57 42.266 1104.46 43.7418 1101.36 43.7418C1098.26 43.7418 1096.22 42.266 1096.07 40.0039H1099.58C1099.69 40.8265 1100.35 41.3104 1101.42 41.3104C1102.49 41.3104 1102.98 40.9596 1102.98 40.3789C1102.98 39.7983 1102.64 39.6773 1101.76 39.4959L1099.66 39.0483C1097.48 38.6007 1096.33 37.4515 1096.33 35.758C1096.36 33.5806 1098.32 32.1652 1101.34 32.1652V32.141ZM1118.75 43.4757H1115.24V41.4072H1115.16C1114.97 42.1016 1114.54 42.7095 1113.95 43.1299C1113.36 43.5501 1112.65 43.7576 1111.92 43.7177C1111.37 43.749 1110.81 43.6616 1110.3 43.4614C1109.78 43.2612 1109.31 42.953 1108.92 42.5573C1108.54 42.1618 1108.24 41.6879 1108.05 41.1681C1107.86 40.6483 1107.79 40.0946 1107.84 39.5443V32.3709H1111.49V38.7096C1111.49 40.0281 1112.17 40.7298 1113.3 40.7298C1113.57 40.7302 1113.83 40.6745 1114.07 40.566C1114.31 40.4575 1114.53 40.2987 1114.7 40.1006C1114.88 39.9023 1115.01 39.6692 1115.09 39.4169C1115.16 39.1644 1115.19 38.8985 1115.15 38.637V32.3709H1118.8L1118.75 43.4757ZM1120.52 32.3709H1124.05V34.512H1124.12C1124.31 33.8267 1124.73 33.2246 1125.3 32.8C1125.88 32.3754 1126.58 32.1521 1127.3 32.1652C1128.03 32.1073 1128.75 32.3239 1129.32 32.7723C1129.9 33.2206 1130.28 33.8675 1130.4 34.5846H1130.47C1130.69 33.8599 1131.15 33.2289 1131.77 32.7909C1132.39 32.3529 1133.14 32.1327 1133.9 32.1652C1134.4 32.1487 1134.9 32.2361 1135.36 32.4219C1135.82 32.6076 1136.23 32.8877 1136.58 33.2435C1136.92 33.5996 1137.19 34.0235 1137.36 34.4879C1137.52 34.9523 1137.59 35.447 1137.56 35.9394V43.4999H1133.9V36.9072C1133.9 35.6975 1133.36 35.141 1132.33 35.141C1132.11 35.1391 1131.88 35.1858 1131.67 35.278C1131.46 35.3702 1131.28 35.5056 1131.13 35.6754C1130.98 35.8451 1130.86 36.0449 1130.8 36.2616C1130.73 36.4783 1130.71 36.7067 1130.74 36.9314V43.4999H1127.27V36.8588C1127.27 35.7459 1126.72 35.141 1125.73 35.141C1125.5 35.1412 1125.27 35.1898 1125.06 35.2838C1124.85 35.3779 1124.66 35.5152 1124.51 35.6866C1124.35 35.858 1124.24 36.0598 1124.17 36.2786C1124.1 36.4973 1124.08 36.728 1124.11 36.9556V43.4999H1120.46L1120.52 32.3709Z" fill="white"/>
<path d="M1024.66 29.4921C1024.04 28.0844 1023.22 26.7726 1022.23 25.5969C1020.76 23.807 1018.92 22.347 1016.84 21.3129C1014.76 20.2789 1012.49 19.6944 1010.16 19.5977C1007.84 19.501 1005.52 19.8945 1003.36 20.7521C1001.2 21.6098 999.253 22.9122 997.636 24.5737C996.02 26.2351 994.776 28.218 993.987 30.3917C993.197 32.5654 992.879 34.8807 993.055 37.1851C993.23 39.4897 993.895 41.7311 995.004 43.7619C996.114 45.7928 997.644 47.5671 999.493 48.9679C1000.68 49.8847 1001.99 50.63 1003.39 51.1816C1005.35 51.9792 1007.44 52.39 1009.56 52.3913C1013.93 52.3817 1018.11 50.6509 1021.2 47.5783C1024.29 44.5057 1026.02 40.3421 1026.03 36.0001C1026.03 33.7604 1025.56 31.5444 1024.66 29.4921ZM1009.55 22.9235C1011.45 22.9233 1013.32 23.3362 1015.05 24.1332C1014.63 24.3136 1014.19 24.4397 1013.73 24.5082C1012.24 24.7224 1010.86 25.4095 1009.8 26.4669C1008.74 27.5242 1008.05 28.8952 1007.83 30.3751C1007.74 31.2051 1007.36 31.9772 1006.75 32.5613C1006.15 33.1453 1005.37 33.5053 1004.53 33.5808C1003.04 33.795 1001.66 34.4821 1000.6 35.5395C999.536 36.5969 998.845 37.9678 998.629 39.4477C998.556 40.2369 998.218 40.9785 997.668 41.5525C996.719 39.5606 996.293 37.3623 996.429 35.1627C996.565 32.963 997.259 30.8332 998.445 28.9715C999.632 27.11 1001.27 25.577 1003.22 24.5153C1005.16 23.4536 1007.34 22.8977 1009.56 22.8993L1009.55 22.9235ZM999.481 44.4679C999.627 44.3348 999.773 44.2138 999.919 44.0687C1001 43.0253 1001.7 41.648 1001.89 40.1614C1001.97 39.3258 1002.34 38.5453 1002.95 37.9598C1003.53 37.3576 1004.32 36.9876 1005.15 36.9195C1006.64 36.7052 1008.02 36.0181 1009.08 34.9608C1010.15 33.9034 1010.84 32.5325 1011.06 31.0525C1011.11 30.1786 1011.49 29.3551 1012.11 28.7421C1012.71 28.1516 1013.5 27.795 1014.34 27.738C1015.71 27.551 1016.98 26.9465 1017.99 26.0082C1019.14 26.9542 1020.11 28.0923 1020.86 29.3711C1020.82 29.4331 1020.77 29.49 1020.71 29.5404C1020.13 30.1479 1019.34 30.5261 1018.5 30.605C1017.01 30.8154 1015.63 31.5013 1014.57 32.5593C1013.5 33.6174 1012.81 34.9904 1012.6 36.4719C1012.52 37.3046 1012.14 38.0823 1011.55 38.6731C1010.95 39.2641 1010.17 39.6317 1009.33 39.7138C1007.83 39.9264 1006.45 40.6121 1005.38 41.669C1004.31 42.7261 1003.61 44.0978 1003.39 45.5808C1003.32 46.1719 1003.12 46.7396 1002.79 47.238C1001.54 46.5011 1000.42 45.5653 999.481 44.4679ZM1009.55 49.1372C1008.31 49.1385 1007.08 48.9675 1005.9 48.6292C1006.3 47.8767 1006.57 47.0567 1006.67 46.2098C1006.76 45.3789 1007.13 44.6026 1007.72 44.0121C1008.32 43.4215 1009.1 43.0527 1009.94 42.9679C1011.43 42.7561 1012.81 42.07 1013.88 41.0124C1014.94 39.9549 1015.63 38.5825 1015.85 37.1009C1015.94 36.27 1016.31 35.4938 1016.9 34.9032C1017.5 34.3126 1018.28 33.9438 1019.11 33.859C1020.23 33.714 1021.3 33.2987 1022.23 32.6493C1022.74 34.5823 1022.8 36.6063 1022.41 38.5662C1022.01 40.5261 1021.17 42.3699 1019.94 43.9559C1018.72 45.5418 1017.14 46.8281 1015.34 47.7157C1013.54 48.6034 1011.56 49.069 1009.55 49.0767V49.1372Z" fill="white"/>
<rect x="966.5" y="0.5" width="197" height="71" rx="9.5" stroke="#A1AEBF"/>
<path d="M1235.44 16.9091C1233.04 16.9091 1230.66 17.3912 1228.44 18.3277C1226.22 19.2643 1224.2 20.637 1222.5 22.3675C1220.81 24.0981 1219.46 26.1525 1218.54 28.4136C1217.62 30.6746 1217.15 33.0981 1217.15 35.5454C1217.15 37.9927 1217.62 40.4162 1218.54 42.6773C1219.46 44.9384 1220.81 46.9927 1222.5 48.7233C1224.2 50.4539 1226.82 51.427 1229.04 52.3636C1231.26 53.3001 1233.04 54.1818 1235.44 54.1818V45.7306C1234.24 45.7306 1232.89 45.1047 1231.78 44.6363C1230.67 44.1681 1229.82 42.9996 1228.97 42.1344C1228.12 41.2691 1227.45 40.2419 1226.99 39.1114C1226.53 37.9808 1226.29 37.2237 1226.29 36C1226.29 34.7762 1226.53 33.11 1226.99 31.9795C1227.45 30.849 1228.12 29.8217 1228.97 28.9565C1229.82 28.0912 1230.83 27.4048 1231.94 26.9366C1233.05 26.4682 1234.24 26.2272 1235.44 26.2272V16.9091Z" fill="white"/>
<path d="M1235.9 41.4545C1239.18 41.4545 1241.84 38.809 1241.84 35.5454C1241.84 32.2819 1239.18 29.6364 1235.9 29.6364C1232.61 29.6364 1229.95 32.2819 1229.95 35.5454C1229.95 38.809 1232.61 41.4545 1235.9 41.4545Z" fill="white"/>
<path d="M1217.15 36C1217.15 38.3876 1217.63 40.752 1218.57 42.9579C1219.52 45.1638 1220.9 47.1681 1222.64 48.8565C1224.38 50.5448 1226.45 51.8841 1228.72 52.7978C1231 53.7115 1233.43 54.1818 1235.9 54.1818C1238.36 54.1818 1240.8 53.7115 1243.07 52.7978C1245.35 51.8841 1247.41 50.5448 1249.15 48.8565C1250.9 47.1681 1252.28 45.1638 1253.22 42.9579C1254.16 40.752 1254.65 38.3876 1254.65 36H1245.27C1245.27 37.1939 1245.03 38.376 1244.56 39.479C1244.09 40.5819 1243.4 41.5841 1242.53 42.4283C1241.66 43.2724 1240.62 43.942 1239.48 44.3989C1238.35 44.8558 1237.13 45.0909 1235.9 45.0909C1234.67 45.0909 1233.45 44.8558 1232.31 44.3989C1231.17 43.942 1230.14 43.2724 1229.27 42.4283C1228.4 41.5841 1227.71 40.5819 1227.24 39.479C1226.76 38.376 1226.52 37.1939 1226.52 36H1217.15Z" fill="white"/>
<path d="M1241.84 36C1241.84 34.3123 1241.22 32.6937 1240.1 31.5003C1238.99 30.3068 1237.47 29.6364 1235.9 29.6364C1234.32 29.6364 1232.81 30.3068 1231.69 31.5003C1230.58 32.6937 1229.95 34.3123 1229.95 36H1235.9H1241.84Z" fill="white"/>
<path d="M1264.71 28.7273H1261.96V41.4546H1264.71V28.7273Z" fill="white"/>
<path d="M1265.62 36.9091C1265.62 39.7196 1267.79 41.4546 1270.65 41.4546C1273.52 41.4546 1275.68 39.7196 1275.68 36.9091C1275.68 34.0986 1273.52 32.3636 1270.65 32.3636C1267.79 32.3636 1265.62 34.0986 1265.62 36.9091ZM1268.06 36.9091C1268.06 35.2436 1269.14 34.272 1270.65 34.272C1272.16 34.272 1273.25 35.2436 1273.25 36.9091C1273.25 38.5746 1272.16 39.5462 1270.65 39.5462C1269.14 39.5462 1268.06 38.5746 1268.06 36.9091Z" fill="white"/>
<path d="M1283.57 32.6098V33.7875H1283.4C1282.87 33.0317 1282.03 32.3636 1280.52 32.3636C1278.45 32.3636 1276.6 34.1216 1276.6 36.8287C1276.6 39.5359 1278.45 41.2938 1280.52 41.2938C1282.03 41.2938 1282.87 40.6082 1283.36 39.9227H1283.54V40.7665C1283.54 42.4541 1282.56 43.2275 1281.12 43.2275C1279.68 43.2275 1278.95 42.4541 1278.65 41.452L1276.67 42.3134C1277.12 43.6318 1278.45 45.0909 1281.15 45.0909C1283.92 45.0909 1285.74 43.6318 1285.74 40.8191V32.6098H1283.57ZM1281.19 39.3953C1279.82 39.3953 1278.81 38.4109 1278.81 36.8287C1278.81 35.2466 1279.82 34.2622 1281.19 34.2622C1282.56 34.2622 1283.57 35.2466 1283.57 36.8287C1283.57 38.4109 1282.56 39.3953 1281.19 39.3953Z" fill="white"/>
<path d="M1287.57 36.9091C1287.57 39.7196 1289.74 41.4546 1292.6 41.4546C1295.47 41.4546 1297.63 39.7196 1297.63 36.9091C1297.63 34.0986 1295.47 32.3636 1292.6 32.3636C1289.74 32.3636 1287.57 34.0986 1287.57 36.9091ZM1290.01 36.9091C1290.01 35.2436 1291.09 34.272 1292.6 34.272C1294.11 34.272 1295.2 35.2436 1295.2 36.9091C1295.2 38.5746 1294.11 39.5462 1292.6 39.5462C1291.09 39.5462 1290.01 38.5746 1290.01 36.9091Z" fill="white"/>
<path d="M1299.46 29.4336C1299.46 30.3915 1300.07 31.0489 1300.84 31.0489C1301.61 31.0489 1302.21 30.3915 1302.21 29.4336C1302.21 28.4757 1301.61 27.8182 1300.84 27.8182C1300.07 27.8182 1299.46 28.4757 1299.46 29.4336ZM1301.81 32.1383H1299.87V41.4546H1301.81V32.1383Z" fill="white"/>
<path d="M1304.04 45.0909H1306.24V40.3585H1306.42C1306.91 41.0756 1307.75 41.7567 1309.26 41.7567C1311.32 41.7567 1313.18 39.9642 1313.18 37.0602C1313.18 34.1562 1311.32 32.3636 1309.26 32.3636C1307.75 32.3636 1306.91 33.0448 1306.38 33.8157H1306.21V32.6146H1304.04V45.0909ZM1308.59 39.8208C1307.23 39.8208 1306.21 38.8169 1306.21 37.0602C1306.21 35.3035 1307.23 34.2996 1308.59 34.2996C1309.96 34.2996 1310.97 35.3035 1310.97 37.0602C1310.97 38.8169 1309.96 39.8208 1308.59 39.8208Z" fill="white"/>
<path d="M1315.35 35.0181C1315.35 36.7183 1316.87 37.3429 1318.81 37.6899L1319.3 37.7766C1320.45 37.9847 1320.97 38.245 1320.97 38.8002C1320.97 39.3554 1320.45 39.789 1319.37 39.789C1318.29 39.789 1317.41 39.3727 1317.17 38.1235L1315.01 38.644C1315.33 40.4483 1316.95 41.4546 1319.37 41.4546C1321.72 41.4546 1323.24 40.431 1323.24 38.6267C1323.24 36.8223 1321.68 36.3366 1319.59 35.955L1319.11 35.8682C1318.14 35.6947 1317.62 35.4518 1317.62 34.8793C1317.62 34.3588 1318.1 34.0292 1319 34.0292C1319.89 34.0292 1320.52 34.3761 1320.75 35.313L1322.87 34.7058C1322.42 33.3179 1321.06 32.3636 1319 32.3636C1316.8 32.3636 1315.35 33.3179 1315.35 35.0181Z" fill="white"/>
<path d="M1333.3 41.3103V32.3636H1330.9V36.9813C1330.9 38.6407 1330.05 39.6147 1328.58 39.6147C1327.28 39.6147 1326.56 38.9474 1326.56 37.5945V32.3636H1324.16V37.7028C1324.16 39.9214 1325.63 41.4546 1327.84 41.4546C1329.57 41.4546 1330.37 40.7331 1330.75 39.9755H1330.94V41.3103H1333.3Z" fill="white"/>
<path d="M1335.13 32.5079V41.4546H1337.54V36.1155C1337.54 34.8889 1338.15 34.2035 1339.26 34.2035C1340.22 34.2035 1340.79 34.7085 1340.79 35.6826V41.4546H1343.2V36.1155C1343.2 34.8889 1343.81 34.2035 1344.92 34.2035C1345.87 34.2035 1346.45 34.7085 1346.45 35.6826V41.4546H1348.85V35.5743C1348.85 33.4098 1347.44 32.3636 1345.68 32.3636C1344.13 32.3636 1343.43 33.013 1342.97 33.7706H1342.78C1342.34 32.9229 1341.55 32.3636 1340.18 32.3636C1338.8 32.3636 1338.06 32.9408 1337.69 33.6263H1337.5V32.5079H1335.13Z" fill="white"/>
<rect x="1184.5" y="0.5" width="197" height="71" rx="9.5" stroke="#A1AEBF"/>
<path d="M1464.06 46.957C1467.61 43.8624 1469.79 39.6862 1469.79 35.091C1469.79 25.5515 1460.4 17.8182 1448.83 17.8182C1437.25 17.8182 1427.86 25.5515 1427.86 35.091C1427.86 44.6304 1437.25 52.3637 1448.83 52.3637C1452.11 52.3637 1455.22 51.7413 1457.99 50.6318C1461.24 52.5897 1465.22 53.9971 1469.62 53.7002C1467.29 53.1239 1465.3 50.7891 1464.06 46.957Z" fill="#728095"/>
<path d="M1464.2 35.0909C1464.2 42.12 1457.32 47.8182 1448.83 47.8182C1440.34 47.8182 1433.45 42.12 1433.45 35.0909C1433.45 28.0618 1440.34 22.3636 1448.83 22.3636C1457.32 22.3636 1464.2 28.0618 1464.2 35.0909Z" fill="#F7E476"/>
<path d="M1458.61 35.0909C1458.61 39.6096 1454.23 43.2727 1448.83 43.2727C1443.42 43.2727 1439.04 39.6096 1439.04 35.0909C1439.04 30.5721 1443.42 26.9091 1448.83 26.9091C1454.23 26.9091 1458.61 30.5721 1458.61 35.0909Z" fill="#A1AEBF"/>
<rect x="1402.5" y="0.5" width="197" height="71" rx="9.5" stroke="#A1AEBF"/>
<g clip-path="url(#clip0_7_917)">
<path d="M-1.52441 115.21H3.8212L6.20433 132.164H6.27183L8.65589 115.21H14.0006V138.898H10.4596V120.963H10.3921L7.66776 138.898H4.53559L1.81214 120.963H1.74465V138.898H-1.52441V115.21Z" fill="white"/>
</g>
<rect x="-159.5" y="92.5" width="197" height="71" rx="9.5" stroke="#A1AEBF"/>
<path d="M141.283 119.529H138.141V133.621H146.839V130.86H141.283V119.529Z" fill="white"/>
<path d="M147.14 128.841C147.14 131.85 149.171 133.85 152.236 133.85C155.283 133.85 157.314 131.85 157.314 128.841C157.314 125.832 155.283 123.814 152.236 123.814C149.171 123.814 147.14 125.832 147.14 128.841ZM150.109 128.822C150.109 127.394 150.952 126.442 152.236 126.442C153.501 126.442 154.344 127.394 154.344 128.822C154.344 130.269 153.501 131.222 152.236 131.222C150.952 131.222 150.109 130.269 150.109 128.822Z" fill="white"/>
<path d="M157.787 128.689C157.787 131.564 159.665 133.507 162.328 133.507C163.612 133.507 164.723 133.05 165.279 132.307V133.621C165.279 134.935 164.455 135.811 162.999 135.811C161.696 135.811 160.795 135.202 160.738 134.116H157.749C158.017 136.725 160.048 138.477 162.826 138.477C166.103 138.477 168.172 136.364 168.172 133.012V124.099H165.509L165.356 125.071C164.819 124.29 163.689 123.776 162.386 123.776C159.703 123.776 157.787 125.775 157.787 128.689ZM160.776 128.613C160.776 127.242 161.696 126.327 162.865 126.327C164.225 126.327 165.221 127.223 165.221 128.613C165.221 130.003 164.244 130.955 162.884 130.955C161.715 130.955 160.776 130.003 160.776 128.613Z" fill="white"/>
<path d="M169.032 128.841C169.032 131.85 171.063 133.85 174.129 133.85C177.176 133.85 179.206 131.85 179.206 128.841C179.206 125.832 177.176 123.814 174.129 123.814C171.063 123.814 169.032 125.832 169.032 128.841ZM172.002 128.822C172.002 127.394 172.845 126.442 174.129 126.442C175.393 126.442 176.236 127.394 176.236 128.822C176.236 130.269 175.393 131.222 174.129 131.222C172.845 131.222 172.002 130.269 172.002 128.822Z" fill="white"/>
<path d="M181.75 122.614C182.67 122.614 183.417 121.871 183.417 120.938C183.417 120.005 182.67 119.281 181.75 119.281C180.812 119.281 180.064 120.005 180.064 120.938C180.064 121.871 180.812 122.614 181.75 122.614ZM180.256 133.621H183.226V124.099H180.256V133.621Z" fill="white"/>
<path d="M184.954 138.192H187.866V132.669C188.422 133.393 189.687 133.888 191.008 133.888C193.863 133.888 195.587 131.717 195.511 128.708C195.434 125.642 193.652 123.795 190.989 123.795C189.629 123.795 188.345 124.385 187.808 125.261L187.655 124.099H184.954V138.192ZM187.923 128.86C187.923 127.432 188.881 126.48 190.261 126.48C191.659 126.48 192.541 127.451 192.541 128.86C192.541 130.269 191.659 131.241 190.261 131.241C188.881 131.241 187.923 130.288 187.923 128.86Z" fill="white"/>
<path d="M195.825 130.612C195.902 132.536 197.435 133.869 199.849 133.869C202.167 133.869 203.777 132.65 203.777 130.688C203.777 129.279 202.934 128.346 201.362 127.965L199.658 127.546C199.044 127.394 198.661 127.241 198.661 126.746C198.661 126.251 199.063 125.927 199.658 125.927C200.328 125.927 200.768 126.365 200.75 127.013H203.413C203.336 125.032 201.823 123.795 199.715 123.795C197.588 123.795 195.998 125.051 195.998 126.956C195.998 128.232 196.707 129.279 198.603 129.774L200.289 130.212C200.787 130.346 200.998 130.574 200.998 130.898C200.998 131.374 200.558 131.679 199.81 131.679C198.948 131.679 198.488 131.279 198.488 130.612H195.825Z" fill="white"/>
<path d="M208.293 133.869C209.462 133.869 210.631 133.335 211.225 132.555L211.417 133.621H214.195V124.099H211.244V129.051C211.244 130.479 210.823 131.26 209.462 131.26C208.408 131.26 207.718 130.784 207.718 129.013V124.099H204.768V130.079C204.768 132.345 206.032 133.869 208.293 133.869Z" fill="white"/>
<path d="M218.873 133.621V128.422C218.873 126.823 219.736 126.366 220.579 126.366C221.517 126.366 222.131 126.937 222.131 128.118V133.621H225.043V128.422C225.043 126.804 225.886 126.347 226.729 126.347C227.667 126.347 228.3 126.918 228.3 128.118V133.621H231.174V127.394C231.174 125.223 230.024 123.776 227.552 123.776C226.173 123.776 225.043 124.442 224.545 125.47C223.97 124.442 222.974 123.776 221.383 123.776C220.33 123.776 219.352 124.252 218.778 125.013L218.663 124.099H215.903V133.621H218.873Z" fill="white"/>
<path d="M82 128C82 120.296 88.2837 114.05 96.0351 114.05H114.456C122.208 114.05 128.491 120.296 128.491 128V141.95H96.0351C88.2837 141.95 82 135.705 82 128Z" fill="white"/>
<path d="M114.456 119.281H96.0346C91.19 119.281 87.2627 123.185 87.2627 128C87.2627 132.815 91.19 136.719 96.0346 136.719H114.456C119.3 136.719 123.228 132.815 123.228 128C123.228 123.185 119.3 119.281 114.456 119.281Z" fill="#4B5567"/>
<path d="M96.0354 132.359C98.4577 132.359 100.421 130.408 100.421 128C100.421 125.592 98.4577 123.641 96.0354 123.641C93.6131 123.641 91.6494 125.592 91.6494 128C91.6494 130.408 93.6131 132.359 96.0354 132.359Z" fill="white"/>
<path d="M94.2819 127.128C94.7666 127.128 95.1595 126.738 95.1595 126.256C95.1595 125.775 94.7666 125.384 94.2819 125.384C93.7972 125.384 93.4043 125.775 93.4043 126.256C93.4043 126.738 93.7972 127.128 94.2819 127.128Z" fill="#0D0D0D"/>
<path d="M115.334 132.359C117.757 132.359 119.72 130.408 119.72 128C119.72 125.592 117.757 123.641 115.334 123.641C112.912 123.641 110.948 125.592 110.948 128C110.948 130.408 112.912 132.359 115.334 132.359Z" fill="white"/>
<path d="M113.58 127.128C114.064 127.128 114.457 126.738 114.457 126.256C114.457 125.775 114.064 125.384 113.58 125.384C113.095 125.384 112.702 125.775 112.702 126.256C112.702 126.738 113.095 127.128 113.58 127.128Z" fill="#0D0D0D"/>
<rect x="58.5" y="92.5" width="197" height="71" rx="9.5" stroke="#A1AEBF"/>
<path d="M323.47 134.364H331.098L312.201 115.273H304.573L323.47 134.364Z" fill="#728095"/>
<path d="M315.549 115.273L334.756 133.455V115.273H329.558V121.013L323.494 115.273L315.549 115.273Z" fill="#4B5567"/>
<path d="M300.915 116.182V134.364H305.852V128.638L311.612 134.364H319.208L300.915 116.182Z" fill="#A1AEBF"/>
<path d="M361.995 128.592C361.995 129.904 361.699 131.064 361.107 132.072C360.531 133.064 359.747 133.84 358.755 134.4C357.779 134.96 356.683 135.24 355.467 135.24C354.251 135.24 353.147 134.96 352.155 134.4C351.179 133.84 350.395 133.064 349.803 132.072C349.227 131.064 348.939 129.904 348.939 128.592C348.939 127.28 349.227 126.128 349.803 125.136C350.395 124.128 351.179 123.344 352.155 122.784C353.147 122.208 354.251 121.92 355.467 121.92C356.683 121.92 357.779 122.208 358.755 122.784C359.747 123.344 360.531 124.128 361.107 125.136C361.699 126.128 361.995 127.28 361.995 128.592ZM359.115 128.592C359.115 127.776 358.947 127.072 358.611 126.48C358.291 125.872 357.851 125.4 357.291 125.064C356.747 124.728 356.139 124.56 355.467 124.56C354.795 124.56 354.179 124.728 353.619 125.064C353.075 125.4 352.635 125.872 352.299 126.48C351.979 127.072 351.819 127.776 351.819 128.592C351.819 129.392 351.979 130.096 352.299 130.704C352.635 131.296 353.075 131.76 353.619 132.096C354.179 132.432 354.795 132.6 355.467 132.6C356.139 132.6 356.747 132.432 357.291 132.096C357.851 131.76 358.291 131.296 358.611 130.704C358.947 130.096 359.115 129.392 359.115 128.592ZM371.595 117.24C371.947 117.24 372.291 117.288 372.627 117.384C372.963 117.48 373.243 117.64 373.467 117.864C373.691 118.072 373.803 118.352 373.803 118.704C373.803 119.104 373.683 119.424 373.443 119.664C373.219 119.888 372.955 120 372.651 120C372.507 120 372.291 119.968 372.003 119.904C371.715 119.824 371.435 119.784 371.163 119.784C370.763 119.784 370.451 119.872 370.227 120.048C370.019 120.224 369.875 120.432 369.795 120.672C369.715 120.896 369.675 121.096 369.675 121.272V133.536C369.675 133.952 369.539 134.304 369.267 134.592C368.995 134.864 368.651 135 368.235 135C367.819 135 367.475 134.864 367.203 134.592C366.931 134.304 366.795 133.952 366.795 133.536V121.296C366.795 120.16 367.195 119.2 367.995 118.416C368.795 117.632 369.995 117.24 371.595 117.24ZM371.859 122.4C372.243 122.4 372.563 122.528 372.819 122.784C373.075 123.024 373.203 123.336 373.203 123.72C373.203 124.104 373.075 124.424 372.819 124.68C372.563 124.92 372.243 125.04 371.859 125.04H365.499C365.115 125.04 364.795 124.92 364.539 124.68C364.283 124.424 364.155 124.104 364.155 123.72C364.155 123.336 364.283 123.024 364.539 122.784C364.795 122.528 365.115 122.4 365.499 122.4H371.859ZM382.083 117.24C382.435 117.24 382.779 117.288 383.115 117.384C383.451 117.48 383.731 117.64 383.955 117.864C384.179 118.072 384.291 118.352 384.291 118.704C384.291 119.104 384.171 119.424 383.931 119.664C383.707 119.888 383.443 120 383.139 120C382.995 120 382.779 119.968 382.491 119.904C382.203 119.824 381.923 119.784 381.651 119.784C381.251 119.784 380.939 119.872 380.715 120.048C380.507 120.224 380.363 120.432 380.283 120.672C380.203 120.896 380.163 121.096 380.163 121.272V133.536C380.163 133.952 380.027 134.304 379.755 134.592C379.483 134.864 379.139 135 378.723 135C378.307 135 377.963 134.864 377.691 134.592C377.419 134.304 377.283 133.952 377.283 133.536V121.296C377.283 120.16 377.683 119.2 378.483 118.416C379.283 117.632 380.483 117.24 382.083 117.24ZM382.347 122.4C382.731 122.4 383.051 122.528 383.307 122.784C383.563 123.024 383.691 123.336 383.691 123.72C383.691 124.104 383.563 124.424 383.307 124.68C383.051 124.92 382.731 125.04 382.347 125.04H375.987C375.603 125.04 375.283 124.92 375.027 124.68C374.771 124.424 374.643 124.104 374.643 123.72C374.643 123.336 374.771 123.024 375.027 122.784C375.283 122.528 375.603 122.4 375.987 122.4H382.347ZM393.196 121.92C394.476 121.92 395.42 122.232 396.028 122.856C396.636 123.464 397.036 124.256 397.228 125.232L396.82 125.016L397.012 124.632C397.204 124.264 397.5 123.872 397.9 123.456C398.3 123.024 398.78 122.664 399.34 122.376C399.916 122.072 400.556 121.92 401.26 121.92C402.412 121.92 403.284 122.168 403.876 122.664C404.484 123.16 404.9 123.824 405.124 124.656C405.348 125.472 405.46 126.384 405.46 127.392V133.536C405.46 133.952 405.324 134.304 405.052 134.592C404.78 134.864 404.436 135 404.02 135C403.604 135 403.26 134.864 402.988 134.592C402.716 134.304 402.58 133.952 402.58 133.536V127.392C402.58 126.864 402.516 126.392 402.388 125.976C402.26 125.544 402.028 125.2 401.692 124.944C401.356 124.688 400.876 124.56 400.252 124.56C399.644 124.56 399.124 124.688 398.692 124.944C398.26 125.2 397.932 125.544 397.708 125.976C397.5 126.392 397.396 126.864 397.396 127.392V133.536C397.396 133.952 397.26 134.304 396.988 134.592C396.716 134.864 396.372 135 395.956 135C395.54 135 395.196 134.864 394.924 134.592C394.652 134.304 394.516 133.952 394.516 133.536V127.392C394.516 126.864 394.452 126.392 394.324 125.976C394.196 125.544 393.964 125.2 393.628 124.944C393.292 124.688 392.812 124.56 392.188 124.56C391.58 124.56 391.06 124.688 390.628 124.944C390.196 125.2 389.868 125.544 389.644 125.976C389.436 126.392 389.332 126.864 389.332 127.392V133.536C389.332 133.952 389.196 134.304 388.924 134.592C388.652 134.864 388.308 135 387.892 135C387.476 135 387.132 134.864 386.86 134.592C386.588 134.304 386.452 133.952 386.452 133.536V123.624C386.452 123.208 386.588 122.864 386.86 122.592C387.132 122.304 387.476 122.16 387.892 122.16C388.308 122.16 388.652 122.304 388.924 122.592C389.196 122.864 389.332 123.208 389.332 123.624V124.656L388.972 124.584C389.116 124.312 389.316 124.024 389.572 123.72C389.828 123.4 390.14 123.104 390.508 122.832C390.876 122.56 391.284 122.344 391.732 122.184C392.18 122.008 392.668 121.92 393.196 121.92ZM419.569 121.92C419.985 121.92 420.329 122.056 420.601 122.328C420.873 122.6 421.009 122.952 421.009 123.384V133.536C421.009 133.952 420.873 134.304 420.601 134.592C420.329 134.864 419.985 135 419.569 135C419.153 135 418.809 134.864 418.537 134.592C418.265 134.304 418.129 133.952 418.129 133.536V132.36L418.657 132.576C418.657 132.784 418.545 133.04 418.321 133.344C418.097 133.632 417.793 133.92 417.409 134.208C417.025 134.496 416.569 134.744 416.041 134.952C415.529 135.144 414.969 135.24 414.361 135.24C413.257 135.24 412.257 134.96 411.361 134.4C410.465 133.824 409.753 133.04 409.225 132.048C408.713 131.04 408.457 129.888 408.457 128.592C408.457 127.28 408.713 126.128 409.225 125.136C409.753 124.128 410.457 123.344 411.337 122.784C412.217 122.208 413.193 121.92 414.265 121.92C414.953 121.92 415.585 122.024 416.161 122.232C416.737 122.44 417.233 122.704 417.649 123.024C418.081 123.344 418.409 123.672 418.633 124.008C418.873 124.328 418.993 124.6 418.993 124.824L418.129 125.136V123.384C418.129 122.968 418.265 122.624 418.537 122.352C418.809 122.064 419.153 121.92 419.569 121.92ZM414.721 132.6C415.425 132.6 416.041 132.424 416.569 132.072C417.097 131.72 417.505 131.24 417.793 130.632C418.097 130.024 418.249 129.344 418.249 128.592C418.249 127.824 418.097 127.136 417.793 126.528C417.505 125.92 417.097 125.44 416.569 125.088C416.041 124.736 415.425 124.56 414.721 124.56C414.033 124.56 413.425 124.736 412.897 125.088C412.369 125.44 411.953 125.92 411.649 126.528C411.361 127.136 411.217 127.824 411.217 128.592C411.217 129.344 411.361 130.024 411.649 130.632C411.953 131.24 412.369 131.72 412.897 132.072C413.425 132.424 414.033 132.6 414.721 132.6ZM424.871 122.16C425.335 122.16 425.727 122.36 426.047 122.76L434.063 132.72C434.271 132.976 434.375 133.264 434.375 133.584C434.375 133.984 434.223 134.328 433.919 134.616C433.615 134.904 433.279 135.048 432.911 135.048C432.447 135.048 432.055 134.84 431.735 134.424L423.719 124.464C423.511 124.208 423.407 123.92 423.407 123.6C423.407 123.184 423.551 122.84 423.839 122.568C424.143 122.296 424.487 122.16 424.871 122.16ZM424.895 135.024C424.575 135.024 424.255 134.904 423.935 134.664C423.631 134.408 423.479 134.104 423.479 133.752C423.479 133.432 423.599 133.128 423.839 132.84L427.511 128.352L428.951 130.752L426.047 134.424C425.743 134.824 425.359 135.024 424.895 135.024ZM432.887 122.16C433.271 122.16 433.591 122.296 433.847 122.568C434.119 122.824 434.255 123.12 434.255 123.456C434.255 123.616 434.231 123.776 434.183 123.936C434.135 124.096 434.047 124.248 433.919 124.392L430.295 128.808L428.783 126.72L431.735 122.808C432.055 122.376 432.439 122.16 432.887 122.16Z" fill="white"/>
<rect x="276.5" y="92.5" width="197" height="71" rx="9.5" stroke="#A1AEBF"/>
<path d="M545.756 108L518 131.14H536.741L529.243 147.976L557.244 124.991H537.724L545.756 108Z" fill="#728095"/>
<path d="M545.756 108L533.219 126.682H551.847L529.243 147.976L557.244 124.991H537.725L545.756 108Z" fill="#4B5567"/>
<path d="M545.756 108L518 131.14H536.741L529.243 147.976L541.154 129.449H523.542L545.756 108Z" fill="#A1AEBF"/>
<path d="M579.995 128.592C579.995 129.904 579.699 131.064 579.107 132.072C578.531 133.064 577.747 133.84 576.755 134.4C575.779 134.96 574.683 135.24 573.467 135.24C572.251 135.24 571.147 134.96 570.155 134.4C569.179 133.84 568.395 133.064 567.803 132.072C567.227 131.064 566.939 129.904 566.939 128.592C566.939 127.28 567.227 126.128 567.803 125.136C568.395 124.128 569.179 123.344 570.155 122.784C571.147 122.208 572.251 121.92 573.467 121.92C574.683 121.92 575.779 122.208 576.755 122.784C577.747 123.344 578.531 124.128 579.107 125.136C579.699 126.128 579.995 127.28 579.995 128.592ZM577.115 128.592C577.115 127.776 576.947 127.072 576.611 126.48C576.291 125.872 575.851 125.4 575.291 125.064C574.747 124.728 574.139 124.56 573.467 124.56C572.795 124.56 572.179 124.728 571.619 125.064C571.075 125.4 570.635 125.872 570.299 126.48C569.979 127.072 569.819 127.776 569.819 128.592C569.819 129.392 569.979 130.096 570.299 130.704C570.635 131.296 571.075 131.76 571.619 132.096C572.179 132.432 572.795 132.6 573.467 132.6C574.139 132.6 574.747 132.432 575.291 132.096C575.851 131.76 576.291 131.296 576.611 130.704C576.947 130.096 577.115 129.392 577.115 128.592ZM589.595 117.24C589.947 117.24 590.291 117.288 590.627 117.384C590.963 117.48 591.243 117.64 591.467 117.864C591.691 118.072 591.803 118.352 591.803 118.704C591.803 119.104 591.683 119.424 591.443 119.664C591.219 119.888 590.955 120 590.651 120C590.507 120 590.291 119.968 590.003 119.904C589.715 119.824 589.435 119.784 589.163 119.784C588.763 119.784 588.451 119.872 588.227 120.048C588.019 120.224 587.875 120.432 587.795 120.672C587.715 120.896 587.675 121.096 587.675 121.272V133.536C587.675 133.952 587.539 134.304 587.267 134.592C586.995 134.864 586.651 135 586.235 135C585.819 135 585.475 134.864 585.203 134.592C584.931 134.304 584.795 133.952 584.795 133.536V121.296C584.795 120.16 585.195 119.2 585.995 118.416C586.795 117.632 587.995 117.24 589.595 117.24ZM589.859 122.4C590.243 122.4 590.563 122.528 590.819 122.784C591.075 123.024 591.203 123.336 591.203 123.72C591.203 124.104 591.075 124.424 590.819 124.68C590.563 124.92 590.243 125.04 589.859 125.04H583.499C583.115 125.04 582.795 124.92 582.539 124.68C582.283 124.424 582.155 124.104 582.155 123.72C582.155 123.336 582.283 123.024 582.539 122.784C582.795 122.528 583.115 122.4 583.499 122.4H589.859ZM600.083 117.24C600.435 117.24 600.779 117.288 601.115 117.384C601.451 117.48 601.731 117.64 601.955 117.864C602.179 118.072 602.291 118.352 602.291 118.704C602.291 119.104 602.171 119.424 601.931 119.664C601.707 119.888 601.443 120 601.139 120C600.995 120 600.779 119.968 600.491 119.904C600.203 119.824 599.923 119.784 599.651 119.784C599.251 119.784 598.939 119.872 598.715 120.048C598.507 120.224 598.363 120.432 598.283 120.672C598.203 120.896 598.163 121.096 598.163 121.272V133.536C598.163 133.952 598.027 134.304 597.755 134.592C597.483 134.864 597.139 135 596.723 135C596.307 135 595.963 134.864 595.691 134.592C595.419 134.304 595.283 133.952 595.283 133.536V121.296C595.283 120.16 595.683 119.2 596.483 118.416C597.283 117.632 598.483 117.24 600.083 117.24ZM600.347 122.4C600.731 122.4 601.051 122.528 601.307 122.784C601.563 123.024 601.691 123.336 601.691 123.72C601.691 124.104 601.563 124.424 601.307 124.68C601.051 124.92 600.731 125.04 600.347 125.04H593.987C593.603 125.04 593.283 124.92 593.027 124.68C592.771 124.424 592.643 124.104 592.643 123.72C592.643 123.336 592.771 123.024 593.027 122.784C593.283 122.528 593.603 122.4 593.987 122.4H600.347ZM611.196 121.92C612.476 121.92 613.42 122.232 614.028 122.856C614.636 123.464 615.036 124.256 615.228 125.232L614.82 125.016L615.012 124.632C615.204 124.264 615.5 123.872 615.9 123.456C616.3 123.024 616.78 122.664 617.34 122.376C617.916 122.072 618.556 121.92 619.26 121.92C620.412 121.92 621.284 122.168 621.876 122.664C622.484 123.16 622.9 123.824 623.124 124.656C623.348 125.472 623.46 126.384 623.46 127.392V133.536C623.46 133.952 623.324 134.304 623.052 134.592C622.78 134.864 622.436 135 622.02 135C621.604 135 621.26 134.864 620.988 134.592C620.716 134.304 620.58 133.952 620.58 133.536V127.392C620.58 126.864 620.516 126.392 620.388 125.976C620.26 125.544 620.028 125.2 619.692 124.944C619.356 124.688 618.876 124.56 618.252 124.56C617.644 124.56 617.124 124.688 616.692 124.944C616.26 125.2 615.932 125.544 615.708 125.976C615.5 126.392 615.396 126.864 615.396 127.392V133.536C615.396 133.952 615.26 134.304 614.988 134.592C614.716 134.864 614.372 135 613.956 135C613.54 135 613.196 134.864 612.924 134.592C612.652 134.304 612.516 133.952 612.516 133.536V127.392C612.516 126.864 612.452 126.392 612.324 125.976C612.196 125.544 611.964 125.2 611.628 124.944C611.292 124.688 610.812 124.56 610.188 124.56C609.58 124.56 609.06 124.688 608.628 124.944C608.196 125.2 607.868 125.544 607.644 125.976C607.436 126.392 607.332 126.864 607.332 127.392V133.536C607.332 133.952 607.196 134.304 606.924 134.592C606.652 134.864 606.308 135 605.892 135C605.476 135 605.132 134.864 604.86 134.592C604.588 134.304 604.452 133.952 604.452 133.536V123.624C604.452 123.208 604.588 122.864 604.86 122.592C605.132 122.304 605.476 122.16 605.892 122.16C606.308 122.16 606.652 122.304 606.924 122.592C607.196 122.864 607.332 123.208 607.332 123.624V124.656L606.972 124.584C607.116 124.312 607.316 124.024 607.572 123.72C607.828 123.4 608.14 123.104 608.508 122.832C608.876 122.56 609.284 122.344 609.732 122.184C610.18 122.008 610.668 121.92 611.196 121.92ZM637.569 121.92C637.985 121.92 638.329 122.056 638.601 122.328C638.873 122.6 639.009 122.952 639.009 123.384V133.536C639.009 133.952 638.873 134.304 638.601 134.592C638.329 134.864 637.985 135 637.569 135C637.153 135 636.809 134.864 636.537 134.592C636.265 134.304 636.129 133.952 636.129 133.536V132.36L636.657 132.576C636.657 132.784 636.545 133.04 636.321 133.344C636.097 133.632 635.793 133.92 635.409 134.208C635.025 134.496 634.569 134.744 634.041 134.952C633.529 135.144 632.969 135.24 632.361 135.24C631.257 135.24 630.257 134.96 629.361 134.4C628.465 133.824 627.753 133.04 627.225 132.048C626.713 131.04 626.457 129.888 626.457 128.592C626.457 127.28 626.713 126.128 627.225 125.136C627.753 124.128 628.457 123.344 629.337 122.784C630.217 122.208 631.193 121.92 632.265 121.92C632.953 121.92 633.585 122.024 634.161 122.232C634.737 122.44 635.233 122.704 635.649 123.024C636.081 123.344 636.409 123.672 636.633 124.008C636.873 124.328 636.993 124.6 636.993 124.824L636.129 125.136V123.384C636.129 122.968 636.265 122.624 636.537 122.352C636.809 122.064 637.153 121.92 637.569 121.92ZM632.721 132.6C633.425 132.6 634.041 132.424 634.569 132.072C635.097 131.72 635.505 131.24 635.793 130.632C636.097 130.024 636.249 129.344 636.249 128.592C636.249 127.824 636.097 127.136 635.793 126.528C635.505 125.92 635.097 125.44 634.569 125.088C634.041 124.736 633.425 124.56 632.721 124.56C632.033 124.56 631.425 124.736 630.897 125.088C630.369 125.44 629.953 125.92 629.649 126.528C629.361 127.136 629.217 127.824 629.217 128.592C629.217 129.344 629.361 130.024 629.649 130.632C629.953 131.24 630.369 131.72 630.897 132.072C631.425 132.424 632.033 132.6 632.721 132.6ZM642.871 122.16C643.335 122.16 643.727 122.36 644.047 122.76L652.063 132.72C652.271 132.976 652.375 133.264 652.375 133.584C652.375 133.984 652.223 134.328 651.919 134.616C651.615 134.904 651.279 135.048 650.911 135.048C650.447 135.048 650.055 134.84 649.735 134.424L641.719 124.464C641.511 124.208 641.407 123.92 641.407 123.6C641.407 123.184 641.551 122.84 641.839 122.568C642.143 122.296 642.487 122.16 642.871 122.16ZM642.895 135.024C642.575 135.024 642.255 134.904 641.935 134.664C641.631 134.408 641.479 134.104 641.479 133.752C641.479 133.432 641.599 133.128 641.839 132.84L645.511 128.352L646.951 130.752L644.047 134.424C643.743 134.824 643.359 135.024 642.895 135.024ZM650.887 122.16C651.271 122.16 651.591 122.296 651.847 122.568C652.119 122.824 652.255 123.12 652.255 123.456C652.255 123.616 652.231 123.776 652.183 123.936C652.135 124.096 652.047 124.248 651.919 124.392L648.295 128.808L646.783 126.72L649.735 122.808C650.055 122.376 650.439 122.16 650.887 122.16Z" fill="white"/>
<rect x="494.5" y="92.5" width="197" height="71" rx="9.5" stroke="#A1AEBF"/>
<path d="M763.801 125.017C766.688 125.017 767.338 126.256 767.338 127.802C767.338 129.44 766.552 130.614 763.813 130.614C761.091 130.614 760.304 129.508 760.304 127.802C760.304 126.123 761.161 125.017 763.801 125.017Z" fill="white"/>
<path d="M793.979 125.017C796.867 125.017 797.517 126.256 797.517 127.802C797.517 129.44 796.73 130.614 793.991 130.614C791.27 130.614 790.482 129.508 790.482 127.802C790.482 126.123 791.34 125.017 793.979 125.017Z" fill="white"/>
<path fill-rule="evenodd" clip-rule="evenodd" d="M738.233 143.909V111.679H884.164V143.909H738.233ZM807.784 142.091H882.324V113.497H807.784V142.091ZM763.815 133.357C768.941 133.357 771.097 131.173 771.097 127.761C771.097 124.294 768.669 122.233 763.815 122.233C759.035 122.233 756.519 124.471 756.519 127.761C756.519 131.474 759.158 133.357 763.815 133.357ZM745.99 122.478V133.194H756.338V130.34H749.734V122.478H745.99ZM782.677 133.194L782.58 132.155C781.328 133.038 779.804 133.463 778.269 133.357C775.962 133.357 774.04 132.675 772.963 131.296C772.252 130.29 771.893 129.082 771.94 127.856C771.9 126.656 772.271 125.478 772.994 124.512C774.085 123.175 776.061 122.287 779.004 122.287C782.39 122.287 784.379 123.311 785.235 125.031C785.419 125.436 785.527 125.871 785.554 126.314H781.972C781.882 126.044 781.714 125.807 781.489 125.631C780.775 125.164 779.923 124.948 779.07 125.017C778.57 124.957 778.062 125.003 777.581 125.151C777.1 125.3 776.656 125.547 776.279 125.877C775.851 126.456 775.65 127.169 775.713 127.884C775.664 128.565 775.849 129.243 776.238 129.808C776.618 130.158 777.071 130.424 777.564 130.586C778.058 130.749 778.581 130.805 779.098 130.75C780.125 130.833 781.145 130.52 781.944 129.876C782.116 129.664 782.234 129.415 782.289 129.149H778.435V126.846H785.647V133.194H782.677ZM793.993 133.357C799.119 133.357 801.275 131.173 801.275 127.761C801.275 124.294 798.844 122.233 793.993 122.233C789.213 122.233 786.697 124.471 786.697 127.761C786.697 131.474 789.337 133.357 793.993 133.357Z" fill="white"/>
<path d="M814.09 133.153V122.437H816.759V133.153H814.09Z" fill="white"/>
<path d="M830.462 128.675C829.786 129.549 828.621 129.948 826.981 129.958C826.635 129.958 822.047 129.944 822.047 129.944V133.153H819.436V122.437H826.982C827.586 122.374 828.198 122.437 828.776 122.623C829.355 122.809 829.887 123.113 830.339 123.515C830.935 124.283 831.225 125.24 831.154 126.204C831.215 127.082 830.971 127.954 830.462 128.675ZM828.321 125.182C828.044 124.773 827.449 124.545 826.441 124.545H822.033V127.807H826.413C827.49 127.807 828.058 127.589 828.321 127.165C828.476 126.867 828.543 126.531 828.514 126.196C828.537 125.847 828.471 125.498 828.321 125.182Z" fill="white"/>
<path d="M838.85 133.316C833.93 133.316 832.425 131.498 832.425 129.699H835.216C835.216 130.586 836.445 131.255 838.974 131.255C841.488 131.255 842.152 130.818 842.152 130.108C842.152 129.316 841.655 129.071 839.319 128.812C838.859 128.771 837.607 128.621 837.136 128.553C833.824 128.184 832.548 127.215 832.548 125.481C832.548 123.652 834.414 122.274 838.463 122.274C842.857 122.274 844.543 123.98 844.543 125.755H841.782C841.782 124.854 840.746 124.335 838.3 124.335C835.785 124.335 835.246 124.675 835.246 125.345C835.246 126.041 835.798 126.259 838.467 126.573C839.075 126.655 840.429 126.805 840.802 126.845C843.621 127.132 844.892 128.142 844.892 129.93C844.888 132.06 842.953 133.316 838.85 133.316Z" fill="white"/>
<path d="M852.752 133.303C849.146 133.303 846.797 131.896 846.797 128.939V122.437H849.435V128.975C849.435 130.327 850.555 131.227 852.862 131.227C854.948 131.227 856.193 130.382 856.193 128.975V122.437H858.804V129.182C858.804 131.87 856.62 133.303 852.752 133.303Z" fill="white"/>
<path d="M873.104 133.153V126L869.719 133.153H867.15L863.861 126V133.153H861.376V122.437H864.742L868.473 130.6L872.286 122.437H875.599V133.153H873.104Z" fill="white"/>
<rect x="712.5" y="92.5" width="197" height="71" rx="9.5" stroke="#A1AEBF"/>
<path d="M1028.7 134.288H1023.64V120.862H1028.7V134.288ZM1024.14 133.797H1028.2V121.352H1024.14V133.797ZM1035.73 134.288H1030.78V120.862H1041.12C1042.6 120.743 1044.08 121.156 1045.28 122.027C1045.8 122.497 1046.2 123.08 1046.45 123.729C1046.7 124.379 1046.8 125.077 1046.74 125.771C1046.81 126.97 1046.43 128.152 1045.66 129.081C1044.76 130.113 1043.25 130.645 1041.19 130.664C1040.67 130.677 1036.77 130.664 1035.73 130.664L1035.73 134.288ZM1031.27 133.797H1035.23V130.168H1035.48C1035.53 130.168 1040.59 130.184 1041.18 130.168C1043.1 130.152 1044.48 129.678 1045.29 128.753C1045.97 127.912 1046.31 126.847 1046.24 125.77C1046.3 125.149 1046.21 124.522 1045.99 123.938C1045.77 123.354 1045.41 122.828 1044.95 122.403C1043.84 121.608 1042.48 121.235 1041.11 121.351H1031.27L1031.27 133.797ZM1040.07 127.647H1035.2V123.993H1040.1C1040.45 123.945 1040.81 123.985 1041.13 124.11C1041.46 124.235 1041.75 124.44 1041.98 124.706C1042.18 125.046 1042.28 125.44 1042.26 125.837C1042.28 126.205 1042.2 126.571 1042.03 126.898C1041.79 127.178 1041.49 127.394 1041.15 127.525C1040.8 127.655 1040.43 127.696 1040.07 127.644V127.647ZM1035.69 127.157H1040.07C1040.88 127.157 1041.38 126.989 1041.6 126.644C1041.73 126.393 1041.78 126.115 1041.77 125.837C1041.79 125.545 1041.72 125.252 1041.58 124.995L1041.58 124.986C1041.34 124.643 1040.87 124.483 1040.1 124.483H1035.69V127.157ZM1055.74 134.486C1051.31 134.486 1048.67 133.392 1047.66 131.143C1047.49 130.709 1047.38 130.256 1047.33 129.796L1047.28 129.513H1052.55L1052.59 129.719C1052.63 129.928 1052.72 130.125 1052.85 130.294C1053.06 130.544 1053.75 130.964 1056.06 130.964C1058.83 130.964 1058.83 130.48 1058.83 130.22C1058.83 129.782 1058.51 129.632 1056.25 129.392L1055.82 129.352C1054.97 129.273 1053.89 129.172 1053.4 129.13C1049.26 128.757 1047.41 127.477 1047.41 124.98C1047.41 122.359 1050.55 120.665 1055.43 120.665C1059.4 120.665 1061.97 121.706 1063.04 123.763C1063.3 124.242 1063.47 124.76 1063.55 125.295L1063.58 125.571H1058.3L1058.28 125.349C1058.26 125.176 1058.19 125.014 1058.07 124.884C1057.87 124.621 1057.25 124.187 1055.31 124.187C1052.94 124.187 1052.61 124.489 1052.61 124.815C1052.61 125.249 1053.36 125.403 1055.77 125.659C1056.77 125.741 1058.38 125.905 1058.94 125.972C1062.41 126.347 1063.96 127.595 1063.96 130.022C1063.96 132.057 1062.54 134.486 1055.74 134.486ZM1047.86 130.003C1047.91 130.327 1047.99 130.644 1048.11 130.949C1049.03 132.998 1051.53 133.996 1055.74 133.996C1059.27 133.996 1063.47 133.309 1063.47 130.022C1063.47 127.871 1062.1 126.806 1058.88 126.46C1058.33 126.393 1056.73 126.229 1055.72 126.147C1053.16 125.87 1052.12 125.723 1052.12 124.815C1052.12 123.875 1053.24 123.697 1055.31 123.697C1056.95 123.697 1058.01 123.991 1058.46 124.584C1058.58 124.73 1058.68 124.899 1058.73 125.081H1063.01C1062.92 124.701 1062.79 124.335 1062.61 123.991C1061.62 122.109 1059.21 121.155 1055.43 121.155C1050.86 121.155 1047.9 122.657 1047.9 124.98C1047.9 127.197 1049.56 128.292 1053.45 128.641C1053.94 128.683 1055.01 128.784 1055.87 128.865L1056.3 128.905C1058.4 129.125 1059.32 129.262 1059.32 130.22C1059.32 131.252 1058.13 131.454 1056.06 131.454C1054.15 131.454 1052.94 131.169 1052.47 130.607C1052.33 130.427 1052.22 130.223 1052.15 130.003H1047.86ZM1073.34 134.469C1068.18 134.469 1065.34 132.399 1065.34 128.638V120.862H1070.33V128.638C1070.33 129.928 1071.49 130.667 1073.51 130.667C1075.45 130.667 1076.65 129.896 1076.65 128.655V120.862H1081.58V129.05C1081.59 132.494 1078.58 134.469 1073.33 134.469H1073.34ZM1065.84 121.352V128.638C1065.84 133.285 1070.53 133.979 1073.34 133.979C1076.23 133.979 1081.1 133.338 1081.1 129.05V121.352H1077.15V128.655C1077.15 130.175 1075.72 131.158 1073.52 131.158C1071.22 131.158 1069.84 130.216 1069.84 128.638V121.352H1065.84ZM1102.49 134.288H1097.79V128.226L1095.12 134.288H1091.01L1088.37 128.238V134.288H1083.65V120.862H1089.86L1093.09 128.264L1096.47 120.862H1102.5L1102.49 134.288ZM1098.28 133.797H1102V121.352H1096.79L1093.07 129.473L1089.53 121.352H1084.14V133.797H1087.88V125.878L1091.33 133.8H1094.78L1098.27 125.89L1098.28 133.797ZM959.974 121.107H955.479V134.043H967.898V130.599H959.974V121.107ZM976.969 120.813C971.232 120.813 968.216 123.515 968.216 127.483C968.216 131.965 971.382 134.239 976.969 134.239C983.119 134.239 985.705 131.602 985.705 127.483C985.705 123.299 982.787 120.811 976.969 120.811V120.813ZM976.952 124.174C977.343 124.172 977.733 124.195 978.121 124.242L973.097 129.235C972.859 128.701 972.743 128.121 972.757 127.537C972.757 125.507 973.785 124.172 976.952 124.172V124.174ZM976.969 130.93C976.593 130.932 976.217 130.911 975.843 130.868L980.876 125.865C981.105 126.391 981.214 126.96 981.197 127.533C981.197 129.507 980.249 130.928 976.969 130.928V130.93ZM994.61 129.165H999.235C999.167 129.484 999.025 129.783 998.821 130.038C997.862 130.814 996.638 131.192 995.405 131.092C994.785 131.158 994.157 131.091 993.565 130.895C992.973 130.699 992.43 130.378 991.974 129.955C991.506 129.274 991.284 128.455 991.343 127.632C991.268 126.769 991.509 125.909 992.023 125.21C992.67 124.484 993.764 124.171 995.373 124.171C996.396 124.087 997.418 124.348 998.274 124.913C998.544 125.126 998.745 125.412 998.854 125.737H1003.14C1003.11 125.202 1002.98 124.677 1002.76 124.188C1001.73 122.111 999.347 120.876 995.286 120.876C991.754 120.876 989.383 121.947 988.074 123.562C987.209 124.729 986.765 126.151 986.814 127.599C986.758 129.08 987.19 130.539 988.045 131.753C989.339 133.421 991.643 134.241 994.412 134.241C996.253 134.368 998.082 133.856 999.584 132.791L999.701 134.043H1003.26V126.38H994.61V129.165ZM1013.38 120.81C1007.64 120.81 1004.63 123.512 1004.63 127.48C1004.63 131.962 1007.79 134.236 1013.38 134.236C1019.53 134.236 1022.12 131.599 1022.12 127.48C1022.12 123.299 1019.2 120.811 1013.38 120.811V120.81ZM1013.36 124.171C1013.74 124.17 1014.12 124.192 1014.5 124.236L1009.5 129.213C1009.27 128.684 1009.15 128.112 1009.17 127.537C1009.16 125.507 1010.2 124.172 1013.36 124.172V124.171ZM1013.38 130.927C1012.99 130.929 1012.61 130.907 1012.22 130.861L1017.27 125.841C1017.51 126.373 1017.62 126.952 1017.61 127.535C1017.61 129.507 1016.66 130.928 1013.38 130.928V130.927Z" fill="white"/>
<rect x="930.5" y="92.5" width="197" height="71" rx="9.5" stroke="#A1AEBF"/>
<path d="M1182.11 136.509C1179.22 139.381 1174.33 139.37 1172.96 135.542C1172.69 134.792 1172.48 134.021 1172.32 133.235C1171.68 130.024 1172.01 126.696 1173.27 123.672C1174.53 120.648 1176.66 118.063 1179.4 116.244C1182.14 114.425 1185.36 113.455 1188.65 113.455C1191.95 113.455 1195.17 114.425 1197.9 116.244C1200.64 118.063 1202.78 120.648 1204.04 123.672C1205.3 126.696 1205.63 130.024 1204.98 133.235C1204.83 134.021 1204.61 134.792 1204.35 135.542C1202.98 139.37 1198.08 139.381 1195.19 136.509L1190.73 132.075C1190.31 131.651 1190.35 130.953 1190.47 130.365C1190.54 130.008 1190.5 129.638 1190.36 129.301C1190.22 128.965 1189.99 128.677 1189.68 128.475C1189.38 128.273 1189.02 128.165 1188.65 128.165C1188.29 128.165 1187.93 128.273 1187.62 128.475C1187.32 128.677 1187.08 128.965 1186.94 129.301C1186.8 129.638 1186.76 130.008 1186.84 130.365C1186.95 130.953 1187 131.651 1186.57 132.075L1182.11 136.509Z" fill="#728095"/>
<path d="M1218.85 132.535H1223.33V135.157H1215.44V121.214H1218.85V132.535Z" fill="white"/>
<path d="M1229.43 135.316C1228.34 135.316 1227.36 135.084 1226.48 134.621C1225.61 134.157 1224.93 133.495 1224.42 132.634C1223.93 131.774 1223.68 130.767 1223.68 129.615C1223.68 128.477 1223.93 127.477 1224.44 126.616C1224.95 125.742 1225.64 125.074 1226.52 124.61C1227.4 124.147 1228.38 123.915 1229.47 123.915C1230.57 123.915 1231.55 124.147 1232.43 124.61C1233.31 125.074 1234 125.742 1234.51 126.616C1235.02 127.477 1235.27 128.477 1235.27 129.615C1235.27 130.754 1235.01 131.76 1234.49 132.634C1233.98 133.495 1233.28 134.157 1232.39 134.621C1231.51 135.084 1230.53 135.316 1229.43 135.316ZM1229.43 132.376C1230.09 132.376 1230.64 132.138 1231.09 131.661C1231.56 131.184 1231.79 130.503 1231.79 129.615C1231.79 128.728 1231.57 128.046 1231.11 127.57C1230.67 127.093 1230.13 126.855 1229.47 126.855C1228.81 126.855 1228.26 127.093 1227.82 127.57C1227.38 128.033 1227.16 128.715 1227.16 129.615C1227.16 130.503 1227.37 131.184 1227.8 131.661C1228.24 132.138 1228.78 132.376 1229.43 132.376Z" fill="white"/>
<path d="M1240.72 123.915C1241.51 123.915 1242.19 124.074 1242.78 124.392C1243.38 124.709 1243.84 125.127 1244.16 125.643V124.074H1247.57V135.137C1247.57 136.156 1247.37 137.077 1246.95 137.898C1246.55 138.732 1245.94 139.394 1245.1 139.884C1244.27 140.374 1243.24 140.619 1242 140.619C1240.35 140.619 1239.01 140.228 1237.98 139.447C1236.96 138.679 1236.37 137.633 1236.22 136.309H1239.6C1239.71 136.732 1239.96 137.064 1240.36 137.302C1240.76 137.553 1241.25 137.679 1241.84 137.679C1242.54 137.679 1243.1 137.474 1243.52 137.064C1243.94 136.666 1244.16 136.024 1244.16 135.137V133.568C1243.82 134.084 1243.36 134.508 1242.78 134.839C1242.19 135.157 1241.51 135.316 1240.72 135.316C1239.8 135.316 1238.97 135.084 1238.22 134.621C1237.48 134.144 1236.88 133.475 1236.44 132.614C1236.02 131.741 1235.8 130.734 1235.8 129.595C1235.8 128.457 1236.02 127.457 1236.44 126.596C1236.88 125.736 1237.48 125.074 1238.22 124.61C1238.97 124.147 1239.8 123.915 1240.72 123.915ZM1244.16 129.615C1244.16 128.768 1243.92 128.099 1243.44 127.609C1242.97 127.119 1242.4 126.874 1241.72 126.874C1241.04 126.874 1240.46 127.119 1239.98 127.609C1239.51 128.086 1239.28 128.748 1239.28 129.595C1239.28 130.443 1239.51 131.118 1239.98 131.621C1240.46 132.111 1241.04 132.356 1241.72 132.356C1242.4 132.356 1242.97 132.111 1243.44 131.621C1243.92 131.131 1244.16 130.463 1244.16 129.615Z" fill="white"/>
<path d="M1254.52 135.316C1253.43 135.316 1252.44 135.084 1251.56 134.621C1250.7 134.157 1250.01 133.495 1249.51 132.634C1249.01 131.774 1248.77 130.767 1248.77 129.615C1248.77 128.477 1249.02 127.477 1249.53 126.616C1250.03 125.742 1250.72 125.074 1251.6 124.61C1252.48 124.147 1253.47 123.915 1254.56 123.915C1255.65 123.915 1256.64 124.147 1257.52 124.61C1258.4 125.074 1259.09 125.742 1259.6 126.616C1260.1 127.477 1260.36 128.477 1260.36 129.615C1260.36 130.754 1260.1 131.76 1259.58 132.634C1259.07 133.495 1258.37 134.157 1257.48 134.621C1256.6 135.084 1255.61 135.316 1254.52 135.316ZM1254.52 132.376C1255.17 132.376 1255.73 132.138 1256.18 131.661C1256.65 131.184 1256.88 130.503 1256.88 129.615C1256.88 128.728 1256.65 128.046 1256.2 127.57C1255.76 127.093 1255.21 126.855 1254.56 126.855C1253.9 126.855 1253.34 127.093 1252.9 127.57C1252.46 128.033 1252.24 128.715 1252.24 129.615C1252.24 130.503 1252.46 131.184 1252.88 131.661C1253.32 132.138 1253.87 132.376 1254.52 132.376Z" fill="white"/>
<path d="M1263.29 122.922C1262.69 122.922 1262.2 122.75 1261.81 122.406C1261.44 122.048 1261.25 121.611 1261.25 121.095C1261.25 120.565 1261.44 120.128 1261.81 119.784C1262.2 119.426 1262.69 119.248 1263.29 119.248C1263.88 119.248 1264.36 119.426 1264.73 119.784C1265.11 120.128 1265.31 120.565 1265.31 121.095C1265.31 121.611 1265.11 122.048 1264.73 122.406C1264.36 122.75 1263.88 122.922 1263.29 122.922ZM1264.99 124.074V135.157H1261.57V124.074H1264.99Z" fill="white"/>
<path d="M1270.28 125.643C1270.61 125.127 1271.07 124.709 1271.66 124.392C1272.25 124.074 1272.93 123.915 1273.72 123.915C1274.64 123.915 1275.47 124.147 1276.22 124.61C1276.96 125.074 1277.55 125.736 1277.97 126.596C1278.41 127.457 1278.63 128.457 1278.63 129.595C1278.63 130.734 1278.41 131.741 1277.97 132.614C1277.55 133.475 1276.96 134.144 1276.22 134.621C1275.47 135.084 1274.64 135.316 1273.72 135.316C1272.95 135.316 1272.26 135.157 1271.66 134.839C1271.07 134.521 1270.61 134.111 1270.28 133.608V140.44H1266.86V124.074H1270.28V125.643ZM1275.16 129.595C1275.16 128.748 1274.92 128.086 1274.44 127.609C1273.97 127.119 1273.39 126.874 1272.7 126.874C1272.02 126.874 1271.44 127.119 1270.96 127.609C1270.49 128.099 1270.26 128.768 1270.26 129.615C1270.26 130.463 1270.49 131.131 1270.96 131.621C1271.44 132.111 1272.02 132.356 1272.7 132.356C1273.38 132.356 1273.96 132.111 1274.44 131.621C1274.92 131.118 1275.16 130.443 1275.16 129.595Z" fill="white"/>
<path d="M1284.36 135.316C1283.39 135.316 1282.52 135.15 1281.76 134.819C1281.01 134.488 1280.41 134.038 1279.97 133.468C1279.53 132.886 1279.28 132.237 1279.23 131.522H1282.6C1282.64 131.906 1282.82 132.217 1283.14 132.456C1283.46 132.694 1283.86 132.813 1284.32 132.813C1284.75 132.813 1285.08 132.734 1285.3 132.575C1285.54 132.403 1285.66 132.184 1285.66 131.919C1285.66 131.601 1285.5 131.37 1285.16 131.224C1284.83 131.065 1284.29 130.893 1283.54 130.708C1282.74 130.522 1282.08 130.33 1281.55 130.132C1281.01 129.92 1280.55 129.595 1280.17 129.159C1279.78 128.708 1279.59 128.106 1279.59 127.351C1279.59 126.716 1279.76 126.14 1280.11 125.623C1280.47 125.094 1280.99 124.676 1281.67 124.372C1282.36 124.067 1283.18 123.915 1284.12 123.915C1285.52 123.915 1286.62 124.259 1287.42 124.948C1288.23 125.636 1288.7 126.55 1288.82 127.689H1285.66C1285.61 127.305 1285.44 127 1285.14 126.775C1284.86 126.55 1284.49 126.437 1284.02 126.437C1283.62 126.437 1283.32 126.517 1283.1 126.676C1282.89 126.821 1282.78 127.027 1282.78 127.292C1282.78 127.609 1282.95 127.848 1283.28 128.007C1283.63 128.165 1284.16 128.324 1284.88 128.483C1285.71 128.695 1286.38 128.907 1286.9 129.119C1287.42 129.317 1287.87 129.648 1288.26 130.112C1288.66 130.562 1288.87 131.171 1288.88 131.939C1288.88 132.588 1288.69 133.171 1288.32 133.687C1287.96 134.19 1287.43 134.587 1286.74 134.879C1286.06 135.17 1285.27 135.316 1284.36 135.316Z" fill="white"/>
<path d="M1301.38 124.074V135.157H1297.96V133.647C1297.62 134.137 1297.14 134.534 1296.55 134.839C1295.96 135.13 1295.31 135.276 1294.59 135.276C1293.73 135.276 1292.98 135.091 1292.33 134.72C1291.68 134.336 1291.17 133.786 1290.81 133.071C1290.45 132.356 1290.27 131.515 1290.27 130.549V124.074H1293.67V130.092C1293.67 130.833 1293.86 131.409 1294.25 131.82C1294.63 132.23 1295.15 132.436 1295.81 132.436C1296.47 132.436 1297 132.23 1297.38 131.82C1297.77 131.409 1297.96 130.833 1297.96 130.092V124.074H1301.38Z" fill="white"/>
<path d="M1317.46 123.955C1318.85 123.955 1319.95 124.372 1320.76 125.206C1321.59 126.04 1322 127.199 1322 128.682V135.157H1318.6V129.139C1318.6 128.424 1318.41 127.874 1318.02 127.49C1317.65 127.093 1317.13 126.894 1316.46 126.894C1315.8 126.894 1315.27 127.093 1314.89 127.49C1314.51 127.874 1314.33 128.424 1314.33 129.139V135.157H1310.93V129.139C1310.93 128.424 1310.74 127.874 1310.35 127.49C1309.98 127.093 1309.46 126.894 1308.79 126.894C1308.13 126.894 1307.6 127.093 1307.21 127.49C1306.84 127.874 1306.65 128.424 1306.65 129.139V135.157H1303.24V124.074H1306.65V125.464C1307 125.001 1307.45 124.637 1308.01 124.372C1308.57 124.094 1309.2 123.955 1309.91 123.955C1310.75 123.955 1311.5 124.133 1312.15 124.491C1312.81 124.848 1313.33 125.358 1313.71 126.02C1314.09 125.411 1314.62 124.915 1315.29 124.531C1315.95 124.147 1316.68 123.955 1317.46 123.955Z" fill="white"/>
<rect x="1148.5" y="92.5" width="197" height="71" rx="9.5" stroke="#A1AEBF"/>
<defs>
<clipPath id="clip0_7_917">
<rect width="150" height="40" fill="white" transform="translate(-136 108)"/>
</clipPath>
</defs>
</svg>
