<svg width="38" height="42" viewBox="0 0 38 42" fill="none" xmlns="http://www.w3.org/2000/svg">
<g clip-path="url(#clip0_10_18)">
<path d="M18.5845 29.6595C17.0301 29.8472 16.2871 32.1592 15.6908 33.3547C14.7425 35.2121 13.9115 37.1288 12.9437 38.9764C12.5526 39.7174 11.5457 42.138 10.4312 41.9997C8.30975 41.7428 6.4034 41.3575 4.70234 40.8635C3.14793 40.409 1.87703 39.8952 0.889632 39.3222C0.713661 39.2234 0.606123 39.0357 0.606123 38.8282V24.5417C0.606123 24.3243 0.723437 24.1267 0.918961 24.0378C1.09493 23.9489 1.30023 23.9588 1.45665 24.0576C2.80576 24.9072 4.49704 25.6087 6.55004 26.1719C8.73013 26.7746 11.1253 27.1105 13.7355 27.1895C14.762 27.229 15.7201 27.2093 16.5902 27.1302C17.2158 27.071 17.7242 26.9919 18.125 26.8931C18.3694 26.8338 18.5454 26.6066 18.5454 26.3398V25.4605C18.5454 25.1246 18.2619 24.8677 17.9393 24.8974C17.6851 24.9171 17.4114 24.9369 17.1181 24.9566C16.5608 24.9962 16.0525 25.0159 15.5734 25.0159C10.3823 25.0159 6.49138 24.0576 3.90069 22.1309C1.30023 20.2241 0 17.4281 0 13.7428C0 10.6504 1.11448 8.23963 2.82531 5.76962C3.9789 4.12954 5.24003 2.52897 6.82377 1.28409C7.63519 0.651768 8.77901 -0.395515 9.85439 0.147887C11.5066 0.967929 12.5428 3.52686 13.3738 5.04838C14.3808 6.87619 15.329 8.75339 16.5315 10.4528C17.2843 11.5198 18.4183 13.0907 19.875 13.0907C23.4824 13.0907 26.8161 -0.395515 29.3676 0.0490862C31.753 0.464047 33.7669 1.02721 35.4191 1.75833C35.6244 1.84725 35.7613 2.05473 35.7613 2.28197V16.5487C35.7613 16.776 35.6244 16.9835 35.4191 17.0724L35.292 17.1218C35.1356 17.1909 34.9596 17.1811 34.813 17.102C33.5518 16.4401 32.017 15.8967 30.2084 15.4817C28.2825 15.0371 26.1806 14.8197 23.8832 14.8197C22.8958 14.8197 21.9671 14.879 21.1165 14.9976C20.5593 15.0766 20.1291 15.1655 19.8163 15.2544C19.5817 15.3236 19.4155 15.5508 19.4155 15.7979V16.5981C19.4155 16.9242 19.699 17.1909 20.0216 17.1613C20.2856 17.1415 20.5789 17.1218 20.9015 17.0921C21.4978 17.0526 22.2701 17.0329 23.2184 17.0329C28.0478 17.0329 31.7237 18.0011 34.2362 19.9475C40.4929 24.7788 38.0587 34.1846 33.1412 38.9665C31.665 40.3991 28.7322 43.3335 26.8258 41.1994C25.3496 39.5494 24.5284 37.2474 23.5508 35.2911C22.6612 33.5029 22.0257 31.3787 20.3247 30.1832C19.8652 29.8571 19.3177 29.62 18.7605 29.6299C18.7116 29.6398 18.6432 29.6496 18.5845 29.6595Z" fill="url(#paint0_linear_10_18)"/>
<path d="M18.5845 29.6595C17.0301 29.8472 16.2871 32.1592 15.6908 33.3547C14.7425 35.2121 13.9115 37.1288 12.9437 38.9764C12.5526 39.7174 11.5457 42.138 10.4312 41.9997C8.30975 41.7428 6.4034 41.3575 4.70234 40.8635C3.14793 40.409 1.87703 39.8952 0.889632 39.3222C0.713661 39.2234 0.606123 39.0357 0.606123 38.8282V24.5417C0.606123 24.3243 0.723437 24.1267 0.918961 24.0378C1.09493 23.9489 1.30023 23.9588 1.45665 24.0576C2.80576 24.9072 4.49704 25.6087 6.55004 26.1719C8.73013 26.7746 11.1253 27.1105 13.7355 27.1895C14.762 27.229 15.7201 27.2093 16.5902 27.1302C17.2158 27.071 17.7242 26.9919 18.125 26.8931C18.3694 26.8338 18.5454 26.6066 18.5454 26.3398V25.4605C18.5454 25.1246 18.2619 24.8677 17.9393 24.8974C17.6851 24.9171 17.4114 24.9369 17.1181 24.9566C16.5608 24.9962 16.0525 25.0159 15.5734 25.0159C10.3823 25.0159 6.49138 24.0576 3.90069 22.1309C1.30023 20.2241 0 17.4281 0 13.7428C0 10.6504 1.11448 8.23963 2.82531 5.76962C3.9789 4.12954 5.24003 2.52897 6.82377 1.28409C7.63519 0.651768 8.77901 -0.395515 9.85439 0.147887C11.5066 0.967929 12.5428 3.52686 13.3738 5.04838C14.3808 6.87619 15.329 8.75339 16.5315 10.4528C17.2843 11.5198 18.4183 13.0907 19.875 13.0907C23.4824 13.0907 26.8161 -0.395515 29.3676 0.0490862C31.753 0.464047 33.7669 1.02721 35.4191 1.75833C35.6244 1.84725 35.7613 2.05473 35.7613 2.28197V16.5487C35.7613 16.776 35.6244 16.9835 35.4191 17.0724L35.292 17.1218C35.1356 17.1909 34.9596 17.1811 34.813 17.102C33.5518 16.4401 32.017 15.8967 30.2084 15.4817C28.2825 15.0371 26.1806 14.8197 23.8832 14.8197C22.8958 14.8197 21.9671 14.879 21.1165 14.9976C20.5593 15.0766 20.1291 15.1655 19.8163 15.2544C19.5817 15.3236 19.4155 15.5508 19.4155 15.7979V16.5981C19.4155 16.9242 19.699 17.1909 20.0216 17.1613C20.2856 17.1415 20.5789 17.1218 20.9015 17.0921C21.4978 17.0526 22.2701 17.0329 23.2184 17.0329C28.0478 17.0329 31.7237 18.0011 34.2362 19.9475C40.4929 24.7788 38.0587 34.1846 33.1412 38.9665C31.665 40.3991 28.7322 43.3335 26.8258 41.1994C25.3496 39.5494 24.5284 37.2474 23.5508 35.2911C22.6612 33.5029 22.0257 31.3787 20.3247 30.1832C19.8652 29.8571 19.3177 29.62 18.7605 29.6299C18.7116 29.6398 18.6432 29.6496 18.5845 29.6595Z" fill="url(#paint1_linear_10_18)"/>
</g>
<defs>
<linearGradient id="paint0_linear_10_18" x1="27.2394" y1="9.4641" x2="7.18243" y2="32.8362" gradientUnits="userSpaceOnUse">
<stop stop-color="#9DE8EE"/>
<stop offset="0.0001" stop-color="#9DE8EE"/>
<stop offset="0.490049" stop-color="#FA7C0B"/>
<stop offset="1" stop-color="#9F8CED"/>
</linearGradient>
<linearGradient id="paint1_linear_10_18" x1="27.2394" y1="9.4641" x2="7.18243" y2="32.8362" gradientUnits="userSpaceOnUse">
<stop stop-color="#9DE8EE"/>
<stop offset="0.0001" stop-color="#9DE8EE"/>
<stop offset="0.490049" stop-color="#FA7C0B"/>
<stop offset="1" stop-color="#9F8CED"/>
</linearGradient>
<clipPath id="clip0_10_18">
<rect width="38" height="42" fill="white"/>
</clipPath>
</defs>
</svg>
