<svg width="1078" height="208" viewBox="0 0 1078 208" fill="none" xmlns="http://www.w3.org/2000/svg">
<g clip-path="url(#clip0_7_1097)">
<path fill-rule="evenodd" clip-rule="evenodd" d="M52.2718 60.9086C52.84 61.5113 52.84 62.4887 52.2718 63.0914C51.7035 63.6941 50.782 63.6941 50.2138 63.0914L45.9711 58.5914C45.4029 57.9887 45.4029 57.0113 45.9711 56.4086L50.2138 51.9086C50.782 51.3058 51.7035 51.3058 52.2717 51.9086C52.84 52.5113 52.84 53.4887 52.2718 54.0914L49.0581 57.5L52.2718 60.9086ZM56.2138 54.0914C55.6455 53.4887 55.6455 52.5115 56.2138 51.9086C56.782 51.3059 57.7035 51.3059 58.2718 51.9086L62.5144 56.4086C63.0826 57.0115 63.0826 57.9887 62.5144 58.5914L58.2718 63.0914C57.7035 63.6943 56.782 63.6943 56.2138 63.0914C55.6455 62.4887 55.6455 61.5113 56.2138 60.9086L59.4274 57.5L56.2138 54.0914Z" fill="white"/>
<path fill-rule="evenodd" clip-rule="evenodd" d="M30.5 29C30.5 26.5147 32.5147 24.5 35 24.5H53C55.4853 24.5 57.5 26.5147 57.5 29V47C57.5 47.8284 56.8284 48.5 56 48.5H49.7426C49.3448 48.5 48.9634 48.6581 48.6819 48.9394L42.0896 55.5317C41.6332 55.9883 41.5199 56.6856 41.8086 57.2631L43.8416 61.3292C44.0741 61.7942 44.0494 62.3463 43.7761 62.7886C43.5026 63.2308 43.0199 63.5 42.5 63.5H35C32.5147 63.5 30.5 61.4854 30.5 59V29ZM39.5 27.5C38.6715 27.5 38 28.1716 38 29C38 29.8284 38.6715 30.5 39.5 30.5H48.5C49.3284 30.5 50 29.8284 50 29C50 28.1716 49.3284 27.5 48.5 27.5H39.5Z" fill="url(#paint0_linear_7_1097)"/>
<path d="M21.904 105V85.12H27.448L32.768 100.352H32.796L38.088 85.12H43.632V105H39.796V90.412H39.74L34.56 105H30.976L25.796 90.412H25.74V105H21.904ZM53.7151 105.476C49.4311 105.476 46.6591 102.48 46.6591 97.832C46.6591 93.212 49.4311 90.244 53.7151 90.244C57.9991 90.244 60.7711 93.212 60.7711 97.832C60.7711 102.48 57.9991 105.476 53.7151 105.476ZM53.7151 102.34C55.7871 102.34 57.1311 100.604 57.1311 97.832C57.1311 95.088 55.7871 93.38 53.7151 93.38C51.6151 93.38 50.2991 95.088 50.2991 97.832C50.2991 100.604 51.6151 102.34 53.7151 102.34ZM71.4393 105.42C69.5073 105.42 67.8833 104.496 67.0433 102.788H67.0153L66.5953 105H63.4593V84.28H67.1273V92.848H67.1553C68.0233 91.224 69.5353 90.3 71.4393 90.3C74.9393 90.3 77.2353 93.212 77.2353 97.86C77.2353 102.48 74.9393 105.42 71.4393 105.42ZM70.2913 102.2C72.2793 102.2 73.5953 100.52 73.5953 97.86C73.5953 95.228 72.2793 93.52 70.2913 93.52C68.2753 93.52 66.9873 95.228 66.9873 97.86C66.9873 100.492 68.2753 102.2 70.2913 102.2ZM81.9356 88.508C80.5916 88.508 79.6676 87.612 79.6676 86.268C79.6676 84.952 80.5916 84.056 81.9356 84.056C83.3076 84.056 84.2316 84.952 84.2316 86.268C84.2316 87.612 83.3076 88.508 81.9356 88.508ZM80.0876 105V90.72H83.7556V105H80.0876ZM87.139 105V84.28H90.807V105H87.139ZM100.974 105.476C96.4663 105.476 93.5263 102.424 93.5263 97.72C93.5263 93.184 96.1863 90.244 100.33 90.244C104.334 90.244 106.882 93.1 106.882 97.58C106.882 98.112 106.854 98.644 106.77 98.924H97.1663C97.3623 101.22 98.8183 102.648 100.974 102.648C102.57 102.648 103.83 101.836 104.362 100.436L107.19 101.556C106.406 103.992 103.942 105.476 100.974 105.476ZM97.1663 96.544H103.186C103.074 94.332 102.038 93.072 100.33 93.072C98.4823 93.072 97.4183 94.388 97.1663 96.544ZM115.116 105L121.556 85.12H126.624L133.092 105H128.92L127.66 100.828H120.52L119.26 105H115.116ZM121.248 97.748H126.932L124.16 88.564H124.104L121.248 97.748ZM135.291 110.88V90.72H138.427L138.847 92.932H138.875C139.715 91.224 141.339 90.3 143.271 90.3C146.771 90.3 149.067 93.212 149.067 97.86C149.067 102.48 146.771 105.42 143.271 105.42C141.367 105.42 139.855 104.496 138.987 102.872H138.959V110.88H135.291ZM142.123 102.2C144.111 102.2 145.427 100.492 145.427 97.86C145.427 95.2 144.111 93.52 142.123 93.52C140.107 93.52 138.819 95.228 138.819 97.86C138.819 100.492 140.107 102.2 142.123 102.2ZM151.78 110.88V90.72H154.916L155.336 92.932H155.364C156.204 91.224 157.828 90.3 159.76 90.3C163.26 90.3 165.556 93.212 165.556 97.86C165.556 102.48 163.26 105.42 159.76 105.42C157.856 105.42 156.344 104.496 155.476 102.872H155.448V110.88H151.78ZM158.612 102.2C160.6 102.2 161.916 100.492 161.916 97.86C161.916 95.2 160.6 93.52 158.612 93.52C156.596 93.52 155.308 95.228 155.308 97.86C155.308 100.492 156.596 102.2 158.612 102.2Z" fill="white"/>
<path d="M20.84 142V132.13H27.588V133.166H21.974V136.4H27.028V137.408H21.974V140.964H27.728V142H20.84ZM31.8526 145.22C30.1866 145.22 28.6326 144.464 27.9466 143.33L28.7726 142.63C29.3326 143.61 30.5366 144.254 31.8246 144.254C33.5746 144.254 34.7366 143.148 34.7366 141.44V140.656H34.7226C34.1626 141.538 33.0426 142.084 32.0486 142.084C29.9626 142.084 28.5206 140.586 28.5206 138.416C28.5206 136.19 29.9626 134.678 32.0486 134.678C33.0706 134.678 34.1626 135.252 34.7366 136.078H34.7506L34.8626 134.93H35.8146V141.44C35.8146 143.736 34.2326 145.22 31.8526 145.22ZM32.1886 141.118C33.7146 141.118 34.7786 139.956 34.7786 138.416C34.7786 136.834 33.7146 135.63 32.1886 135.63C30.6486 135.63 29.5846 136.764 29.5846 138.416C29.5846 140.012 30.6486 141.118 32.1886 141.118ZM41.1145 142.28C38.8605 142.28 37.2085 140.642 37.2085 138.388C37.2085 136.218 38.7205 134.65 40.8205 134.65C42.8925 134.65 44.2505 136.218 44.2785 138.402C44.2785 138.528 44.2785 138.682 44.2645 138.822H38.3145C38.4685 140.292 39.6025 141.314 41.1285 141.314C42.2345 141.314 43.1725 140.74 43.5645 139.97L44.4885 140.348C44.0265 141.482 42.6965 142.28 41.1145 142.28ZM38.3285 137.884H43.1445C43.0045 136.442 42.0945 135.63 40.8065 135.63C39.4905 135.63 38.5245 136.54 38.3285 137.884ZM48.7336 142.28C46.9696 142.28 45.5136 141.37 45.3876 139.858L46.4376 139.648C46.5216 140.628 47.4736 141.314 48.7336 141.314C49.8396 141.314 50.6936 140.796 50.6936 140.068C50.6936 139.522 50.1756 139.186 48.9856 138.948L47.8656 138.724C46.3956 138.416 45.7656 137.828 45.7656 136.792C45.7796 135.56 46.8716 134.65 48.3836 134.65C49.8676 134.65 50.9736 135.448 51.2396 136.596L50.2176 136.876C50.1196 136.134 49.3776 135.588 48.3696 135.588C47.4736 135.588 46.8156 136.134 46.8016 136.736C46.8016 137.254 47.2216 137.548 48.2016 137.758L49.3496 137.982C51.0156 138.332 51.7296 138.92 51.7296 139.97C51.7296 141.3 50.4416 142.28 48.7336 142.28ZM55.7984 142.28C54.4684 142.28 53.5724 141.384 53.5724 140.096V135.812H52.0184V134.93H53.5724V132.83L54.6364 132.578V134.93H57.8004V135.812H54.6364V139.984C54.6364 140.782 55.1264 141.356 55.8964 141.356C56.6104 141.356 57.2684 140.838 57.4084 139.928L58.2764 140.292C58.0804 141.524 57.0024 142.28 55.7984 142.28ZM61.8983 142.28C60.2883 142.28 59.1683 141.412 59.1683 140.152C59.1683 139.018 60.0643 138.108 62.3603 137.828L64.1103 137.618C64.4603 137.576 64.6843 137.38 64.6843 137.072C64.6843 136.19 63.8443 135.616 62.6123 135.616C61.2823 135.616 60.3443 136.47 60.2883 137.31L59.3223 136.904C59.4483 135.742 60.8203 134.65 62.6543 134.65C64.4603 134.65 65.7343 135.658 65.7343 137.24V142H64.7683L64.6563 140.824H64.6423C64.1383 141.72 63.1583 142.28 61.8983 142.28ZM62.0803 141.314C63.5643 141.314 64.6563 140.348 64.6563 138.976V138.472L62.4723 138.738C60.7643 138.948 60.2323 139.494 60.2323 140.138C60.2323 140.852 61.0023 141.314 62.0803 141.314ZM70.2728 142.28C68.5088 142.28 67.0528 141.37 66.9268 139.858L67.9768 139.648C68.0608 140.628 69.0128 141.314 70.2728 141.314C71.3788 141.314 72.2328 140.796 72.2328 140.068C72.2328 139.522 71.7148 139.186 70.5248 138.948L69.4048 138.724C67.9348 138.416 67.3048 137.828 67.3048 136.792C67.3188 135.56 68.4108 134.65 69.9228 134.65C71.4068 134.65 72.5128 135.448 72.7788 136.596L71.7568 136.876C71.6588 136.134 70.9168 135.588 69.9088 135.588C69.0128 135.588 68.3548 136.134 68.3408 136.736C68.3408 137.254 68.7608 137.548 69.7408 137.758L70.8888 137.982C72.5548 138.332 73.2688 138.92 73.2688 139.97C73.2688 141.3 71.9808 142.28 70.2728 142.28ZM81.7055 142.28C80.3755 142.28 79.4795 141.384 79.4795 140.096V135.812H77.9255V134.93H79.4795V132.83L80.5435 132.578V134.93H83.7075V135.812H80.5435V139.984C80.5435 140.782 81.0335 141.356 81.8035 141.356C82.5175 141.356 83.1755 140.838 83.3155 139.928L84.1835 140.292C83.9875 141.524 82.9095 142.28 81.7055 142.28ZM88.8479 142.28C86.5939 142.28 84.9419 140.642 84.9419 138.388C84.9419 136.218 86.4539 134.65 88.554 134.65C90.626 134.65 91.984 136.218 92.012 138.402C92.012 138.528 92.012 138.682 91.998 138.822H86.0479C86.2019 140.292 87.3359 141.314 88.8619 141.314C89.968 141.314 90.906 140.74 91.298 139.97L92.2219 140.348C91.76 141.482 90.43 142.28 88.8479 142.28ZM86.0619 137.884H90.878C90.738 136.442 89.8279 135.63 88.5399 135.63C87.2239 135.63 86.2579 136.54 86.0619 137.884ZM93.541 142V131.71H94.605V142H93.541ZM96.282 142V131.71H97.346V142H96.282ZM101.571 142.28C99.9469 142.28 98.9529 141.244 98.9529 139.494V134.93H100.031V139.382C100.031 140.586 100.745 141.356 101.865 141.356C103.279 141.356 104.301 140.362 104.301 138.92V134.93H105.365V142H104.399L104.301 140.95H104.287C103.685 141.804 102.803 142.28 101.571 142.28ZM109.967 142.28C108.203 142.28 106.747 141.37 106.621 139.858L107.671 139.648C107.755 140.628 108.707 141.314 109.967 141.314C111.073 141.314 111.927 140.796 111.927 140.068C111.927 139.522 111.409 139.186 110.219 138.948L109.099 138.724C107.629 138.416 106.999 137.828 106.999 136.792C107.013 135.56 108.105 134.65 109.617 134.65C111.101 134.65 112.207 135.448 112.473 136.596L111.451 136.876C111.353 136.134 110.611 135.588 109.603 135.588C108.707 135.588 108.049 136.134 108.035 136.736C108.035 137.254 108.455 137.548 109.435 137.758L110.583 137.982C112.249 138.332 112.963 138.92 112.963 139.97C112.963 141.3 111.675 142.28 109.967 142.28ZM122.114 134.65C123.738 134.65 124.732 135.686 124.732 137.436V142H123.654V137.548C123.654 136.344 122.94 135.574 121.82 135.574C120.406 135.574 119.384 136.568 119.384 138.01V142H118.32V134.93H119.286L119.384 135.98H119.398C120 135.126 120.882 134.65 122.114 134.65ZM128.886 142.28C127.262 142.28 126.268 141.244 126.268 139.494V134.93H127.346V139.382C127.346 140.586 128.06 141.356 129.18 141.356C130.594 141.356 131.616 140.362 131.616 138.92V134.93H132.68V142H131.714L131.616 140.95H131.602C131 141.804 130.118 142.28 128.886 142.28ZM138.15 134.65C139.774 134.65 140.768 135.686 140.768 137.436V142H139.69V137.548C139.69 136.344 138.976 135.574 137.856 135.574C136.442 135.574 135.42 136.568 135.42 138.01V142H134.356V134.93H135.322L135.42 135.98H135.434C136.036 135.126 136.918 134.65 138.15 134.65ZM145.833 142.28C143.635 142.28 142.095 140.698 142.095 138.472C142.095 136.232 143.551 134.65 145.623 134.65C147.219 134.65 148.521 135.644 148.871 137.072L147.835 137.31C147.555 136.288 146.659 135.63 145.623 135.63C144.209 135.63 143.159 136.778 143.159 138.472C143.159 140.166 144.293 141.314 145.833 141.314C147.121 141.314 148.185 140.488 148.381 139.27L149.417 139.48C149.151 141.104 147.653 142.28 145.833 142.28ZM154.775 144.94V134.93H155.699L155.811 136.148H155.825C156.427 135.21 157.393 134.65 158.583 134.65C160.655 134.65 162.181 136.26 162.181 138.472C162.181 140.67 160.655 142.28 158.597 142.28C157.421 142.28 156.469 141.734 155.853 140.824H155.839V144.94H154.775ZM158.457 141.3C159.997 141.3 161.103 140.068 161.103 138.472C161.103 136.834 159.983 135.63 158.457 135.63C156.931 135.63 155.811 136.862 155.811 138.472C155.811 140.068 156.931 141.3 158.457 141.3ZM166.652 134.636C167.856 134.636 168.682 135.434 168.822 136.848L167.898 137.156C167.786 136.162 167.268 135.63 166.498 135.63C165.364 135.63 164.65 136.568 164.65 138.108V142H163.586V134.93H164.496L164.594 136.036H164.608C165 135.182 165.756 134.636 166.652 134.636ZM173.436 142.28C171.168 142.28 169.67 140.768 169.67 138.472C169.67 136.162 171.168 134.65 173.436 134.65C175.718 134.65 177.216 136.162 177.216 138.472C177.216 140.768 175.718 142.28 173.436 142.28ZM173.436 141.314C175.074 141.314 176.138 140.194 176.138 138.472C176.138 136.75 175.074 135.63 173.436 135.63C171.798 135.63 170.734 136.75 170.734 138.472C170.734 140.194 171.798 141.314 173.436 141.314ZM179.255 133.558C178.779 133.558 178.471 133.25 178.471 132.774C178.471 132.312 178.779 132.004 179.255 132.004C179.717 132.004 180.053 132.312 180.053 132.774C180.053 133.25 179.717 133.558 179.255 133.558ZM178.709 142V134.93H179.773V142H178.709ZM185.392 134.65C187.016 134.65 188.01 135.686 188.01 137.436V142H186.932V137.548C186.932 136.344 186.218 135.574 185.098 135.574C183.684 135.574 182.662 136.568 182.662 138.01V142H181.598V134.93H182.564L182.662 135.98H182.676C183.278 135.126 184.16 134.65 185.392 134.65ZM196.02 142.28C194.41 142.28 193.29 141.412 193.29 140.152C193.29 139.018 194.186 138.108 196.482 137.828L198.232 137.618C198.582 137.576 198.806 137.38 198.806 137.072C198.806 136.19 197.966 135.616 196.734 135.616C195.404 135.616 194.466 136.47 194.41 137.31L193.444 136.904C193.57 135.742 194.942 134.65 196.776 134.65C198.582 134.65 199.856 135.658 199.856 137.24V142H198.89L198.778 140.824H198.764C198.26 141.72 197.28 142.28 196.02 142.28ZM196.202 141.314C197.686 141.314 198.778 140.348 198.778 138.976V138.472L196.594 138.738C194.886 138.948 194.354 139.494 194.354 140.138C194.354 140.852 195.124 141.314 196.202 141.314ZM201.469 142V134.93H202.393L202.505 135.966H202.519C202.939 135.14 203.863 134.65 204.997 134.65C206.117 134.65 206.873 135.168 207.237 136.078H207.251C207.881 135.084 208.861 134.65 209.911 134.65C211.451 134.65 212.361 135.63 212.361 137.296V142H211.283V137.366C211.283 136.274 210.653 135.63 209.589 135.63C208.245 135.63 207.447 136.638 207.447 138.066V142H206.383V137.366C206.383 136.274 205.753 135.63 204.675 135.63C203.331 135.63 202.533 136.638 202.533 138.066V142H201.469ZM217.598 142.28C215.344 142.28 213.692 140.642 213.692 138.388C213.692 136.218 215.204 134.65 217.304 134.65C219.376 134.65 220.734 136.218 220.762 138.402C220.762 138.528 220.762 138.682 220.748 138.822H214.798C214.952 140.292 216.086 141.314 217.612 141.314C218.718 141.314 219.656 140.74 220.048 139.97L220.972 140.348C220.51 141.482 219.18 142.28 217.598 142.28ZM214.812 137.884H219.628C219.488 136.442 218.578 135.63 217.29 135.63C215.974 135.63 215.008 136.54 214.812 137.884ZM225.097 142.28C223.767 142.28 222.871 141.384 222.871 140.096V135.812H221.317V134.93H222.871V132.83L223.935 132.578V134.93H227.099V135.812H223.935V139.984C223.935 140.782 224.425 141.356 225.195 141.356C225.909 141.356 226.567 140.838 226.707 139.928L227.575 140.292C227.379 141.524 226.301 142.28 225.097 142.28ZM235.788 142.28C234.458 142.28 233.562 141.384 233.562 140.096V135.812H232.008V134.93H233.562V132.83L234.626 132.578V134.93H237.79V135.812H234.626V139.984C234.626 140.782 235.116 141.356 235.886 141.356C236.6 141.356 237.258 140.838 237.398 139.928L238.266 140.292C238.07 141.524 236.992 142.28 235.788 142.28ZM242.931 142.28C240.677 142.28 239.025 140.642 239.025 138.388C239.025 136.218 240.537 134.65 242.637 134.65C244.709 134.65 246.067 136.218 246.095 138.402C246.095 138.528 246.095 138.682 246.081 138.822H240.131C240.285 140.292 241.419 141.314 242.945 141.314C244.051 141.314 244.989 140.74 245.381 139.97L246.305 140.348C245.843 141.482 244.513 142.28 242.931 142.28ZM240.145 137.884H244.961C244.821 136.442 243.911 135.63 242.623 135.63C241.307 135.63 240.341 136.54 240.145 137.884ZM247.624 142V131.71H248.688V142H247.624ZM250.365 142V131.71H251.429V142H250.365ZM255.653 142.28C254.029 142.28 253.035 141.244 253.035 139.494V134.93H254.113V139.382C254.113 140.586 254.827 141.356 255.947 141.356C257.361 141.356 258.383 140.362 258.383 138.92V134.93H259.447V142H258.481L258.383 140.95H258.369C257.767 141.804 256.885 142.28 255.653 142.28ZM264.05 142.28C262.286 142.28 260.83 141.37 260.704 139.858L261.754 139.648C261.838 140.628 262.79 141.314 264.05 141.314C265.156 141.314 266.01 140.796 266.01 140.068C266.01 139.522 265.492 139.186 264.302 138.948L263.182 138.724C261.712 138.416 261.082 137.828 261.082 136.792C261.096 135.56 262.188 134.65 263.7 134.65C265.184 134.65 266.29 135.448 266.556 136.596L265.534 136.876C265.436 136.134 264.694 135.588 263.686 135.588C262.79 135.588 262.132 136.134 262.118 136.736C262.118 137.254 262.538 137.548 263.518 137.758L264.666 137.982C266.332 138.332 267.046 138.92 267.046 139.97C267.046 141.3 265.758 142.28 264.05 142.28ZM23.78 162.28C22.45 162.28 21.554 161.384 21.554 160.096V155.812H20V154.93H21.554V152.83L22.618 152.578V154.93H25.782V155.812H22.618V159.984C22.618 160.782 23.108 161.356 23.878 161.356C24.592 161.356 25.25 160.838 25.39 159.928L26.258 160.292C26.062 161.524 24.984 162.28 23.78 162.28ZM27.9404 153.558C27.4644 153.558 27.1564 153.25 27.1564 152.774C27.1564 152.312 27.4644 152.004 27.9404 152.004C28.4024 152.004 28.7384 152.312 28.7384 152.774C28.7384 153.25 28.4024 153.558 27.9404 153.558ZM27.3944 162V154.93H28.4584V162H27.3944ZM34.0774 154.65C35.7014 154.65 36.6954 155.686 36.6954 157.436V162H35.6174V157.548C35.6174 156.344 34.9034 155.574 33.7834 155.574C32.3694 155.574 31.3474 156.568 31.3474 158.01V162H30.2834V154.93H31.2494L31.3474 155.98H31.3614C31.9634 155.126 32.8454 154.65 34.0774 154.65ZM41.7597 162.28C39.5617 162.28 38.0217 160.698 38.0217 158.472C38.0217 156.232 39.4777 154.65 41.5497 154.65C43.1457 154.65 44.4477 155.644 44.7977 157.072L43.7617 157.31C43.4817 156.288 42.5857 155.63 41.5497 155.63C40.1357 155.63 39.0857 156.778 39.0857 158.472C39.0857 160.166 40.2197 161.314 41.7597 161.314C43.0477 161.314 44.1117 160.488 44.3077 159.27L45.3437 159.48C45.0777 161.104 43.5797 162.28 41.7597 162.28ZM47.2511 153.558C46.7751 153.558 46.4671 153.25 46.4671 152.774C46.4671 152.312 46.7751 152.004 47.2511 152.004C47.7131 152.004 48.0491 152.312 48.0491 152.774C48.0491 153.25 47.7131 153.558 47.2511 153.558ZM46.7051 162V154.93H47.7691V162H46.7051ZM52.9121 162.28C50.8401 162.28 49.3141 160.67 49.3141 158.472C49.3141 156.26 50.8261 154.65 52.8981 154.65C54.0741 154.65 55.0261 155.196 55.6281 156.12H55.6421V151.71H56.7201V162H55.7821L55.6841 160.782H55.6701C55.0681 161.72 54.0881 162.28 52.9121 162.28ZM53.0381 161.314C54.5641 161.314 55.6841 160.068 55.6841 158.472C55.6841 156.862 54.5641 155.63 53.0381 155.63C51.4981 155.63 50.3781 156.862 50.3781 158.472C50.3781 160.096 51.5121 161.314 53.0381 161.314ZM60.9534 162.28C59.3294 162.28 58.3354 161.244 58.3354 159.494V154.93H59.4134V159.382C59.4134 160.586 60.1274 161.356 61.2474 161.356C62.6614 161.356 63.6834 160.362 63.6834 158.92V154.93H64.7474V162H63.7814L63.6834 160.95H63.6694C63.0674 161.804 62.1854 162.28 60.9534 162.28ZM70.2177 154.65C71.8417 154.65 72.8357 155.686 72.8357 157.436V162H71.7577V157.548C71.7577 156.344 71.0437 155.574 69.9237 155.574C68.5097 155.574 67.4877 156.568 67.4877 158.01V162H66.4237V154.93H67.3897L67.4877 155.98H67.5017C68.1037 155.126 68.9857 154.65 70.2177 154.65ZM77.2485 162.28C75.9185 162.28 75.0225 161.384 75.0225 160.096V155.812H73.4685V154.93H75.0225V152.83L76.0865 152.578V154.93H79.2505V155.812H76.0865V159.984C76.0865 160.782 76.5765 161.356 77.3465 161.356C78.0605 161.356 78.7185 160.838 78.8585 159.928L79.7265 160.292C79.5305 161.524 78.4525 162.28 77.2485 162.28ZM84.8594 162V151.71H85.9234V162H84.8594ZM89.9103 162.28C88.3003 162.28 87.1803 161.412 87.1803 160.152C87.1803 159.018 88.0763 158.108 90.3723 157.828L92.1223 157.618C92.4723 157.576 92.6963 157.38 92.6963 157.072C92.6963 156.19 91.8563 155.616 90.6243 155.616C89.2943 155.616 88.3563 156.47 88.3003 157.31L87.3343 156.904C87.4603 155.742 88.8323 154.65 90.6663 154.65C92.4723 154.65 93.7463 155.658 93.7463 157.24V162H92.7803L92.6683 160.824H92.6543C92.1503 161.72 91.1703 162.28 89.9103 162.28ZM90.0923 161.314C91.5763 161.314 92.6683 160.348 92.6683 158.976V158.472L90.4843 158.738C88.7763 158.948 88.2443 159.494 88.2443 160.138C88.2443 160.852 89.0143 161.314 90.0923 161.314ZM98.8168 162.28C96.6188 162.28 95.0788 160.698 95.0788 158.472C95.0788 156.232 96.5348 154.65 98.6068 154.65C100.203 154.65 101.505 155.644 101.855 157.072L100.819 157.31C100.539 156.288 99.6428 155.63 98.6068 155.63C97.1928 155.63 96.1428 156.778 96.1428 158.472C96.1428 160.166 97.2768 161.314 98.8168 161.314C100.105 161.314 101.169 160.488 101.365 159.27L102.401 159.48C102.135 161.104 100.637 162.28 98.8168 162.28ZM106.212 162.28C104.588 162.28 103.594 161.244 103.594 159.494V154.93H104.672V159.382C104.672 160.586 105.386 161.356 106.506 161.356C107.92 161.356 108.942 160.362 108.942 158.92V154.93H110.006V162H109.04L108.942 160.95H108.928C108.326 161.804 107.444 162.28 106.212 162.28ZM114.608 162.28C112.844 162.28 111.388 161.37 111.262 159.858L112.312 159.648C112.396 160.628 113.348 161.314 114.608 161.314C115.714 161.314 116.568 160.796 116.568 160.068C116.568 159.522 116.05 159.186 114.86 158.948L113.74 158.724C112.27 158.416 111.64 157.828 111.64 156.792C111.654 155.56 112.746 154.65 114.258 154.65C115.742 154.65 116.848 155.448 117.114 156.596L116.092 156.876C115.994 156.134 115.252 155.588 114.244 155.588C113.348 155.588 112.69 156.134 112.676 156.736C112.676 157.254 113.096 157.548 114.076 157.758L115.224 157.982C116.89 158.332 117.604 158.92 117.604 159.97C117.604 161.3 116.316 162.28 114.608 162.28ZM126.419 162.28C124.221 162.28 122.681 160.698 122.681 158.472C122.681 156.232 124.137 154.65 126.209 154.65C127.805 154.65 129.107 155.644 129.457 157.072L128.421 157.31C128.141 156.288 127.245 155.63 126.209 155.63C124.795 155.63 123.745 156.778 123.745 158.472C123.745 160.166 124.879 161.314 126.419 161.314C127.707 161.314 128.771 160.488 128.967 159.27L130.003 159.48C129.737 161.104 128.239 162.28 126.419 162.28ZM134.753 162.28C132.485 162.28 130.987 160.768 130.987 158.472C130.987 156.162 132.485 154.65 134.753 154.65C137.035 154.65 138.533 156.162 138.533 158.472C138.533 160.768 137.035 162.28 134.753 162.28ZM134.753 161.314C136.391 161.314 137.455 160.194 137.455 158.472C137.455 156.75 136.391 155.63 134.753 155.63C133.115 155.63 132.051 156.75 132.051 158.472C132.051 160.194 133.115 161.314 134.753 161.314ZM143.722 154.65C145.346 154.65 146.34 155.686 146.34 157.436V162H145.262V157.548C145.262 156.344 144.548 155.574 143.428 155.574C142.014 155.574 140.992 156.568 140.992 158.01V162H139.928V154.93H140.894L140.992 155.98H141.006C141.608 155.126 142.49 154.65 143.722 154.65ZM150.872 162.28C149.108 162.28 147.652 161.37 147.526 159.858L148.576 159.648C148.66 160.628 149.612 161.314 150.872 161.314C151.978 161.314 152.832 160.796 152.832 160.068C152.832 159.522 152.314 159.186 151.124 158.948L150.004 158.724C148.534 158.416 147.904 157.828 147.904 156.792C147.918 155.56 149.01 154.65 150.522 154.65C152.006 154.65 153.112 155.448 153.378 156.596L152.356 156.876C152.258 156.134 151.516 155.588 150.508 155.588C149.612 155.588 148.954 156.134 148.94 156.736C148.94 157.254 149.36 157.548 150.34 157.758L151.488 157.982C153.154 158.332 153.868 158.92 153.868 159.97C153.868 161.3 152.58 162.28 150.872 162.28ZM158.756 162.28C156.502 162.28 154.85 160.642 154.85 158.388C154.85 156.218 156.362 154.65 158.462 154.65C160.534 154.65 161.892 156.218 161.92 158.402C161.92 158.528 161.92 158.682 161.906 158.822H155.956C156.11 160.292 157.244 161.314 158.77 161.314C159.876 161.314 160.814 160.74 161.206 159.97L162.13 160.348C161.668 161.482 160.338 162.28 158.756 162.28ZM155.97 157.884H160.786C160.646 156.442 159.736 155.63 158.448 155.63C157.132 155.63 156.166 156.54 155.97 157.884ZM169.497 164.94V160.824H169.483C168.881 161.734 167.929 162.28 166.753 162.28C164.681 162.28 163.169 160.67 163.169 158.472C163.169 156.26 164.695 154.65 166.767 154.65C167.943 154.65 168.923 155.21 169.525 156.148H169.539L169.637 154.93H170.575V164.94H169.497ZM166.893 161.3C168.419 161.3 169.539 160.068 169.539 158.472C169.539 156.862 168.419 155.63 166.893 155.63C165.367 155.63 164.233 156.834 164.233 158.472C164.233 160.068 165.353 161.3 166.893 161.3ZM174.808 162.28C173.184 162.28 172.19 161.244 172.19 159.494V154.93H173.268V159.382C173.268 160.586 173.982 161.356 175.102 161.356C176.516 161.356 177.538 160.362 177.538 158.92V154.93H178.602V162H177.636L177.538 160.95H177.524C176.922 161.804 176.04 162.28 174.808 162.28ZM182.589 162.28C180.979 162.28 179.859 161.412 179.859 160.152C179.859 159.018 180.755 158.108 183.051 157.828L184.801 157.618C185.151 157.576 185.375 157.38 185.375 157.072C185.375 156.19 184.535 155.616 183.303 155.616C181.973 155.616 181.035 156.47 180.979 157.31L180.013 156.904C180.139 155.742 181.511 154.65 183.345 154.65C185.151 154.65 186.425 155.658 186.425 157.24V162H185.459L185.347 160.824H185.333C184.829 161.72 183.849 162.28 182.589 162.28ZM182.771 161.314C184.255 161.314 185.347 160.348 185.347 158.976V158.472L183.163 158.738C181.455 158.948 180.923 159.494 180.923 160.138C180.923 160.852 181.693 161.314 182.771 161.314ZM191.117 162.28C189.787 162.28 188.891 161.384 188.891 160.096V155.812H187.337V154.93H188.891V152.83L189.955 152.578V154.93H193.119V155.812H189.955V159.984C189.955 160.782 190.445 161.356 191.215 161.356C191.929 161.356 192.587 160.838 192.727 159.928L193.595 160.292C193.399 161.524 192.321 162.28 191.117 162.28ZM195.278 162.168C194.816 162.168 194.494 161.846 194.494 161.384C194.494 160.936 194.816 160.614 195.278 160.614C195.74 160.614 196.076 160.936 196.076 161.384C196.076 161.846 195.74 162.168 195.278 162.168ZM205.719 162.35C203.339 162.35 201.715 160.698 201.715 158.304V152.13H202.877V158.304C202.877 159.956 203.983 161.314 205.719 161.314C207.441 161.314 208.547 160.082 208.547 158.304V152.13H209.723V158.304C209.723 160.698 208.085 162.35 205.719 162.35ZM211.401 162V151.71H212.465V162H211.401ZM217.222 162.28C215.892 162.28 214.996 161.384 214.996 160.096V155.812H213.442V154.93H214.996V152.83L216.06 152.578V154.93H219.224V155.812H216.06V159.984C216.06 160.782 216.55 161.356 217.32 161.356C218.034 161.356 218.692 160.838 218.832 159.928L219.7 160.292C219.504 161.524 218.426 162.28 217.222 162.28ZM223.805 154.636C225.009 154.636 225.835 155.434 225.975 156.848L225.051 157.156C224.939 156.162 224.421 155.63 223.651 155.63C222.517 155.63 221.803 156.568 221.803 158.108V162H220.739V154.93H221.649L221.747 156.036H221.761C222.153 155.182 222.909 154.636 223.805 154.636ZM227.883 153.558C227.407 153.558 227.099 153.25 227.099 152.774C227.099 152.312 227.407 152.004 227.883 152.004C228.345 152.004 228.681 152.312 228.681 152.774C228.681 153.25 228.345 153.558 227.883 153.558ZM227.337 162V154.93H228.401V162H227.337ZM233.684 162.28C231.486 162.28 229.946 160.698 229.946 158.472C229.946 156.232 231.402 154.65 233.474 154.65C235.07 154.65 236.372 155.644 236.722 157.072L235.686 157.31C235.406 156.288 234.51 155.63 233.474 155.63C232.06 155.63 231.01 156.778 231.01 158.472C231.01 160.166 232.144 161.314 233.684 161.314C234.972 161.314 236.036 160.488 236.232 159.27L237.268 159.48C237.002 161.104 235.504 162.28 233.684 162.28ZM242.158 162.28C239.904 162.28 238.252 160.642 238.252 158.388C238.252 156.218 239.764 154.65 241.864 154.65C243.936 154.65 245.294 156.218 245.322 158.402C245.322 158.528 245.322 158.682 245.308 158.822H239.358C239.512 160.292 240.646 161.314 242.172 161.314C243.278 161.314 244.216 160.74 244.608 159.97L245.532 160.348C245.07 161.482 243.74 162.28 242.158 162.28ZM239.372 157.884H244.188C244.048 156.442 243.138 155.63 241.85 155.63C240.534 155.63 239.568 156.54 239.372 157.884ZM249.777 162.28C248.013 162.28 246.557 161.37 246.431 159.858L247.481 159.648C247.565 160.628 248.517 161.314 249.777 161.314C250.883 161.314 251.737 160.796 251.737 160.068C251.737 159.522 251.219 159.186 250.029 158.948L248.909 158.724C247.439 158.416 246.809 157.828 246.809 156.792C246.823 155.56 247.915 154.65 249.427 154.65C250.911 154.65 252.017 155.448 252.283 156.596L251.261 156.876C251.163 156.134 250.421 155.588 249.413 155.588C248.517 155.588 247.859 156.134 247.845 156.736C247.845 157.254 248.265 157.548 249.245 157.758L250.393 157.982C252.059 158.332 252.773 158.92 252.773 159.97C252.773 161.3 251.485 162.28 249.777 162.28Z" fill="white" fill-opacity="0.6"/>
<rect x="0.5" y="0.5" width="337" height="207" rx="3.5" stroke="#A1AEBF"/>
<path fill-rule="evenodd" clip-rule="evenodd" d="M400.5 26C398.511 26 396.603 26.7902 395.197 28.1967C393.79 29.6032 393 31.5109 393 33.5V54.5C393 56.4891 393.79 58.3968 395.197 59.8033C396.603 61.2098 398.511 62 400.5 62H414C414.398 62 414.779 61.842 415.061 61.5607C415.342 61.2794 415.5 60.8978 415.5 60.5C415.5 60.1022 415.342 59.7206 415.061 59.4393C414.779 59.158 414.398 59 414 59H400.5C399.307 59 398.162 58.5259 397.318 57.682C396.474 56.8381 396 55.6935 396 54.5V38H432V45.5C432 45.8978 432.158 46.2794 432.439 46.5607C432.721 46.842 433.102 47 433.5 47C433.898 47 434.279 46.842 434.561 46.5607C434.842 46.2794 435 45.8978 435 45.5V33.5C435 31.5109 434.21 29.6032 432.803 28.1967C431.397 26.7902 429.489 26 427.5 26H400.5ZM400.5 33.5C400.898 33.5 401.279 33.342 401.561 33.0607C401.842 32.7794 402 32.3978 402 32C402 31.6022 401.842 31.2206 401.561 30.9393C401.279 30.658 400.898 30.5 400.5 30.5C400.102 30.5 399.721 30.658 399.439 30.9393C399.158 31.2206 399 31.6022 399 32C399 32.3978 399.158 32.7794 399.439 33.0607C399.721 33.342 400.102 33.5 400.5 33.5ZM405 33.5C405.398 33.5 405.779 33.342 406.061 33.0607C406.342 32.7794 406.5 32.3978 406.5 32C406.5 31.6022 406.342 31.2206 406.061 30.9393C405.779 30.658 405.398 30.5 405 30.5C404.602 30.5 404.221 30.658 403.939 30.9393C403.658 31.2206 403.5 31.6022 403.5 32C403.5 32.3978 403.658 32.7794 403.939 33.0607C404.221 33.342 404.602 33.5 405 33.5ZM411 32C411 32.3978 410.842 32.7794 410.561 33.0607C410.279 33.342 409.898 33.5 409.5 33.5C409.102 33.5 408.721 33.342 408.439 33.0607C408.158 32.7794 408 32.3978 408 32C408 31.6022 408.158 31.2206 408.439 30.9393C408.721 30.658 409.102 30.5 409.5 30.5C409.898 30.5 410.279 30.658 410.561 30.9393C410.842 31.2206 411 31.6022 411 32Z" fill="url(#paint1_linear_7_1097)"/>
<path fill-rule="evenodd" clip-rule="evenodd" d="M426.408 50.8445C423.013 49.874 419.874 53.0135 420.844 56.408L422.203 61.163C423.146 64.4615 427.286 65.534 429.711 63.1085L429.91 62.9105L431.742 64.742C432.023 65.0235 432.405 65.1817 432.803 65.1818C433.201 65.1819 433.582 65.024 433.864 64.7428C434.145 64.4615 434.303 64.0799 434.304 63.682C434.304 63.2841 434.146 62.9025 433.865 62.621L432.031 60.788L433.109 59.7125C435.534 57.2855 434.462 53.1455 431.161 52.2035L426.406 50.8445H426.408ZM426 42.5C426 42.1022 425.842 41.7206 425.561 41.4393C425.279 41.158 424.898 41 424.5 41C424.102 41 423.721 41.158 423.439 41.4393C423.158 41.7206 423 42.1022 423 42.5V45.5C423 45.8978 423.158 46.2794 423.439 46.5607C423.721 46.842 424.102 47 424.5 47C424.898 47 425.279 46.842 425.561 46.5607C425.842 46.2794 426 45.8978 426 45.5V42.5ZM413.56 42.9395C413.842 42.6583 414.223 42.5003 414.621 42.5003C415.019 42.5003 415.4 42.6583 415.682 42.9395L417.804 45.0605C418.085 45.342 418.243 45.7236 418.243 46.1215C418.243 46.5194 418.085 46.901 417.803 47.1823C417.522 47.4635 417.14 47.6214 416.742 47.6213C416.344 47.6212 415.963 47.463 415.682 47.1815L413.56 45.0605C413.279 44.7792 413.121 44.3977 413.121 44C413.121 43.6023 413.279 43.2208 413.56 42.9395ZM409.5 53C409.5 52.6022 409.658 52.2206 409.939 51.9393C410.221 51.658 410.602 51.5 411 51.5H414C414.398 51.5 414.779 51.658 415.061 51.9393C415.342 52.2206 415.5 52.6022 415.5 53C415.5 53.3978 415.342 53.7794 415.061 54.0607C414.779 54.342 414.398 54.5 414 54.5H411C410.602 54.5 410.221 54.342 409.939 54.0607C409.658 53.7794 409.5 53.3978 409.5 53Z" fill="white"/>
<path d="M399.044 105.616C394.368 105.616 391.148 102.928 390.952 98.756L394.76 98.084C394.844 100.688 396.72 102.396 399.184 102.396C401.312 102.396 402.628 101.22 402.628 99.68C402.628 98.42 401.76 97.608 399.688 97.02L396.944 96.236C393.304 95.256 391.708 93.548 391.708 90.58C391.708 86.996 394.312 84.504 398.596 84.504C402.516 84.504 405.26 86.828 405.512 90.356L401.788 91.14C401.704 89.068 400.36 87.696 398.54 87.696C396.776 87.696 395.628 88.788 395.628 90.216C395.628 91.532 396.44 92.316 398.4 92.848L401.116 93.604C404.868 94.584 406.576 96.32 406.576 99.316C406.576 102.984 403.748 105.616 399.044 105.616ZM409.377 105V85.12H421.669V88.452H413.325V93.296H420.549V96.292H413.325V101.64H421.949V105H409.377ZM433.684 105.616C427.692 105.616 423.772 101.444 423.772 95.06C423.772 88.676 427.692 84.504 433.684 84.504C439.648 84.504 443.568 88.676 443.568 95.06C443.568 101.416 439.648 105.616 433.684 105.616ZM433.684 102.116C437.212 102.116 439.508 99.316 439.508 95.06C439.508 90.804 437.212 88.004 433.684 88.004C430.156 88.004 427.86 90.804 427.86 95.06C427.86 99.316 430.156 102.116 433.684 102.116Z" fill="white"/>
<path d="M390.84 142V132.13H392.002V142H390.84ZM397.618 134.65C399.242 134.65 400.236 135.686 400.236 137.436V142H399.158V137.548C399.158 136.344 398.444 135.574 397.324 135.574C395.91 135.574 394.888 136.568 394.888 138.01V142H393.824V134.93H394.79L394.888 135.98H394.902C395.504 135.126 396.386 134.65 397.618 134.65ZM404.649 142.28C403.319 142.28 402.423 141.384 402.423 140.096V135.812H400.869V134.93H402.423V132.83L403.487 132.578V134.93H406.651V135.812H403.487V139.984C403.487 140.782 403.977 141.356 404.747 141.356C405.461 141.356 406.119 140.838 406.259 139.928L407.127 140.292C406.931 141.524 405.853 142.28 404.649 142.28ZM411.791 142.28C409.537 142.28 407.885 140.642 407.885 138.388C407.885 136.218 409.397 134.65 411.497 134.65C413.569 134.65 414.927 136.218 414.955 138.402C414.955 138.528 414.955 138.682 414.941 138.822H408.991C409.145 140.292 410.279 141.314 411.805 141.314C412.911 141.314 413.849 140.74 414.241 139.97L415.165 140.348C414.703 141.482 413.373 142.28 411.791 142.28ZM409.005 137.884H413.821C413.681 136.442 412.771 135.63 411.483 135.63C410.167 135.63 409.201 136.54 409.005 137.884ZM419.55 145.22C417.884 145.22 416.33 144.464 415.644 143.33L416.47 142.63C417.03 143.61 418.234 144.254 419.522 144.254C421.272 144.254 422.434 143.148 422.434 141.44V140.656H422.42C421.86 141.538 420.74 142.084 419.746 142.084C417.66 142.084 416.218 140.586 416.218 138.416C416.218 136.19 417.66 134.678 419.746 134.678C420.768 134.678 421.86 135.252 422.434 136.078H422.448L422.56 134.93H423.512V141.44C423.512 143.736 421.93 145.22 419.55 145.22ZM419.886 141.118C421.412 141.118 422.476 139.956 422.476 138.416C422.476 136.834 421.412 135.63 419.886 135.63C418.346 135.63 417.282 136.764 417.282 138.416C417.282 140.012 418.346 141.118 419.886 141.118ZM428.812 142.28C426.558 142.28 424.906 140.642 424.906 138.388C424.906 136.218 426.418 134.65 428.518 134.65C430.59 134.65 431.948 136.218 431.976 138.402C431.976 138.528 431.976 138.682 431.962 138.822H426.012C426.166 140.292 427.3 141.314 428.826 141.314C429.932 141.314 430.87 140.74 431.262 139.97L432.186 140.348C431.724 141.482 430.394 142.28 428.812 142.28ZM426.026 137.884H430.842C430.702 136.442 429.792 135.63 428.504 135.63C427.188 135.63 426.222 136.54 426.026 137.884ZM436.571 134.636C437.775 134.636 438.601 135.434 438.741 136.848L437.817 137.156C437.705 136.162 437.187 135.63 436.417 135.63C435.283 135.63 434.569 136.568 434.569 138.108V142H433.505V134.93H434.415L434.513 136.036H434.527C434.919 135.182 435.675 134.636 436.571 134.636ZM446.41 142.28C444.8 142.28 443.68 141.412 443.68 140.152C443.68 139.018 444.576 138.108 446.872 137.828L448.622 137.618C448.972 137.576 449.196 137.38 449.196 137.072C449.196 136.19 448.356 135.616 447.124 135.616C445.794 135.616 444.856 136.47 444.8 137.31L443.834 136.904C443.96 135.742 445.332 134.65 447.166 134.65C448.972 134.65 450.246 135.658 450.246 137.24V142H449.28L449.168 140.824H449.154C448.65 141.72 447.67 142.28 446.41 142.28ZM446.592 141.314C448.076 141.314 449.168 140.348 449.168 138.976V138.472L446.984 138.738C445.276 138.948 444.744 139.494 444.744 140.138C444.744 140.852 445.514 141.314 446.592 141.314ZM455.653 134.65C457.277 134.65 458.271 135.686 458.271 137.436V142H457.193V137.548C457.193 136.344 456.479 135.574 455.359 135.574C453.945 135.574 452.923 136.568 452.923 138.01V142H451.859V134.93H452.825L452.923 135.98H452.937C453.539 135.126 454.421 134.65 455.653 134.65ZM462.684 142.28C461.354 142.28 460.458 141.384 460.458 140.096V135.812H458.904V134.93H460.458V132.83L461.522 132.578V134.93H464.686V135.812H461.522V139.984C461.522 140.782 462.012 141.356 462.782 141.356C463.496 141.356 464.154 140.838 464.294 139.928L465.162 140.292C464.966 141.524 463.888 142.28 462.684 142.28ZM469.826 142.28C467.572 142.28 465.92 140.642 465.92 138.388C465.92 136.218 467.432 134.65 469.532 134.65C471.604 134.65 472.962 136.218 472.99 138.402C472.99 138.528 472.99 138.682 472.976 138.822H467.026C467.18 140.292 468.314 141.314 469.84 141.314C470.946 141.314 471.884 140.74 472.276 139.97L473.2 140.348C472.738 141.482 471.408 142.28 469.826 142.28ZM467.04 137.884H471.856C471.716 136.442 470.806 135.63 469.518 135.63C468.202 135.63 467.236 136.54 467.04 137.884ZM482.407 134.65C484.031 134.65 485.025 135.686 485.025 137.436V142H483.947V137.548C483.947 136.344 483.233 135.574 482.113 135.574C480.699 135.574 479.677 136.568 479.677 138.01V142H478.613V134.93H479.579L479.677 135.98H479.691C480.293 135.126 481.175 134.65 482.407 134.65ZM490.118 142.28C487.85 142.28 486.352 140.768 486.352 138.472C486.352 136.162 487.85 134.65 490.118 134.65C492.4 134.65 493.898 136.162 493.898 138.472C493.898 140.768 492.4 142.28 490.118 142.28ZM490.118 141.314C491.756 141.314 492.82 140.194 492.82 138.472C492.82 136.75 491.756 135.63 490.118 135.63C488.48 135.63 487.416 136.75 487.416 138.472C487.416 140.194 488.48 141.314 490.118 141.314ZM499.087 134.65C500.711 134.65 501.705 135.686 501.705 137.436V142H500.627V137.548C500.627 136.344 499.913 135.574 498.793 135.574C497.379 135.574 496.357 136.568 496.357 138.01V142H495.293V134.93H496.259L496.357 135.98H496.371C496.973 135.126 497.855 134.65 499.087 134.65ZM511.199 134.65C512.823 134.65 513.817 135.686 513.817 137.436V142H512.739V137.548C512.739 136.344 512.025 135.574 510.905 135.574C509.491 135.574 508.469 136.568 508.469 138.01V142H507.405V134.93H508.371L508.469 135.98H508.483C509.085 135.126 509.967 134.65 511.199 134.65ZM517.972 142.28C516.348 142.28 515.354 141.244 515.354 139.494V134.93H516.432V139.382C516.432 140.586 517.146 141.356 518.266 141.356C519.68 141.356 520.702 140.362 520.702 138.92V134.93H521.766V142H520.8L520.702 140.95H520.688C520.086 141.804 519.204 142.28 517.972 142.28ZM527.236 134.65C528.86 134.65 529.854 135.686 529.854 137.436V142H528.776V137.548C528.776 136.344 528.062 135.574 526.942 135.574C525.528 135.574 524.506 136.568 524.506 138.01V142H523.442V134.93H524.408L524.506 135.98H524.52C525.122 135.126 526.004 134.65 527.236 134.65ZM534.918 142.28C532.72 142.28 531.18 140.698 531.18 138.472C531.18 136.232 532.636 134.65 534.708 134.65C536.304 134.65 537.606 135.644 537.956 137.072L536.92 137.31C536.64 136.288 535.744 135.63 534.708 135.63C533.294 135.63 532.244 136.778 532.244 138.472C532.244 140.166 533.378 141.314 534.918 141.314C536.206 141.314 537.27 140.488 537.466 139.27L538.502 139.48C538.236 141.104 536.738 142.28 534.918 142.28ZM539.352 143.848L539.506 143.358C540.206 143.568 540.794 142.924 540.752 142.084C540.136 142.308 539.646 141.902 539.66 141.398C539.66 140.95 539.982 140.642 540.416 140.642C540.92 140.642 541.284 141.062 541.284 141.986C541.284 143.344 540.472 144.128 539.352 143.848ZM550.541 142.28C548.287 142.28 546.635 140.642 546.635 138.388C546.635 136.218 548.147 134.65 550.247 134.65C552.319 134.65 553.677 136.218 553.705 138.402C553.705 138.528 553.705 138.682 553.691 138.822H547.741C547.895 140.292 549.029 141.314 550.555 141.314C551.661 141.314 552.599 140.74 552.991 139.97L553.915 140.348C553.453 141.482 552.123 142.28 550.541 142.28ZM547.755 137.884H552.571C552.431 136.442 551.521 135.63 550.233 135.63C548.917 135.63 547.951 136.54 547.755 137.884ZM558.3 145.22C556.634 145.22 555.08 144.464 554.394 143.33L555.22 142.63C555.78 143.61 556.984 144.254 558.272 144.254C560.022 144.254 561.184 143.148 561.184 141.44V140.656H561.17C560.61 141.538 559.49 142.084 558.496 142.084C556.41 142.084 554.968 140.586 554.968 138.416C554.968 136.19 556.41 134.678 558.496 134.678C559.518 134.678 560.61 135.252 561.184 136.078H561.198L561.31 134.93H562.262V141.44C562.262 143.736 560.68 145.22 558.3 145.22ZM558.636 141.118C560.162 141.118 561.226 139.956 561.226 138.416C561.226 136.834 560.162 135.63 558.636 135.63C557.096 135.63 556.032 136.764 556.032 138.416C556.032 140.012 557.096 141.118 558.636 141.118ZM567.562 142.28C565.308 142.28 563.656 140.642 563.656 138.388C563.656 136.218 565.168 134.65 567.268 134.65C569.34 134.65 570.698 136.218 570.726 138.402C570.726 138.528 570.726 138.682 570.712 138.822H564.762C564.916 140.292 566.05 141.314 567.576 141.314C568.682 141.314 569.62 140.74 570.012 139.97L570.936 140.348C570.474 141.482 569.144 142.28 567.562 142.28ZM564.776 137.884H569.592C569.452 136.442 568.542 135.63 567.254 135.63C565.938 135.63 564.972 136.54 564.776 137.884ZM575.062 142.28C573.732 142.28 572.836 141.384 572.836 140.096V135.812H571.282V134.93H572.836V132.83L573.9 132.578V134.93H577.064V135.812H573.9V139.984C573.9 140.782 574.39 141.356 575.16 141.356C575.874 141.356 576.532 140.838 576.672 139.928L577.54 140.292C577.344 141.524 576.266 142.28 575.062 142.28ZM586.299 142.28C584.045 142.28 582.393 140.642 582.393 138.388C582.393 136.218 583.905 134.65 586.005 134.65C588.077 134.65 589.435 136.218 589.463 138.402C589.463 138.528 589.463 138.682 589.449 138.822H583.499C583.653 140.292 584.787 141.314 586.313 141.314C587.419 141.314 588.357 140.74 588.749 139.97L589.673 140.348C589.211 141.482 587.881 142.28 586.299 142.28ZM583.513 137.884H588.329C588.189 136.442 587.279 135.63 585.991 135.63C584.675 135.63 583.709 136.54 583.513 137.884ZM593.918 142.28C592.154 142.28 590.698 141.37 590.572 139.858L591.622 139.648C591.706 140.628 592.658 141.314 593.918 141.314C595.024 141.314 595.878 140.796 595.878 140.068C595.878 139.522 595.36 139.186 594.17 138.948L593.05 138.724C591.58 138.416 590.95 137.828 590.95 136.792C590.964 135.56 592.056 134.65 593.568 134.65C595.052 134.65 596.158 135.448 596.424 136.596L595.402 136.876C595.304 136.134 594.562 135.588 593.554 135.588C592.658 135.588 592 136.134 591.986 136.736C591.986 137.254 592.406 137.548 593.386 137.758L594.534 137.982C596.2 138.332 596.914 138.92 596.914 139.97C596.914 141.3 595.626 142.28 593.918 142.28ZM600.983 142.28C599.653 142.28 598.757 141.384 598.757 140.096V135.812H597.203V134.93H598.757V132.83L599.821 132.578V134.93H602.985V135.812H599.821V139.984C599.821 140.782 600.311 141.356 601.081 141.356C601.795 141.356 602.453 140.838 602.593 139.928L603.461 140.292C603.265 141.524 602.187 142.28 600.983 142.28ZM609.252 133.558C608.79 133.558 608.468 133.236 608.468 132.774C608.468 132.326 608.79 132.004 609.252 132.004C609.714 132.004 610.05 132.326 610.05 132.774C610.05 133.236 609.714 133.558 609.252 133.558ZM607.628 145.22C607.292 145.22 606.914 145.164 606.62 145.024L606.746 144.142C607.012 144.24 607.306 144.282 607.544 144.282C608.272 144.282 608.706 143.806 608.706 143.008V134.93H609.784V143.106C609.784 144.422 608.972 145.22 607.628 145.22ZM614.142 142.28C612.518 142.28 611.524 141.244 611.524 139.494V134.93H612.602V139.382C612.602 140.586 613.316 141.356 614.436 141.356C615.85 141.356 616.872 140.362 616.872 138.92V134.93H617.936V142H616.97L616.872 140.95H616.858C616.256 141.804 615.374 142.28 614.142 142.28ZM622.539 142.28C620.775 142.28 619.319 141.37 619.193 139.858L620.243 139.648C620.327 140.628 621.279 141.314 622.539 141.314C623.645 141.314 624.499 140.796 624.499 140.068C624.499 139.522 623.981 139.186 622.791 138.948L621.671 138.724C620.201 138.416 619.571 137.828 619.571 136.792C619.585 135.56 620.677 134.65 622.189 134.65C623.673 134.65 624.779 135.448 625.045 136.596L624.023 136.876C623.925 136.134 623.183 135.588 622.175 135.588C621.279 135.588 620.621 136.134 620.607 136.736C620.607 137.254 621.027 137.548 622.007 137.758L623.155 137.982C624.821 138.332 625.535 138.92 625.535 139.97C625.535 141.3 624.247 142.28 622.539 142.28ZM629.603 142.28C628.273 142.28 627.377 141.384 627.377 140.096V135.812H625.823V134.93H627.377V132.83L628.441 132.578V134.93H631.605V135.812H628.441V139.984C628.441 140.782 628.931 141.356 629.701 141.356C630.415 141.356 631.073 140.838 631.213 139.928L632.081 140.292C631.885 141.524 630.807 142.28 629.603 142.28ZM636.606 142.28C634.338 142.28 632.84 140.768 632.84 138.472C632.84 136.162 634.338 134.65 636.606 134.65C638.888 134.65 640.386 136.162 640.386 138.472C640.386 140.768 638.888 142.28 636.606 142.28ZM636.606 141.314C638.244 141.314 639.308 140.194 639.308 138.472C639.308 136.75 638.244 135.63 636.606 135.63C634.968 135.63 633.904 136.75 633.904 138.472C633.904 140.194 634.968 141.314 636.606 141.314ZM648.115 142L645.329 134.93H646.463L648.815 141.062H648.829L651.181 134.93H652.301L649.501 142H648.115ZM656.767 142.28C654.513 142.28 652.861 140.642 652.861 138.388C652.861 136.218 654.373 134.65 656.473 134.65C658.545 134.65 659.903 136.218 659.931 138.402C659.931 138.528 659.931 138.682 659.917 138.822H653.967C654.121 140.292 655.255 141.314 656.781 141.314C657.887 141.314 658.825 140.74 659.217 139.97L660.141 140.348C659.679 141.482 658.349 142.28 656.767 142.28ZM653.981 137.884H658.797C658.657 136.442 657.747 135.63 656.459 135.63C655.143 135.63 654.177 136.54 653.981 137.884ZM661.461 142V131.71H662.525V142H661.461ZM393.626 162.28C391.862 162.28 390.406 161.37 390.28 159.858L391.33 159.648C391.414 160.628 392.366 161.314 393.626 161.314C394.732 161.314 395.586 160.796 395.586 160.068C395.586 159.522 395.068 159.186 393.878 158.948L392.758 158.724C391.288 158.416 390.658 157.828 390.658 156.792C390.672 155.56 391.764 154.65 393.276 154.65C394.76 154.65 395.866 155.448 396.132 156.596L395.11 156.876C395.012 156.134 394.27 155.588 393.262 155.588C392.366 155.588 391.708 156.134 391.694 156.736C391.694 157.254 392.114 157.548 393.094 157.758L394.242 157.982C395.908 158.332 396.622 158.92 396.622 159.97C396.622 161.3 395.334 162.28 393.626 162.28ZM401.51 162.28C399.256 162.28 397.604 160.642 397.604 158.388C397.604 156.218 399.116 154.65 401.216 154.65C403.288 154.65 404.646 156.218 404.674 158.402C404.674 158.528 404.674 158.682 404.66 158.822H398.71C398.864 160.292 399.998 161.314 401.524 161.314C402.63 161.314 403.568 160.74 403.96 159.97L404.884 160.348C404.422 161.482 403.092 162.28 401.51 162.28ZM398.724 157.884H403.54C403.4 156.442 402.49 155.63 401.202 155.63C399.886 155.63 398.92 156.54 398.724 157.884ZM406.203 162V154.93H407.127L407.239 155.966H407.253C407.673 155.14 408.597 154.65 409.731 154.65C410.851 154.65 411.607 155.168 411.971 156.078H411.985C412.615 155.084 413.595 154.65 414.645 154.65C416.185 154.65 417.095 155.63 417.095 157.296V162H416.017V157.366C416.017 156.274 415.387 155.63 414.323 155.63C412.979 155.63 412.181 156.638 412.181 158.066V162H411.117V157.366C411.117 156.274 410.487 155.63 409.409 155.63C408.065 155.63 407.267 156.638 407.267 158.066V162H406.203ZM418.706 164.94V154.93H419.63L419.742 156.148H419.756C420.358 155.21 421.324 154.65 422.514 154.65C424.586 154.65 426.112 156.26 426.112 158.472C426.112 160.67 424.586 162.28 422.528 162.28C421.352 162.28 420.4 161.734 419.784 160.824H419.77V164.94H418.706ZM422.388 161.3C423.928 161.3 425.034 160.068 425.034 158.472C425.034 156.834 423.914 155.63 422.388 155.63C420.862 155.63 419.742 156.862 419.742 158.472C419.742 160.068 420.862 161.3 422.388 161.3ZM431.143 162.28C428.889 162.28 427.237 160.642 427.237 158.388C427.237 156.218 428.749 154.65 430.849 154.65C432.921 154.65 434.279 156.218 434.307 158.402C434.307 158.528 434.307 158.682 434.293 158.822H428.343C428.497 160.292 429.631 161.314 431.157 161.314C432.263 161.314 433.201 160.74 433.593 159.97L434.517 160.348C434.055 161.482 432.725 162.28 431.143 162.28ZM428.357 157.884H433.173C433.033 156.442 432.123 155.63 430.835 155.63C429.519 155.63 428.553 156.54 428.357 157.884ZM438.902 154.636C440.106 154.636 440.932 155.434 441.072 156.848L440.148 157.156C440.036 156.162 439.518 155.63 438.748 155.63C437.614 155.63 436.9 156.568 436.9 158.108V162H435.836V154.93H436.746L436.844 156.036H436.858C437.25 155.182 438.006 154.636 438.902 154.636ZM450.225 154.65C451.849 154.65 452.843 155.686 452.843 157.436V162H451.765V157.548C451.765 156.344 451.051 155.574 449.931 155.574C448.517 155.574 447.495 156.568 447.495 158.01V162H446.431V154.93H447.397L447.495 155.98H447.509C448.111 155.126 448.993 154.65 450.225 154.65ZM456.998 162.28C455.374 162.28 454.38 161.244 454.38 159.494V154.93H455.458V159.382C455.458 160.586 456.172 161.356 457.292 161.356C458.706 161.356 459.728 160.362 459.728 158.92V154.93H460.792V162H459.826L459.728 160.95H459.714C459.112 161.804 458.23 162.28 456.998 162.28ZM466.262 154.65C467.886 154.65 468.88 155.686 468.88 157.436V162H467.802V157.548C467.802 156.344 467.088 155.574 465.968 155.574C464.554 155.574 463.532 156.568 463.532 158.01V162H462.468V154.93H463.434L463.532 155.98H463.546C464.148 155.126 465.03 154.65 466.262 154.65ZM473.944 162.28C471.746 162.28 470.206 160.698 470.206 158.472C470.206 156.232 471.662 154.65 473.734 154.65C475.33 154.65 476.632 155.644 476.982 157.072L475.946 157.31C475.666 156.288 474.77 155.63 473.734 155.63C472.32 155.63 471.27 156.778 471.27 158.472C471.27 160.166 472.404 161.314 473.944 161.314C475.232 161.314 476.296 160.488 476.492 159.27L477.528 159.48C477.262 161.104 475.764 162.28 473.944 162.28ZM479.162 162.168C478.7 162.168 478.378 161.846 478.378 161.384C478.378 160.936 478.7 160.614 479.162 160.614C479.624 160.614 479.96 160.936 479.96 161.384C479.96 161.846 479.624 162.168 479.162 162.168ZM485.74 162V152.13H486.902V160.964H491.956V162H485.74ZM495.381 162.28C493.771 162.28 492.651 161.412 492.651 160.152C492.651 159.018 493.547 158.108 495.843 157.828L497.593 157.618C497.943 157.576 498.167 157.38 498.167 157.072C498.167 156.19 497.327 155.616 496.095 155.616C494.765 155.616 493.827 156.47 493.771 157.31L492.805 156.904C492.931 155.742 494.303 154.65 496.137 154.65C497.943 154.65 499.217 155.658 499.217 157.24V162H498.251L498.139 160.824H498.125C497.621 161.72 496.641 162.28 495.381 162.28ZM495.563 161.314C497.047 161.314 498.139 160.348 498.139 158.976V158.472L495.955 158.738C494.247 158.948 493.715 159.494 493.715 160.138C493.715 160.852 494.485 161.314 495.563 161.314ZM504.288 162.28C502.09 162.28 500.55 160.698 500.55 158.472C500.55 156.232 502.006 154.65 504.078 154.65C505.674 154.65 506.976 155.644 507.326 157.072L506.29 157.31C506.01 156.288 505.114 155.63 504.078 155.63C502.664 155.63 501.614 156.778 501.614 158.472C501.614 160.166 502.748 161.314 504.288 161.314C505.576 161.314 506.64 160.488 506.836 159.27L507.872 159.48C507.606 161.104 506.108 162.28 504.288 162.28ZM511.683 162.28C510.059 162.28 509.065 161.244 509.065 159.494V154.93H510.143V159.382C510.143 160.586 510.857 161.356 511.977 161.356C513.391 161.356 514.413 160.362 514.413 158.92V154.93H515.477V162H514.511L514.413 160.95H514.399C513.797 161.804 512.915 162.28 511.683 162.28ZM520.079 162.28C518.315 162.28 516.859 161.37 516.733 159.858L517.783 159.648C517.867 160.628 518.819 161.314 520.079 161.314C521.185 161.314 522.039 160.796 522.039 160.068C522.039 159.522 521.521 159.186 520.331 158.948L519.211 158.724C517.741 158.416 517.111 157.828 517.111 156.792C517.125 155.56 518.217 154.65 519.729 154.65C521.213 154.65 522.319 155.448 522.585 156.596L521.563 156.876C521.465 156.134 520.723 155.588 519.715 155.588C518.819 155.588 518.161 156.134 518.147 156.736C518.147 157.254 518.567 157.548 519.547 157.758L520.695 157.982C522.361 158.332 523.075 158.92 523.075 159.97C523.075 161.3 521.787 162.28 520.079 162.28Z" fill="white" fill-opacity="0.6"/>
<rect x="370.5" y="0.5" width="337" height="207" rx="3.5" stroke="#A1AEBF"/>
<path fill-rule="evenodd" clip-rule="evenodd" d="M779.5 39.5C779.5 37.0146 781.515 35 784 35C786.485 35 788.5 37.0146 788.5 39.5V41C788.5 43.4853 786.485 45.5 784 45.5C781.515 45.5 779.5 43.4853 779.5 41V39.5ZM778.816 50.8158C779.338 50.2935 780.047 50 780.786 50H787.214C787.953 50 788.662 50.2935 789.184 50.8158C789.706 51.3383 790 52.0469 790 52.7856C790 53.6141 790.672 54.2856 791.5 54.2856C792.328 54.2856 793 53.6141 793 52.7856C793 51.2513 792.39 49.7796 791.305 48.6945C790.22 47.6096 788.749 47 787.214 47H780.786C779.251 47 777.78 47.6096 776.695 48.6945C775.61 49.7796 775 51.2513 775 52.7856C775 53.6141 775.672 54.2856 776.5 54.2856C777.328 54.2856 778 53.6141 778 52.7856C778 52.0469 778.294 51.3383 778.816 50.8158Z" fill="white"/>
<path fill-rule="evenodd" clip-rule="evenodd" d="M763 44C763 32.402 772.402 23 784 23C795.598 23 805 32.402 805 44C805 55.598 795.598 65 784 65C772.402 65 763 55.598 763 44ZM782.5 26.0616V27.5C782.5 28.3284 783.172 29 784 29C784.828 29 785.5 28.3284 785.5 27.5V26.0616C794.245 26.783 801.217 33.7553 801.938 42.5H800.5C799.672 42.5 799 43.1716 799 44C799 44.8284 799.672 45.5 800.5 45.5H801.938C801.217 54.2447 794.245 61.217 785.5 61.9384V60.5C785.5 59.6716 784.828 59 784 59C783.172 59 782.5 59.6716 782.5 60.5V61.9384C773.755 61.217 766.783 54.2447 766.062 45.5H767.5C768.328 45.5 769 44.8284 769 44C769 43.1716 768.328 42.5 767.5 42.5H766.062C766.783 33.7553 773.755 26.783 782.5 26.0616Z" fill="url(#paint2_linear_7_1097)"/>
<path d="M769.604 105.616C764.704 105.616 761.708 102.732 761.708 98.112V85.12H765.768V97.944C765.768 100.38 767.252 102.116 769.604 102.116C771.956 102.116 773.412 100.464 773.412 97.916V85.12H777.5V98.112C777.5 102.732 774.476 105.616 769.604 105.616ZM786.531 105.448C782.975 105.448 780.231 103.684 780.119 100.436L783.423 99.904C783.507 101.752 784.823 102.788 786.643 102.788C788.127 102.788 789.247 102.144 789.247 101.136C789.219 100.268 788.463 99.764 786.699 99.316L784.655 98.784C781.939 98.084 780.763 96.852 780.791 94.724C780.791 92.008 783.031 90.244 786.195 90.244C789.191 90.244 791.571 91.84 791.795 94.612L788.519 95.144C788.435 93.66 787.455 92.876 786.083 92.876C784.879 92.876 784.067 93.548 784.067 94.416C784.039 95.228 784.739 95.732 786.363 96.208L788.407 96.74C791.347 97.524 792.663 98.756 792.663 100.828C792.663 103.628 790.087 105.448 786.531 105.448ZM802.146 105.476C797.638 105.476 794.698 102.424 794.698 97.72C794.698 93.184 797.358 90.244 801.502 90.244C805.506 90.244 808.054 93.1 808.054 97.58C808.054 98.112 808.026 98.644 807.942 98.924H798.338C798.534 101.22 799.99 102.648 802.146 102.648C803.742 102.648 805.002 101.836 805.534 100.436L808.362 101.556C807.578 103.992 805.114 105.476 802.146 105.476ZM798.338 96.544H804.358C804.246 94.332 803.21 93.072 801.502 93.072C799.654 93.072 798.59 94.388 798.338 96.544ZM818.007 90.3C820.359 90.3 821.815 92.064 821.927 95.116L818.847 95.984C818.763 94.164 818.063 93.156 816.943 93.156C815.487 93.156 814.619 94.696 814.619 97.328V105H810.951V90.72H813.919L814.367 93.1H814.395C815.039 91.336 816.383 90.3 818.007 90.3ZM836.796 105.448C833.828 105.448 832.092 103.684 832.092 100.884V93.52H829.628V90.72H832.092V86.856L835.732 86.044V90.72H840.576V93.52H835.732V100.24C835.732 101.612 836.376 102.424 837.468 102.424C838.504 102.424 839.288 101.808 839.624 100.296L841.388 102.228C840.828 104.272 839.092 105.448 836.796 105.448ZM850.298 105.476C845.79 105.476 842.85 102.424 842.85 97.72C842.85 93.184 845.51 90.244 849.654 90.244C853.658 90.244 856.206 93.1 856.206 97.58C856.206 98.112 856.178 98.644 856.094 98.924H846.49C846.686 101.22 848.142 102.648 850.298 102.648C851.894 102.648 853.154 101.836 853.686 100.436L856.514 101.556C855.73 103.992 853.266 105.476 850.298 105.476ZM846.49 96.544H852.51C852.398 94.332 851.362 93.072 849.654 93.072C847.806 93.072 846.742 94.388 846.49 96.544ZM864.844 105.448C861.288 105.448 858.544 103.684 858.432 100.436L861.736 99.904C861.82 101.752 863.136 102.788 864.956 102.788C866.44 102.788 867.56 102.144 867.56 101.136C867.532 100.268 866.776 99.764 865.012 99.316L862.968 98.784C860.252 98.084 859.076 96.852 859.104 94.724C859.104 92.008 861.344 90.244 864.508 90.244C867.504 90.244 869.884 91.84 870.108 94.612L866.832 95.144C866.748 93.66 865.768 92.876 864.396 92.876C863.192 92.876 862.38 93.548 862.38 94.416C862.352 95.228 863.052 95.732 864.676 96.208L866.72 96.74C869.66 97.524 870.976 98.756 870.976 100.828C870.976 103.628 868.4 105.448 864.844 105.448ZM879.042 105.448C876.074 105.448 874.338 103.684 874.338 100.884V93.52H871.874V90.72H874.338V86.856L877.978 86.044V90.72H882.822V93.52H877.978V100.24C877.978 101.612 878.622 102.424 879.714 102.424C880.75 102.424 881.534 101.808 881.87 100.296L883.634 102.228C883.074 104.272 881.338 105.448 879.042 105.448ZM887.725 88.508C886.381 88.508 885.457 87.612 885.457 86.268C885.457 84.952 886.381 84.056 887.725 84.056C889.097 84.056 890.021 84.952 890.021 86.268C890.021 87.612 889.097 88.508 887.725 88.508ZM885.877 105V90.72H889.545V105H885.877ZM900.992 90.328C903.652 90.328 905.276 92.036 905.276 94.948V105H901.636V95.648C901.636 94.192 900.824 93.324 899.508 93.324C897.744 93.324 896.596 94.556 896.596 96.516V105H892.928V90.72H896.008L896.484 92.876H896.512C897.408 91.252 899.004 90.328 900.992 90.328ZM913.977 111.356C911.093 111.356 908.405 110.208 907.089 108.472L908.909 105.952C910.001 107.352 911.821 108.276 913.641 108.276C916.301 108.276 917.981 106.624 917.981 104.02V102.536H917.953C917.113 104.076 915.433 105.168 913.669 105.168C910.197 105.168 907.929 102.284 907.929 97.832C907.929 93.24 910.197 90.3 913.613 90.3C915.489 90.3 917.197 91.308 917.981 92.904H918.009L918.429 90.72H921.621L921.649 104.076C921.649 108.584 918.681 111.356 913.977 111.356ZM914.845 102.116C916.805 102.116 918.121 100.352 918.121 97.776C918.121 95.172 916.805 93.38 914.845 93.38C912.885 93.38 911.597 95.116 911.597 97.776C911.597 100.408 912.885 102.116 914.845 102.116Z" fill="white"/>
<path d="M764.55 142.35C762.268 142.35 760.504 140.922 760.28 138.892L761.428 138.682C761.526 140.222 762.828 141.314 764.55 141.314C766.104 141.314 767.056 140.488 767.056 139.41C767.056 138.542 766.44 138.024 764.998 137.688L763.402 137.324C761.652 136.918 760.826 136.12 760.826 134.804C760.826 133.026 762.156 131.78 764.172 131.78C765.978 131.78 767.35 132.914 767.63 134.566L766.524 134.846C766.384 133.642 765.446 132.816 764.186 132.816C762.842 132.816 761.988 133.586 761.988 134.608C761.988 135.448 762.52 135.924 763.766 136.204L765.362 136.568C767.266 136.988 768.218 137.884 768.218 139.228C768.218 141.034 766.776 142.35 764.55 142.35ZM773.11 142.28C770.856 142.28 769.204 140.642 769.204 138.388C769.204 136.218 770.716 134.65 772.816 134.65C774.888 134.65 776.246 136.218 776.274 138.402C776.274 138.528 776.274 138.682 776.26 138.822H770.31C770.464 140.292 771.598 141.314 773.124 141.314C774.23 141.314 775.168 140.74 775.56 139.97L776.484 140.348C776.022 141.482 774.692 142.28 773.11 142.28ZM770.324 137.884H775.14C775 136.442 774.09 135.63 772.802 135.63C771.486 135.63 770.52 136.54 770.324 137.884ZM781.121 142.28C779.049 142.28 777.523 140.67 777.523 138.472C777.523 136.26 779.035 134.65 781.107 134.65C782.283 134.65 783.235 135.196 783.837 136.12H783.851V131.71H784.929V142H783.991L783.893 140.782H783.879C783.277 141.72 782.297 142.28 781.121 142.28ZM781.247 141.314C782.773 141.314 783.893 140.068 783.893 138.472C783.893 136.862 782.773 135.63 781.247 135.63C779.707 135.63 778.587 136.862 778.587 138.472C778.587 140.096 779.721 141.314 781.247 141.314ZM791.563 142L791.549 135.812H789.995V134.93H791.549V133.698C791.549 132.396 792.473 131.5 793.845 131.5C795.091 131.5 796.015 132.256 796.267 133.306L795.329 133.698C795.175 132.97 794.587 132.424 793.887 132.424C793.145 132.424 792.613 133.012 792.613 133.88V134.93H795.665V135.812H792.613L792.627 142H791.563ZM799 142.28C797.39 142.28 796.27 141.412 796.27 140.152C796.27 139.018 797.166 138.108 799.462 137.828L801.212 137.618C801.562 137.576 801.786 137.38 801.786 137.072C801.786 136.19 800.946 135.616 799.714 135.616C798.384 135.616 797.446 136.47 797.39 137.31L796.424 136.904C796.55 135.742 797.922 134.65 799.756 134.65C801.562 134.65 802.836 135.658 802.836 137.24V142H801.87L801.758 140.824H801.744C801.24 141.72 800.26 142.28 799 142.28ZM799.182 141.314C800.666 141.314 801.758 140.348 801.758 138.976V138.472L799.574 138.738C797.866 138.948 797.334 139.494 797.334 140.138C797.334 140.852 798.104 141.314 799.182 141.314ZM806.996 142.28C805.372 142.28 804.378 141.244 804.378 139.494V134.93H805.456V139.382C805.456 140.586 806.17 141.356 807.29 141.356C808.704 141.356 809.726 140.362 809.726 138.92V134.93H810.79V142H809.824L809.726 140.95H809.712C809.11 141.804 808.228 142.28 806.996 142.28ZM815.925 142.28C813.727 142.28 812.187 140.698 812.187 138.472C812.187 136.232 813.643 134.65 815.715 134.65C817.311 134.65 818.613 135.644 818.963 137.072L817.927 137.31C817.647 136.288 816.751 135.63 815.715 135.63C814.301 135.63 813.251 136.778 813.251 138.472C813.251 140.166 814.385 141.314 815.925 141.314C817.213 141.314 818.277 140.488 818.473 139.27L819.509 139.48C819.243 141.104 817.745 142.28 815.925 142.28ZM821.416 133.558C820.94 133.558 820.632 133.25 820.632 132.774C820.632 132.312 820.94 132.004 821.416 132.004C821.878 132.004 822.214 132.312 822.214 132.774C822.214 133.25 821.878 133.558 821.416 133.558ZM820.87 142V134.93H821.934V142H820.87ZM827.567 142.28C826.377 142.28 825.411 141.72 824.809 140.782H824.795L824.683 142H823.759V131.71H824.823V136.12H824.837C825.453 135.196 826.405 134.65 827.581 134.65C829.639 134.65 831.165 136.26 831.165 138.472C831.165 140.67 829.639 142.28 827.567 142.28ZM827.441 141.314C828.967 141.314 830.087 140.096 830.087 138.472C830.087 136.862 828.981 135.63 827.441 135.63C825.915 135.63 824.795 136.862 824.795 138.472C824.795 140.068 825.915 141.314 827.441 141.314ZM835.118 142.28C833.494 142.28 832.5 141.244 832.5 139.494V134.93H833.578V139.382C833.578 140.586 834.292 141.356 835.412 141.356C836.826 141.356 837.848 140.362 837.848 138.92V134.93H838.912V142H837.946L837.848 140.95H837.834C837.232 141.804 836.35 142.28 835.118 142.28ZM843.515 142.28C841.751 142.28 840.295 141.37 840.169 139.858L841.219 139.648C841.303 140.628 842.255 141.314 843.515 141.314C844.621 141.314 845.475 140.796 845.475 140.068C845.475 139.522 844.957 139.186 843.767 138.948L842.647 138.724C841.177 138.416 840.547 137.828 840.547 136.792C840.561 135.56 841.653 134.65 843.165 134.65C844.649 134.65 845.755 135.448 846.021 136.596L844.999 136.876C844.901 136.134 844.159 135.588 843.151 135.588C842.255 135.588 841.597 136.134 841.583 136.736C841.583 137.254 842.003 137.548 842.983 137.758L844.131 137.982C845.797 138.332 846.511 138.92 846.511 139.97C846.511 141.3 845.223 142.28 843.515 142.28ZM852.721 142L852.707 135.812H851.153V134.93H852.707V133.698C852.707 132.396 853.631 131.5 855.003 131.5C856.249 131.5 857.173 132.256 857.425 133.306L856.487 133.698C856.333 132.97 855.745 132.424 855.045 132.424C854.303 132.424 853.771 133.012 853.771 133.88V134.93H856.823V135.812H853.771L853.785 142H852.721ZM860.159 142.28C858.549 142.28 857.429 141.412 857.429 140.152C857.429 139.018 858.325 138.108 860.621 137.828L862.371 137.618C862.721 137.576 862.945 137.38 862.945 137.072C862.945 136.19 862.105 135.616 860.873 135.616C859.543 135.616 858.605 136.47 858.549 137.31L857.583 136.904C857.709 135.742 859.081 134.65 860.915 134.65C862.721 134.65 863.995 135.658 863.995 137.24V142H863.029L862.917 140.824H862.903C862.399 141.72 861.419 142.28 860.159 142.28ZM860.341 141.314C861.825 141.314 862.917 140.348 862.917 138.976V138.472L860.733 138.738C859.025 138.948 858.493 139.494 858.493 140.138C858.493 140.852 859.263 141.314 860.341 141.314ZM868.155 142.28C866.531 142.28 865.537 141.244 865.537 139.494V134.93H866.615V139.382C866.615 140.586 867.329 141.356 868.449 141.356C869.863 141.356 870.885 140.362 870.885 138.92V134.93H871.949V142H870.983L870.885 140.95H870.871C870.269 141.804 869.387 142.28 868.155 142.28ZM877.083 142.28C874.885 142.28 873.345 140.698 873.345 138.472C873.345 136.232 874.801 134.65 876.873 134.65C878.469 134.65 879.771 135.644 880.121 137.072L879.085 137.31C878.805 136.288 877.909 135.63 876.873 135.63C875.459 135.63 874.409 136.778 874.409 138.472C874.409 140.166 875.543 141.314 877.083 141.314C878.371 141.314 879.435 140.488 879.631 139.27L880.667 139.48C880.401 141.104 878.903 142.28 877.083 142.28ZM882.575 133.558C882.099 133.558 881.791 133.25 881.791 132.774C881.791 132.312 882.099 132.004 882.575 132.004C883.037 132.004 883.373 132.312 883.373 132.774C883.373 133.25 883.037 133.558 882.575 133.558ZM882.029 142V134.93H883.093V142H882.029ZM888.726 142.28C887.536 142.28 886.57 141.72 885.968 140.782H885.954L885.842 142H884.918V131.71H885.982V136.12H885.996C886.612 135.196 887.564 134.65 888.74 134.65C890.798 134.65 892.324 136.26 892.324 138.472C892.324 140.67 890.798 142.28 888.726 142.28ZM888.6 141.314C890.126 141.314 891.246 140.096 891.246 138.472C891.246 136.862 890.14 135.63 888.6 135.63C887.074 135.63 885.954 136.862 885.954 138.472C885.954 140.068 887.074 141.314 888.6 141.314ZM896.277 142.28C894.653 142.28 893.659 141.244 893.659 139.494V134.93H894.737V139.382C894.737 140.586 895.451 141.356 896.571 141.356C897.985 141.356 899.007 140.362 899.007 138.92V134.93H900.071V142H899.105L899.007 140.95H898.993C898.391 141.804 897.509 142.28 896.277 142.28ZM904.673 142.28C902.909 142.28 901.453 141.37 901.327 139.858L902.377 139.648C902.461 140.628 903.413 141.314 904.673 141.314C905.779 141.314 906.633 140.796 906.633 140.068C906.633 139.522 906.115 139.186 904.925 138.948L903.805 138.724C902.335 138.416 901.705 137.828 901.705 136.792C901.719 135.56 902.811 134.65 904.323 134.65C905.807 134.65 906.913 135.448 907.179 136.596L906.157 136.876C906.059 136.134 905.317 135.588 904.309 135.588C903.413 135.588 902.755 136.134 902.741 136.736C902.741 137.254 903.161 137.548 904.141 137.758L905.289 137.982C906.955 138.332 907.669 138.92 907.669 139.97C907.669 141.3 906.381 142.28 904.673 142.28ZM916.652 142.28C914.398 142.28 912.746 140.642 912.746 138.388C912.746 136.218 914.258 134.65 916.358 134.65C918.43 134.65 919.788 136.218 919.816 138.402C919.816 138.528 919.816 138.682 919.802 138.822H913.852C914.006 140.292 915.14 141.314 916.666 141.314C917.772 141.314 918.71 140.74 919.102 139.97L920.026 140.348C919.564 141.482 918.234 142.28 916.652 142.28ZM913.866 137.884H918.682C918.542 136.442 917.632 135.63 916.344 135.63C915.028 135.63 914.062 136.54 913.866 137.884ZM924.411 145.22C922.745 145.22 921.191 144.464 920.505 143.33L921.331 142.63C921.891 143.61 923.095 144.254 924.383 144.254C926.133 144.254 927.295 143.148 927.295 141.44V140.656H927.281C926.721 141.538 925.601 142.084 924.607 142.084C922.521 142.084 921.079 140.586 921.079 138.416C921.079 136.19 922.521 134.678 924.607 134.678C925.629 134.678 926.721 135.252 927.295 136.078H927.309L927.421 134.93H928.373V141.44C928.373 143.736 926.791 145.22 924.411 145.22ZM924.747 141.118C926.273 141.118 927.337 139.956 927.337 138.416C927.337 136.834 926.273 135.63 924.747 135.63C923.207 135.63 922.143 136.764 922.143 138.416C922.143 140.012 923.207 141.118 924.747 141.118ZM933.673 142.28C931.419 142.28 929.767 140.642 929.767 138.388C929.767 136.218 931.279 134.65 933.379 134.65C935.451 134.65 936.809 136.218 936.837 138.402C936.837 138.528 936.837 138.682 936.823 138.822H930.873C931.027 140.292 932.161 141.314 933.687 141.314C934.793 141.314 935.731 140.74 936.123 139.97L937.047 140.348C936.585 141.482 935.255 142.28 933.673 142.28ZM930.887 137.884H935.703C935.563 136.442 934.653 135.63 933.365 135.63C932.049 135.63 931.083 136.54 930.887 137.884ZM941.292 142.28C939.528 142.28 938.072 141.37 937.946 139.858L938.996 139.648C939.08 140.628 940.032 141.314 941.292 141.314C942.398 141.314 943.252 140.796 943.252 140.068C943.252 139.522 942.734 139.186 941.544 138.948L940.424 138.724C938.954 138.416 938.324 137.828 938.324 136.792C938.338 135.56 939.43 134.65 940.942 134.65C942.426 134.65 943.532 135.448 943.798 136.596L942.776 136.876C942.678 136.134 941.936 135.588 940.928 135.588C940.032 135.588 939.374 136.134 939.36 136.736C939.36 137.254 939.78 137.548 940.76 137.758L941.908 137.982C943.574 138.332 944.288 138.92 944.288 139.97C944.288 141.3 943 142.28 941.292 142.28ZM948.357 142.28C947.027 142.28 946.131 141.384 946.131 140.096V135.812H944.577V134.93H946.131V132.83L947.195 132.578V134.93H950.359V135.812H947.195V139.984C947.195 140.782 947.685 141.356 948.455 141.356C949.169 141.356 949.827 140.838 949.967 139.928L950.835 140.292C950.639 141.524 949.561 142.28 948.357 142.28ZM954.457 142.28C952.847 142.28 951.727 141.412 951.727 140.152C951.727 139.018 952.623 138.108 954.919 137.828L956.669 137.618C957.019 137.576 957.243 137.38 957.243 137.072C957.243 136.19 956.403 135.616 955.171 135.616C953.841 135.616 952.903 136.47 952.847 137.31L951.881 136.904C952.007 135.742 953.379 134.65 955.213 134.65C957.019 134.65 958.293 135.658 958.293 137.24V142H957.327L957.215 140.824H957.201C956.697 141.72 955.717 142.28 954.457 142.28ZM954.639 141.314C956.123 141.314 957.215 140.348 957.215 138.976V138.472L955.031 138.738C953.323 138.948 952.791 139.494 952.791 140.138C952.791 140.852 953.561 141.314 954.639 141.314ZM962.831 142.28C961.067 142.28 959.611 141.37 959.485 139.858L960.535 139.648C960.619 140.628 961.571 141.314 962.831 141.314C963.937 141.314 964.791 140.796 964.791 140.068C964.791 139.522 964.273 139.186 963.083 138.948L961.963 138.724C960.493 138.416 959.863 137.828 959.863 136.792C959.877 135.56 960.969 134.65 962.481 134.65C963.965 134.65 965.071 135.448 965.337 136.596L964.315 136.876C964.217 136.134 963.475 135.588 962.467 135.588C961.571 135.588 960.913 136.134 960.899 136.736C960.899 137.254 961.319 137.548 962.299 137.758L963.447 137.982C965.113 138.332 965.827 138.92 965.827 139.97C965.827 141.3 964.539 142.28 962.831 142.28ZM973.424 142L970.638 134.93H971.772L974.124 141.062H974.138L976.49 134.93H977.61L974.81 142H973.424ZM981.936 142.28C979.668 142.28 978.17 140.768 978.17 138.472C978.17 136.162 979.668 134.65 981.936 134.65C984.218 134.65 985.716 136.162 985.716 138.472C985.716 140.768 984.218 142.28 981.936 142.28ZM981.936 141.314C983.574 141.314 984.638 140.194 984.638 138.472C984.638 136.75 983.574 135.63 981.936 135.63C980.298 135.63 979.234 136.75 979.234 138.472C979.234 140.194 980.298 141.314 981.936 141.314ZM987.111 142V131.71H988.175V142H987.111ZM992.4 142.28C990.776 142.28 989.782 141.244 989.782 139.494V134.93H990.86V139.382C990.86 140.586 991.574 141.356 992.694 141.356C994.108 141.356 995.13 140.362 995.13 138.92V134.93H996.194V142H995.228L995.13 140.95H995.116C994.514 141.804 993.632 142.28 992.4 142.28ZM1000.95 142.28C999.62 142.28 998.724 141.384 998.724 140.096V135.812H997.17V134.93H998.724V132.83L999.788 132.578V134.93H1002.95V135.812H999.788V139.984C999.788 140.782 1000.28 141.356 1001.05 141.356C1001.76 141.356 1002.42 140.838 1002.56 139.928L1003.43 140.292C1003.23 141.524 1002.15 142.28 1000.95 142.28ZM1004.47 144.94V134.93H1005.39L1005.5 136.148H1005.52C1006.12 135.21 1007.08 134.65 1008.27 134.65C1010.35 134.65 1011.87 136.26 1011.87 138.472C1011.87 140.67 1010.35 142.28 1008.29 142.28C1007.11 142.28 1006.16 141.734 1005.54 140.824H1005.53V144.94H1004.47ZM1008.15 141.3C1009.69 141.3 1010.79 140.068 1010.79 138.472C1010.79 136.834 1009.67 135.63 1008.15 135.63C1006.62 135.63 1005.5 136.862 1005.5 138.472C1005.5 140.068 1006.62 141.3 1008.15 141.3ZM1015.59 142.28C1013.98 142.28 1012.86 141.412 1012.86 140.152C1012.86 139.018 1013.75 138.108 1016.05 137.828L1017.8 137.618C1018.15 137.576 1018.37 137.38 1018.37 137.072C1018.37 136.19 1017.53 135.616 1016.3 135.616C1014.97 135.616 1014.03 136.47 1013.98 137.31L1013.01 136.904C1013.14 135.742 1014.51 134.65 1016.34 134.65C1018.15 134.65 1019.42 135.658 1019.42 137.24V142H1018.46L1018.35 140.824H1018.33C1017.83 141.72 1016.85 142.28 1015.59 142.28ZM1015.77 141.314C1017.25 141.314 1018.35 140.348 1018.35 138.976V138.472L1016.16 138.738C1014.45 138.948 1013.92 139.494 1013.92 140.138C1013.92 140.852 1014.69 141.314 1015.77 141.314ZM1024.12 142.28C1022.79 142.28 1021.89 141.384 1021.89 140.096V135.812H1020.34V134.93H1021.89V132.83L1022.95 132.578V134.93H1026.12V135.812H1022.95V139.984C1022.95 140.782 1023.44 141.356 1024.21 141.356C1024.93 141.356 1025.59 140.838 1025.73 139.928L1026.59 140.292C1026.4 141.524 1025.32 142.28 1024.12 142.28ZM1027.49 143.848L1027.65 143.358C1028.35 143.568 1028.93 142.924 1028.89 142.084C1028.28 142.308 1027.79 141.902 1027.8 141.398C1027.8 140.95 1028.12 140.642 1028.56 140.642C1029.06 140.642 1029.42 141.062 1029.42 141.986C1029.42 143.344 1028.61 144.128 1027.49 143.848ZM763.01 162.28C761.4 162.28 760.28 161.412 760.28 160.152C760.28 159.018 761.176 158.108 763.472 157.828L765.222 157.618C765.572 157.576 765.796 157.38 765.796 157.072C765.796 156.19 764.956 155.616 763.724 155.616C762.394 155.616 761.456 156.47 761.4 157.31L760.434 156.904C760.56 155.742 761.932 154.65 763.766 154.65C765.572 154.65 766.846 155.658 766.846 157.24V162H765.88L765.768 160.824H765.754C765.25 161.72 764.27 162.28 763.01 162.28ZM763.192 161.314C764.676 161.314 765.768 160.348 765.768 158.976V158.472L763.584 158.738C761.876 158.948 761.344 159.494 761.344 160.138C761.344 160.852 762.114 161.314 763.192 161.314ZM771.917 162.28C769.719 162.28 768.179 160.698 768.179 158.472C768.179 156.232 769.635 154.65 771.707 154.65C773.303 154.65 774.605 155.644 774.955 157.072L773.919 157.31C773.639 156.288 772.743 155.63 771.707 155.63C770.293 155.63 769.243 156.778 769.243 158.472C769.243 160.166 770.377 161.314 771.917 161.314C773.205 161.314 774.269 160.488 774.465 159.27L775.501 159.48C775.235 161.104 773.737 162.28 771.917 162.28ZM780.222 162.28C778.024 162.28 776.484 160.698 776.484 158.472C776.484 156.232 777.94 154.65 780.012 154.65C781.608 154.65 782.91 155.644 783.26 157.072L782.224 157.31C781.944 156.288 781.048 155.63 780.012 155.63C778.598 155.63 777.548 156.778 777.548 158.472C777.548 160.166 778.682 161.314 780.222 161.314C781.51 161.314 782.574 160.488 782.77 159.27L783.806 159.48C783.54 161.104 782.042 162.28 780.222 162.28ZM787.617 162.28C785.993 162.28 784.999 161.244 784.999 159.494V154.93H786.077V159.382C786.077 160.586 786.791 161.356 787.911 161.356C789.325 161.356 790.347 160.362 790.347 158.92V154.93H791.411V162H790.445L790.347 160.95H790.333C789.731 161.804 788.849 162.28 787.617 162.28ZM793.088 162V154.93H794.012L794.124 155.966H794.138C794.558 155.14 795.482 154.65 796.616 154.65C797.736 154.65 798.492 155.168 798.856 156.078H798.87C799.5 155.084 800.48 154.65 801.53 154.65C803.07 154.65 803.98 155.63 803.98 157.296V162H802.902V157.366C802.902 156.274 802.272 155.63 801.208 155.63C799.864 155.63 799.066 156.638 799.066 158.066V162H798.002V157.366C798.002 156.274 797.372 155.63 796.294 155.63C794.95 155.63 794.152 156.638 794.152 158.066V162H793.088ZM808.516 162.28C806.752 162.28 805.296 161.37 805.17 159.858L806.22 159.648C806.304 160.628 807.256 161.314 808.516 161.314C809.622 161.314 810.476 160.796 810.476 160.068C810.476 159.522 809.958 159.186 808.768 158.948L807.648 158.724C806.178 158.416 805.548 157.828 805.548 156.792C805.562 155.56 806.654 154.65 808.166 154.65C809.65 154.65 810.756 155.448 811.022 156.596L810 156.876C809.902 156.134 809.16 155.588 808.152 155.588C807.256 155.588 806.598 156.134 806.584 156.736C806.584 157.254 807.004 157.548 807.984 157.758L809.132 157.982C810.798 158.332 811.512 158.92 811.512 159.97C811.512 161.3 810.224 162.28 808.516 162.28ZM815.085 162.28C813.475 162.28 812.355 161.412 812.355 160.152C812.355 159.018 813.251 158.108 815.547 157.828L817.297 157.618C817.647 157.576 817.871 157.38 817.871 157.072C817.871 156.19 817.031 155.616 815.799 155.616C814.469 155.616 813.531 156.47 813.475 157.31L812.509 156.904C812.635 155.742 814.007 154.65 815.841 154.65C817.647 154.65 818.921 155.658 818.921 157.24V162H817.955L817.843 160.824H817.829C817.325 161.72 816.345 162.28 815.085 162.28ZM815.267 161.314C816.751 161.314 817.843 160.348 817.843 158.976V158.472L815.659 158.738C813.951 158.948 813.419 159.494 813.419 160.138C813.419 160.852 814.189 161.314 815.267 161.314ZM824.327 154.65C825.951 154.65 826.945 155.686 826.945 157.436V162H825.867V157.548C825.867 156.344 825.153 155.574 824.033 155.574C822.619 155.574 821.597 156.568 821.597 158.01V162H820.533V154.93H821.499L821.597 155.98H821.611C822.213 155.126 823.095 154.65 824.327 154.65ZM834.956 162.28C833.346 162.28 832.226 161.412 832.226 160.152C832.226 159.018 833.122 158.108 835.418 157.828L837.168 157.618C837.518 157.576 837.742 157.38 837.742 157.072C837.742 156.19 836.902 155.616 835.67 155.616C834.34 155.616 833.402 156.47 833.346 157.31L832.38 156.904C832.506 155.742 833.878 154.65 835.712 154.65C837.518 154.65 838.792 155.658 838.792 157.24V162H837.826L837.714 160.824H837.7C837.196 161.72 836.216 162.28 834.956 162.28ZM835.138 161.314C836.622 161.314 837.714 160.348 837.714 158.976V158.472L835.53 158.738C833.822 158.948 833.29 159.494 833.29 160.138C833.29 160.852 834.06 161.314 835.138 161.314ZM843.722 162.28C841.65 162.28 840.124 160.67 840.124 158.472C840.124 156.26 841.636 154.65 843.708 154.65C844.884 154.65 845.836 155.196 846.438 156.12H846.452V151.71H847.53V162H846.592L846.494 160.782H846.48C845.878 161.72 844.898 162.28 843.722 162.28ZM843.848 161.314C845.374 161.314 846.494 160.068 846.494 158.472C846.494 156.862 845.374 155.63 843.848 155.63C842.308 155.63 841.188 156.862 841.188 158.472C841.188 160.096 842.322 161.314 843.848 161.314ZM849.86 153.558C849.384 153.558 849.076 153.25 849.076 152.774C849.076 152.312 849.384 152.004 849.86 152.004C850.322 152.004 850.658 152.312 850.658 152.774C850.658 153.25 850.322 153.558 849.86 153.558ZM849.314 162V154.93H850.378V162H849.314ZM852.203 164.94V154.93H853.127L853.239 156.148H853.253C853.855 155.21 854.821 154.65 856.011 154.65C858.083 154.65 859.609 156.26 859.609 158.472C859.609 160.67 858.083 162.28 856.025 162.28C854.849 162.28 853.897 161.734 853.281 160.824H853.267V164.94H852.203ZM855.885 161.3C857.425 161.3 858.531 160.068 858.531 158.472C858.531 156.834 857.411 155.63 855.885 155.63C854.359 155.63 853.239 156.862 853.239 158.472C853.239 160.068 854.359 161.3 855.885 161.3ZM861.658 153.558C861.182 153.558 860.874 153.25 860.874 152.774C860.874 152.312 861.182 152.004 861.658 152.004C862.12 152.004 862.456 152.312 862.456 152.774C862.456 153.25 862.12 153.558 861.658 153.558ZM861.112 162V154.93H862.176V162H861.112ZM866.927 162.28C865.163 162.28 863.707 161.37 863.581 159.858L864.631 159.648C864.715 160.628 865.667 161.314 866.927 161.314C868.033 161.314 868.887 160.796 868.887 160.068C868.887 159.522 868.369 159.186 867.179 158.948L866.059 158.724C864.589 158.416 863.959 157.828 863.959 156.792C863.973 155.56 865.065 154.65 866.577 154.65C868.061 154.65 869.167 155.448 869.433 156.596L868.411 156.876C868.313 156.134 867.571 155.588 866.563 155.588C865.667 155.588 865.009 156.134 864.995 156.736C864.995 157.254 865.415 157.548 866.395 157.758L867.543 157.982C869.209 158.332 869.923 158.92 869.923 159.97C869.923 161.3 868.635 162.28 866.927 162.28ZM874.643 162.28C872.445 162.28 870.905 160.698 870.905 158.472C870.905 156.232 872.361 154.65 874.433 154.65C876.029 154.65 877.331 155.644 877.681 157.072L876.645 157.31C876.365 156.288 875.469 155.63 874.433 155.63C873.019 155.63 871.969 156.778 871.969 158.472C871.969 160.166 873.103 161.314 874.643 161.314C875.931 161.314 876.995 160.488 877.191 159.27L878.227 159.48C877.961 161.104 876.463 162.28 874.643 162.28ZM880.135 153.558C879.659 153.558 879.351 153.25 879.351 152.774C879.351 152.312 879.659 152.004 880.135 152.004C880.597 152.004 880.933 152.312 880.933 152.774C880.933 153.25 880.597 153.558 880.135 153.558ZM879.589 162V154.93H880.653V162H879.589ZM886.272 154.65C887.896 154.65 888.89 155.686 888.89 157.436V162H887.812V157.548C887.812 156.344 887.098 155.574 885.978 155.574C884.564 155.574 883.542 156.568 883.542 158.01V162H882.478V154.93H883.444L883.542 155.98H883.556C884.158 155.126 885.04 154.65 886.272 154.65ZM893.562 165.22C891.896 165.22 890.342 164.464 889.656 163.33L890.482 162.63C891.042 163.61 892.246 164.254 893.534 164.254C895.284 164.254 896.446 163.148 896.446 161.44V160.656H896.432C895.872 161.538 894.752 162.084 893.758 162.084C891.672 162.084 890.23 160.586 890.23 158.416C890.23 156.19 891.672 154.678 893.758 154.678C894.78 154.678 895.872 155.252 896.446 156.078H896.46L896.572 154.93H897.524V161.44C897.524 163.736 895.942 165.22 893.562 165.22ZM893.898 161.118C895.424 161.118 896.488 159.956 896.488 158.416C896.488 156.834 895.424 155.63 893.898 155.63C892.358 155.63 891.294 156.764 891.294 158.416C891.294 160.012 892.358 161.118 893.898 161.118ZM906.918 162.28C904.664 162.28 903.012 160.642 903.012 158.388C903.012 156.218 904.524 154.65 906.624 154.65C908.696 154.65 910.054 156.218 910.082 158.402C910.082 158.528 910.082 158.682 910.068 158.822H904.118C904.272 160.292 905.406 161.314 906.932 161.314C908.038 161.314 908.976 160.74 909.368 159.97L910.292 160.348C909.83 161.482 908.5 162.28 906.918 162.28ZM904.132 157.884H908.948C908.808 156.442 907.898 155.63 906.61 155.63C905.294 155.63 904.328 156.54 904.132 157.884ZM914.677 165.22C913.011 165.22 911.457 164.464 910.771 163.33L911.597 162.63C912.157 163.61 913.361 164.254 914.649 164.254C916.399 164.254 917.561 163.148 917.561 161.44V160.656H917.547C916.987 161.538 915.867 162.084 914.873 162.084C912.787 162.084 911.345 160.586 911.345 158.416C911.345 156.19 912.787 154.678 914.873 154.678C915.895 154.678 916.987 155.252 917.561 156.078H917.575L917.687 154.93H918.639V161.44C918.639 163.736 917.057 165.22 914.677 165.22ZM915.013 161.118C916.539 161.118 917.603 159.956 917.603 158.416C917.603 156.834 916.539 155.63 915.013 155.63C913.473 155.63 912.409 156.764 912.409 158.416C912.409 160.012 913.473 161.118 915.013 161.118ZM923.939 162.28C921.685 162.28 920.033 160.642 920.033 158.388C920.033 156.218 921.545 154.65 923.645 154.65C925.717 154.65 927.075 156.218 927.103 158.402C927.103 158.528 927.103 158.682 927.089 158.822H921.139C921.293 160.292 922.427 161.314 923.953 161.314C925.059 161.314 925.997 160.74 926.389 159.97L927.313 160.348C926.851 161.482 925.521 162.28 923.939 162.28ZM921.153 157.884H925.969C925.829 156.442 924.919 155.63 923.631 155.63C922.315 155.63 921.349 156.54 921.153 157.884ZM931.558 162.28C929.794 162.28 928.338 161.37 928.212 159.858L929.262 159.648C929.346 160.628 930.298 161.314 931.558 161.314C932.664 161.314 933.518 160.796 933.518 160.068C933.518 159.522 933 159.186 931.81 158.948L930.69 158.724C929.22 158.416 928.59 157.828 928.59 156.792C928.604 155.56 929.696 154.65 931.208 154.65C932.692 154.65 933.798 155.448 934.064 156.596L933.042 156.876C932.944 156.134 932.202 155.588 931.194 155.588C930.298 155.588 929.64 156.134 929.626 156.736C929.626 157.254 930.046 157.548 931.026 157.758L932.174 157.982C933.84 158.332 934.554 158.92 934.554 159.97C934.554 161.3 933.266 162.28 931.558 162.28ZM938.623 162.28C937.293 162.28 936.397 161.384 936.397 160.096V155.812H934.843V154.93H936.397V152.83L937.461 152.578V154.93H940.625V155.812H937.461V159.984C937.461 160.782 937.951 161.356 938.721 161.356C939.435 161.356 940.093 160.838 940.233 159.928L941.101 160.292C940.905 161.524 939.827 162.28 938.623 162.28ZM944.723 162.28C943.113 162.28 941.993 161.412 941.993 160.152C941.993 159.018 942.889 158.108 945.185 157.828L946.935 157.618C947.285 157.576 947.509 157.38 947.509 157.072C947.509 156.19 946.669 155.616 945.437 155.616C944.107 155.616 943.169 156.47 943.113 157.31L942.147 156.904C942.273 155.742 943.645 154.65 945.479 154.65C947.285 154.65 948.559 155.658 948.559 157.24V162H947.593L947.481 160.824H947.467C946.963 161.72 945.983 162.28 944.723 162.28ZM944.905 161.314C946.389 161.314 947.481 160.348 947.481 158.976V158.472L945.297 158.738C943.589 158.948 943.057 159.494 943.057 160.138C943.057 160.852 943.827 161.314 944.905 161.314ZM953.097 162.28C951.333 162.28 949.877 161.37 949.751 159.858L950.801 159.648C950.885 160.628 951.837 161.314 953.097 161.314C954.203 161.314 955.057 160.796 955.057 160.068C955.057 159.522 954.539 159.186 953.349 158.948L952.229 158.724C950.759 158.416 950.129 157.828 950.129 156.792C950.143 155.56 951.235 154.65 952.747 154.65C954.231 154.65 955.337 155.448 955.603 156.596L954.581 156.876C954.483 156.134 953.741 155.588 952.733 155.588C951.837 155.588 951.179 156.134 951.165 156.736C951.165 157.254 951.585 157.548 952.565 157.758L953.713 157.982C955.379 158.332 956.093 158.92 956.093 159.97C956.093 161.3 954.805 162.28 953.097 162.28ZM965.076 162.28C962.822 162.28 961.17 160.642 961.17 158.388C961.17 156.218 962.682 154.65 964.782 154.65C966.854 154.65 968.212 156.218 968.24 158.402C968.24 158.528 968.24 158.682 968.226 158.822H962.276C962.43 160.292 963.564 161.314 965.09 161.314C966.196 161.314 967.134 160.74 967.526 159.97L968.45 160.348C967.988 161.482 966.658 162.28 965.076 162.28ZM962.29 157.884H967.106C966.966 156.442 966.056 155.63 964.768 155.63C963.452 155.63 962.486 156.54 962.29 157.884ZM972.695 162.28C970.931 162.28 969.475 161.37 969.349 159.858L970.399 159.648C970.483 160.628 971.435 161.314 972.695 161.314C973.801 161.314 974.655 160.796 974.655 160.068C974.655 159.522 974.137 159.186 972.947 158.948L971.827 158.724C970.357 158.416 969.727 157.828 969.727 156.792C969.741 155.56 970.833 154.65 972.345 154.65C973.829 154.65 974.935 155.448 975.201 156.596L974.179 156.876C974.081 156.134 973.339 155.588 972.331 155.588C971.435 155.588 970.777 156.134 970.763 156.736C970.763 157.254 971.183 157.548 972.163 157.758L973.311 157.982C974.977 158.332 975.691 158.92 975.691 159.97C975.691 161.3 974.403 162.28 972.695 162.28ZM979.76 162.28C978.43 162.28 977.534 161.384 977.534 160.096V155.812H975.98V154.93H977.534V152.83L978.598 152.578V154.93H981.762V155.812H978.598V159.984C978.598 160.782 979.088 161.356 979.858 161.356C980.572 161.356 981.23 160.838 981.37 159.928L982.238 160.292C982.042 161.524 980.964 162.28 979.76 162.28ZM983.92 162.168C983.458 162.168 983.136 161.846 983.136 161.384C983.136 160.936 983.458 160.614 983.92 160.614C984.382 160.614 984.718 160.936 984.718 161.384C984.718 161.846 984.382 162.168 983.92 162.168ZM989.798 162L993.634 152.13H995.034L998.842 162H997.61L996.714 159.634H991.954L991.044 162H989.798ZM992.29 158.598H996.364L994.348 153.278H994.32L992.29 158.598ZM1002.09 162.28C1000.46 162.28 999.468 161.244 999.468 159.494V154.93H1000.55V159.382C1000.55 160.586 1001.26 161.356 1002.38 161.356C1003.79 161.356 1004.82 160.362 1004.82 158.92V154.93H1005.88V162H1004.91L1004.82 160.95H1004.8C1004.2 161.804 1003.32 162.28 1002.09 162.28ZM1011.01 162.28C1008.82 162.28 1007.28 160.698 1007.28 158.472C1007.28 156.232 1008.73 154.65 1010.8 154.65C1012.4 154.65 1013.7 155.644 1014.05 157.072L1013.02 157.31C1012.74 156.288 1011.84 155.63 1010.8 155.63C1009.39 155.63 1008.34 156.778 1008.34 158.472C1008.34 160.166 1009.47 161.314 1011.01 161.314C1012.3 161.314 1013.37 160.488 1013.56 159.27L1014.6 159.48C1014.33 161.104 1012.83 162.28 1011.01 162.28ZM1018.67 162.28C1017.34 162.28 1016.44 161.384 1016.44 160.096V155.812H1014.89V154.93H1016.44V152.83L1017.51 152.578V154.93H1020.67V155.812H1017.51V159.984C1017.51 160.782 1018 161.356 1018.77 161.356C1019.48 161.356 1020.14 160.838 1020.28 159.928L1021.15 160.292C1020.95 161.524 1019.87 162.28 1018.67 162.28ZM1025.67 162.28C1023.4 162.28 1021.9 160.768 1021.9 158.472C1021.9 156.162 1023.4 154.65 1025.67 154.65C1027.95 154.65 1029.45 156.162 1029.45 158.472C1029.45 160.768 1027.95 162.28 1025.67 162.28ZM1025.67 161.314C1027.31 161.314 1028.37 160.194 1028.37 158.472C1028.37 156.75 1027.31 155.63 1025.67 155.63C1024.03 155.63 1022.97 156.75 1022.97 158.472C1022.97 160.194 1024.03 161.314 1025.67 161.314ZM1033.91 154.636C1035.12 154.636 1035.94 155.434 1036.08 156.848L1035.16 157.156C1035.05 156.162 1034.53 155.63 1033.76 155.63C1032.62 155.63 1031.91 156.568 1031.91 158.108V162H1030.85V154.93H1031.76L1031.85 156.036H1031.87C1032.26 155.182 1033.02 154.636 1033.91 154.636ZM1045.07 162.28C1042.81 162.28 1041.16 160.642 1041.16 158.388C1041.16 156.218 1042.67 154.65 1044.77 154.65C1046.85 154.65 1048.2 156.218 1048.23 158.402C1048.23 158.528 1048.23 158.682 1048.22 158.822H1042.27C1042.42 160.292 1043.56 161.314 1045.08 161.314C1046.19 161.314 1047.13 160.74 1047.52 159.97L1048.44 160.348C1047.98 161.482 1046.65 162.28 1045.07 162.28ZM1042.28 157.884H1047.1C1046.96 156.442 1046.05 155.63 1044.76 155.63C1043.44 155.63 1042.48 156.54 1042.28 157.884ZM1052.57 162.28C1051.24 162.28 1050.34 161.384 1050.34 160.096V155.812H1048.79V154.93H1050.34V152.83L1051.4 152.578V154.93H1054.57V155.812H1051.4V159.984C1051.4 160.782 1051.89 161.356 1052.66 161.356C1053.38 161.356 1054.04 160.838 1054.18 159.928L1055.04 160.292C1054.85 161.524 1053.77 162.28 1052.57 162.28ZM760.7 182V171.71H761.764V182H760.7ZM767.067 182.28C764.813 182.28 763.161 180.642 763.161 178.388C763.161 176.218 764.673 174.65 766.773 174.65C768.845 174.65 770.203 176.218 770.231 178.402C770.231 178.528 770.231 178.682 770.217 178.822H764.267C764.421 180.292 765.555 181.314 767.081 181.314C768.187 181.314 769.125 180.74 769.517 179.97L770.441 180.348C769.979 181.482 768.649 182.28 767.067 182.28ZM764.281 177.884H769.097C768.957 176.442 768.047 175.63 766.759 175.63C765.443 175.63 764.477 176.54 764.281 177.884ZM775.246 182.28C772.978 182.28 771.48 180.768 771.48 178.472C771.48 176.162 772.978 174.65 775.246 174.65C777.528 174.65 779.026 176.162 779.026 178.472C779.026 180.768 777.528 182.28 775.246 182.28ZM775.246 181.314C776.884 181.314 777.948 180.194 777.948 178.472C777.948 176.75 776.884 175.63 775.246 175.63C773.608 175.63 772.544 176.75 772.544 178.472C772.544 180.194 773.608 181.314 775.246 181.314ZM787.063 182.28C785.439 182.28 784.445 181.244 784.445 179.494V174.93H785.523V179.382C785.523 180.586 786.237 181.356 787.357 181.356C788.771 181.356 789.793 180.362 789.793 178.92V174.93H790.857V182H789.891L789.793 180.95H789.779C789.177 181.804 788.295 182.28 787.063 182.28ZM795.6 174.636C796.804 174.636 797.63 175.434 797.77 176.848L796.846 177.156C796.734 176.162 796.216 175.63 795.446 175.63C794.312 175.63 793.598 176.568 793.598 178.108V182H792.534V174.93H793.444L793.542 176.036H793.556C793.948 175.182 794.704 174.636 795.6 174.636ZM802.828 174.65C804.452 174.65 805.446 175.686 805.446 177.436V182H804.368V177.548C804.368 176.344 803.654 175.574 802.534 175.574C801.12 175.574 800.098 176.568 800.098 178.01V182H799.034V174.93H800L800.098 175.98H800.112C800.714 175.126 801.596 174.65 802.828 174.65ZM809.363 182.28C807.753 182.28 806.633 181.412 806.633 180.152C806.633 179.018 807.529 178.108 809.825 177.828L811.575 177.618C811.925 177.576 812.149 177.38 812.149 177.072C812.149 176.19 811.309 175.616 810.077 175.616C808.747 175.616 807.809 176.47 807.753 177.31L806.787 176.904C806.913 175.742 808.285 174.65 810.119 174.65C811.925 174.65 813.199 175.658 813.199 177.24V182H812.233L812.121 180.824H812.107C811.603 181.72 810.623 182.28 809.363 182.28ZM809.545 181.314C811.029 181.314 812.121 180.348 812.121 178.976V178.472L809.937 178.738C808.229 178.948 807.697 179.494 807.697 180.138C807.697 180.852 808.467 181.314 809.545 181.314ZM822.532 182.28C820.278 182.28 818.626 180.642 818.626 178.388C818.626 176.218 820.138 174.65 822.238 174.65C824.31 174.65 825.668 176.218 825.696 178.402C825.696 178.528 825.696 178.682 825.682 178.822H819.732C819.886 180.292 821.02 181.314 822.546 181.314C823.652 181.314 824.59 180.74 824.982 179.97L825.906 180.348C825.444 181.482 824.114 182.28 822.532 182.28ZM819.746 177.884H824.562C824.422 176.442 823.512 175.63 822.224 175.63C820.908 175.63 819.942 176.54 819.746 177.884ZM830.151 182.28C828.387 182.28 826.931 181.37 826.805 179.858L827.855 179.648C827.939 180.628 828.891 181.314 830.151 181.314C831.257 181.314 832.111 180.796 832.111 180.068C832.111 179.522 831.593 179.186 830.403 178.948L829.283 178.724C827.813 178.416 827.183 177.828 827.183 176.792C827.197 175.56 828.289 174.65 829.801 174.65C831.285 174.65 832.391 175.448 832.657 176.596L831.635 176.876C831.537 176.134 830.795 175.588 829.787 175.588C828.891 175.588 828.233 176.134 828.219 176.736C828.219 177.254 828.639 177.548 829.619 177.758L830.767 177.982C832.433 178.332 833.147 178.92 833.147 179.97C833.147 181.3 831.859 182.28 830.151 182.28ZM837.215 182.28C835.885 182.28 834.989 181.384 834.989 180.096V175.812H833.435V174.93H834.989V172.83L836.053 172.578V174.93H839.217V175.812H836.053V179.984C836.053 180.782 836.543 181.356 837.313 181.356C838.027 181.356 838.685 180.838 838.825 179.928L839.693 180.292C839.497 181.524 838.419 182.28 837.215 182.28ZM841.376 182.168C840.914 182.168 840.592 181.846 840.592 181.384C840.592 180.936 840.914 180.614 841.376 180.614C841.838 180.614 842.174 180.936 842.174 181.384C842.174 181.846 841.838 182.168 841.376 182.168Z" fill="white" fill-opacity="0.6"/>
<rect x="740.5" y="0.5" width="337" height="207" rx="3.5" stroke="#A1AEBF"/>
</g>
<defs>
<linearGradient id="paint0_linear_7_1097" x1="49.8642" y1="33.2894" x2="31.1471" y2="49.9906" gradientUnits="userSpaceOnUse">
<stop stop-color="#9DE8EE"/>
<stop offset="0.0001" stop-color="#9DE8EE"/>
<stop offset="0.490049" stop-color="#FA7C0B"/>
<stop offset="1" stop-color="#9F8CED"/>
</linearGradient>
<linearGradient id="paint1_linear_7_1097" x1="423.122" y1="34.1133" x2="407.085" y2="58.2275" gradientUnits="userSpaceOnUse">
<stop stop-color="#9DE8EE"/>
<stop offset="0.0001" stop-color="#9DE8EE"/>
<stop offset="0.490049" stop-color="#FA7C0B"/>
<stop offset="1" stop-color="#9F8CED"/>
</linearGradient>
<linearGradient id="paint2_linear_7_1097" x1="793.122" y1="32.4655" x2="773.47" y2="57.794" gradientUnits="userSpaceOnUse">
<stop stop-color="#9DE8EE"/>
<stop offset="0.0001" stop-color="#9DE8EE"/>
<stop offset="0.490049" stop-color="#FA7C0B"/>
<stop offset="1" stop-color="#9F8CED"/>
</linearGradient>
<clipPath id="clip0_7_1097">
<rect width="1078" height="208" fill="white"/>
</clipPath>
</defs>
</svg>
