<svg width="16" height="16" viewBox="0 0 16 16" fill="none" xmlns="http://www.w3.org/2000/svg">
<path d="M10.474 8.4735C10.5347 8.4101 10.5823 8.33533 10.614 8.2535C10.6807 8.09119 10.6807 7.90914 10.614 7.74683C10.5823 7.665 10.5347 7.59023 10.474 7.52683L8.47399 5.52683C8.34845 5.4013 8.17819 5.33077 8.00065 5.33077C7.82312 5.33077 7.65286 5.4013 7.52732 5.52683C7.40178 5.65237 7.33126 5.82263 7.33126 6.00017C7.33126 6.1777 7.40178 6.34796 7.52732 6.4735L8.39399 7.3335H6.00065C5.82384 7.3335 5.65427 7.40374 5.52925 7.52876C5.40422 7.65379 5.33399 7.82335 5.33399 8.00017C5.33399 8.17698 5.40422 8.34655 5.52925 8.47157C5.65427 8.59659 5.82384 8.66683 6.00065 8.66683H8.39399L7.52732 9.52683C7.46483 9.58881 7.41524 9.66254 7.38139 9.74378C7.34755 9.82502 7.33012 9.91216 7.33012 10.0002C7.33012 10.0882 7.34755 10.1753 7.38139 10.2565C7.41524 10.3378 7.46483 10.4115 7.52732 10.4735C7.5893 10.536 7.66303 10.5856 7.74427 10.6194C7.82551 10.6533 7.91265 10.6707 8.00065 10.6707C8.08866 10.6707 8.1758 10.6533 8.25704 10.6194C8.33828 10.5856 8.41201 10.536 8.47399 10.4735L10.474 8.4735ZM14.6673 8.00017C14.6673 6.68162 14.2763 5.39269 13.5438 4.29636C12.8112 3.20004 11.7701 2.34555 10.5519 1.84097C9.3337 1.33638 7.99326 1.20436 6.70005 1.4616C5.40685 1.71883 4.21896 2.35377 3.28661 3.28612C2.35426 4.21847 1.71932 5.40636 1.46209 6.69956C1.20485 7.99277 1.33687 9.33321 1.84146 10.5514C2.34604 11.7696 3.20052 12.8108 4.29685 13.5433C5.39318 14.2758 6.68211 14.6668 8.00065 14.6668C9.76876 14.6668 11.4645 13.9645 12.7147 12.7142C13.9649 11.464 14.6673 9.76828 14.6673 8.00017ZM2.66732 8.00017C2.66732 6.94533 2.98012 5.91419 3.56615 5.03712C4.15218 4.16006 4.98514 3.47648 5.95968 3.07281C6.93421 2.66914 8.00657 2.56352 9.04114 2.76931C10.0757 2.9751 11.026 3.48305 11.7719 4.22893C12.5178 4.97481 13.0257 5.92512 13.2315 6.95968C13.4373 7.99425 13.3317 9.0666 12.928 10.0411C12.5243 11.0157 11.8408 11.8486 10.9637 12.4347C10.0866 13.0207 9.05549 13.3335 8.00065 13.3335C6.58617 13.3335 5.22961 12.7716 4.22942 11.7714C3.22922 10.7712 2.66732 9.41465 2.66732 8.00017Z" fill="#728095"/>
</svg>
