<svg width="60" height="60" viewBox="0 0 60 60" fill="none" xmlns="http://www.w3.org/2000/svg">
<g clip-path="url(#clip0_7_1223)">
<rect x="0.5" y="0.5" width="59" height="59" rx="3.5" fill="#0F0F0F"/>
<path d="M29.417 30L32.3337 27.0833C32.667 26.75 32.667 26.25 32.3337 25.9166C32.0003 25.5833 31.5003 25.5833 31.167 25.9166L27.667 29.4166C27.3337 29.75 27.3337 30.25 27.667 30.5833L31.167 34.0833C31.3337 34.25 31.5003 34.3333 31.7503 34.3333C32.0003 34.3333 32.167 34.25 32.3337 34.0833C32.667 33.75 32.667 33.25 32.3337 32.9166L29.417 30Z" fill="#FFA800"/>
<rect x="0.5" y="0.5" width="59" height="59" rx="3.5" stroke="#FFA800"/>
</g>
<defs>
<clipPath id="clip0_7_1223">
<rect width="60" height="60" rx="4" fill="white"/>
</clipPath>
</defs>
</svg>
